<?xml version="1.0" standalone="no"?>
<!DOCTYPE svg PUBLIC "-//W3C//DTD SVG 1.1//EN" "http://www.w3.org/Graphics/SVG/1.1/DTD/svg11.dtd" >
<svg xmlns="http://www.w3.org/2000/svg">
<metadata></metadata>
<defs>
<font id="ac_filmstripregular" horiz-adv-x="1622" >
<font-face units-per-em="2048" ascent="2048" descent="0" />
<missing-glyph horiz-adv-x="2048" />
<glyph horiz-adv-x="0" />
<glyph horiz-adv-x="682" />
<glyph horiz-adv-x="2048" />
<glyph horiz-adv-x="2048" />
<glyph horiz-adv-x="2048" />
<glyph unicode="&#x9;" horiz-adv-x="2048" />
<glyph unicode="&#xa;" horiz-adv-x="2048" />
<glyph unicode="&#xd;" horiz-adv-x="2048" />
<glyph unicode=" "  horiz-adv-x="2048" />
<glyph unicode="&#x09;" horiz-adv-x="2048" />
<glyph unicode="&#xa0;" horiz-adv-x="2048" />
<glyph unicode="!" d="M580 924v-176q113 46 147 67v-436h182v717h-131q-38 -68 -79 -102t-119 -70zM156 100v90q0 9 -5.5 15t-13.5 6h-53q-8 0 -13 -6t-5 -15v-90q0 -8 5 -13t13 -5h53q8 0 13.5 5.5t5.5 12.5zM360 100v90q0 9 -6 15t-14 6h-51q-8 0 -14.5 -6t-6.5 -15v-90q0 -7 6.5 -12.5 t14.5 -5.5h51q8 0 14 5.5t6 12.5zM563 100v90q0 9 -5 15t-13 6h-53q-8 0 -13.5 -6t-5.5 -15v-90q0 -7 5.5 -12.5t13.5 -5.5h53q7 0 12.5 5t5.5 13zM766 100v90q0 9 -5 15t-13 6h-52q-8 0 -14 -6t-6 -15v-90q0 -7 6 -12.5t14 -5.5h52q8 0 13 5t5 13zM971 100v90q0 9 -6.5 15 t-14.5 6h-51q-8 0 -13 -6t-5 -15v-90q0 -8 5.5 -13t12.5 -5h51q8 0 14.5 5.5t6.5 12.5zM1174 100v90q0 9 -5.5 15t-13.5 6h-53q-8 0 -13.5 -6t-5.5 -15v-90q0 -7 5.5 -12.5t13.5 -5.5h53q8 0 13.5 5.5t5.5 12.5zM158 1298v91q0 9 -5.5 14.5t-13.5 5.5h-51q-8 0 -14 -5.5 t-6 -14.5v-91q0 -7 6 -12.5t14 -5.5h51q8 0 13.5 5.5t5.5 12.5zM1378 100v90q0 9 -6 15t-14 6h-51q-8 0 -14.5 -6t-6.5 -15v-90q0 -7 6.5 -12.5t14.5 -5.5h51q8 0 14 5.5t6 12.5zM1593 279v938q0 19 -13 33t-32 14h-1474q-19 0 -32 -14t-13 -33v-938q0 -19 13 -32.5 t32 -13.5h1474q19 0 32 13.5t13 32.5zM362 1298v91q0 20 -18 20h-53q-8 0 -13.5 -5.5t-5.5 -14.5v-91q0 -7 5.5 -12.5t13.5 -5.5h53q8 0 13 5t5 13zM1581 100v90q0 9 -5 15t-13 6h-54q-8 0 -13 -6t-5 -15v-90q0 -8 5.5 -13t12.5 -5h54q7 0 12.5 5t5.5 13zM565 1298v91 q0 20 -18 20h-51q-21 0 -21 -20v-91q0 -8 6 -13t15 -5h51q7 0 12.5 5t5.5 13zM770 1298v91q0 9 -6 14.5t-14 5.5h-52q-18 0 -18 -20v-91q0 -8 5 -13t13 -5h52q8 0 14 5.5t6 12.5zM973 1298v91q0 9 -5.5 14.5t-13.5 5.5h-53q-18 0 -18 -20v-91q0 -8 5.5 -13t12.5 -5h53 q8 0 13.5 5.5t5.5 12.5zM1178 1298v91q0 9 -6.5 14.5t-14.5 5.5h-51q-8 0 -14.5 -5.5t-6.5 -14.5v-91q0 -7 6.5 -12.5t14.5 -5.5h51q8 0 14.5 5.5t6.5 12.5zM1380 1298v91q0 20 -18 20h-53q-8 0 -13.5 -5.5t-5.5 -14.5v-91q0 -7 5.5 -12.5t13.5 -5.5h53q8 0 13 5t5 13z M1583 1298v91q0 20 -18 20h-52q-8 0 -14 -5.5t-6 -14.5v-91q0 -7 6 -12.5t14 -5.5h52q7 0 12.5 5t5.5 13zM1622 1489v-1489h-1622v1489h694q17 -31 47 -49.5t64 -18.5q35 0 65.5 18.5t47.5 49.5h704zM1579 1217v-938q0 -12 -9.5 -21.5t-21.5 -9.5h-1474q-12 0 -21.5 9.5 t-9.5 21.5v938q0 13 9.5 22.5t21.5 9.5h1474q12 0 21.5 -9.5t9.5 -22.5z" />
<glyph unicode="&#x22;" d="M1055 874q0 101 -70 161.5t-172 60.5q-127 0 -185.5 -70.5t-68.5 -200.5l178 -20v33q0 49 14.5 73.5t59.5 24.5q29 0 49.5 -15.5t20.5 -43.5q0 -36 -35 -77t-84.5 -81t-99 -84t-84.5 -100t-35 -113v-43h518v170h-248q80 38 161 140.5t81 184.5zM156 100v90q0 9 -5.5 15 t-13.5 6h-53q-8 0 -13 -6t-5 -15v-90q0 -8 5 -13t13 -5h53q8 0 13.5 5.5t5.5 12.5zM360 100v90q0 9 -6 15t-14 6h-51q-8 0 -14.5 -6t-6.5 -15v-90q0 -7 6.5 -12.5t14.5 -5.5h51q8 0 14 5.5t6 12.5zM563 100v90q0 9 -5 15t-13 6h-53q-8 0 -13.5 -6t-5.5 -15v-90 q0 -7 5.5 -12.5t13.5 -5.5h53q7 0 12.5 5t5.5 13zM766 100v90q0 9 -5 15t-13 6h-52q-8 0 -14 -6t-6 -15v-90q0 -7 6 -12.5t14 -5.5h52q8 0 13 5t5 13zM971 100v90q0 9 -6.5 15t-14.5 6h-51q-8 0 -13 -6t-5 -15v-90q0 -8 5.5 -13t12.5 -5h51q8 0 14.5 5.5t6.5 12.5zM1174 100 v90q0 9 -5.5 15t-13.5 6h-53q-8 0 -13.5 -6t-5.5 -15v-90q0 -7 5.5 -12.5t13.5 -5.5h53q8 0 13.5 5.5t5.5 12.5zM158 1298v91q0 9 -5.5 14.5t-13.5 5.5h-51q-8 0 -14 -5.5t-6 -14.5v-91q0 -7 6 -12.5t14 -5.5h51q8 0 13.5 5.5t5.5 12.5zM1378 100v90q0 9 -6 15t-14 6h-51 q-8 0 -14.5 -6t-6.5 -15v-90q0 -7 6.5 -12.5t14.5 -5.5h51q8 0 14 5.5t6 12.5zM1593 279v938q0 19 -13 33t-32 14h-1474q-19 0 -32 -14t-13 -33v-938q0 -19 13 -32.5t32 -13.5h1474q19 0 32 13.5t13 32.5zM362 1298v91q0 20 -18 20h-53q-8 0 -13.5 -5.5t-5.5 -14.5v-91 q0 -7 5.5 -12.5t13.5 -5.5h53q8 0 13 5t5 13zM1581 100v90q0 9 -5 15t-13 6h-54q-8 0 -13 -6t-5 -15v-90q0 -8 5.5 -13t12.5 -5h54q7 0 12.5 5t5.5 13zM565 1298v91q0 20 -18 20h-51q-21 0 -21 -20v-91q0 -8 6 -13t15 -5h51q7 0 12.5 5t5.5 13zM770 1298v91q0 9 -6 14.5 t-14 5.5h-52q-18 0 -18 -20v-91q0 -8 5 -13t13 -5h52q8 0 14 5.5t6 12.5zM973 1298v91q0 9 -5.5 14.5t-13.5 5.5h-53q-18 0 -18 -20v-91q0 -8 5.5 -13t12.5 -5h53q8 0 13.5 5.5t5.5 12.5zM1178 1298v91q0 9 -6.5 14.5t-14.5 5.5h-51q-8 0 -14.5 -5.5t-6.5 -14.5v-91 q0 -7 6.5 -12.5t14.5 -5.5h51q8 0 14.5 5.5t6.5 12.5zM1380 1298v91q0 20 -18 20h-53q-8 0 -13.5 -5.5t-5.5 -14.5v-91q0 -7 5.5 -12.5t13.5 -5.5h53q8 0 13 5t5 13zM1583 1298v91q0 20 -18 20h-52q-8 0 -14 -5.5t-6 -14.5v-91q0 -7 6 -12.5t14 -5.5h52q7 0 12.5 5t5.5 13z M1622 1489v-1489h-1622v1489h694q17 -31 47 -49.5t64 -18.5q35 0 65.5 18.5t47.5 49.5h704zM1579 1217v-938q0 -12 -9.5 -21.5t-21.5 -9.5h-1474q-12 0 -21.5 9.5t-9.5 21.5v938q0 13 9.5 22.5t21.5 9.5h1474q12 0 21.5 -9.5t9.5 -22.5z" />
<glyph unicode="#" d="M725 809l-16 -141q7 2 31.5 8.5t40.5 9t32 2.5q32 0 53 -21.5t21 -52.5q0 -32 -23 -55.5t-55 -23.5q-10 0 -18.5 2.5t-15 5.5t-12.5 10t-10 11.5t-7.5 15t-5.5 15.5t-4.5 17.5t-3.5 16.5t-3 17.5t-2 15.5l-166 -25q15 -122 73 -190t175 -68q104 0 178 67t74 170 q0 100 -72 160q41 44 41 115q0 90 -66.5 147.5t-158.5 57.5q-110 0 -163.5 -63.5t-74.5 -180.5l172 -21q2 24 4 36.5t9 32t20.5 29t34.5 9.5q51 0 51 -47q0 -48 -133 -82zM156 100v90q0 9 -5.5 15t-13.5 6h-53q-8 0 -13 -6t-5 -15v-90q0 -8 5 -13t13 -5h53q8 0 13.5 5.5 t5.5 12.5zM360 100v90q0 9 -6 15t-14 6h-51q-8 0 -14.5 -6t-6.5 -15v-90q0 -7 6.5 -12.5t14.5 -5.5h51q8 0 14 5.5t6 12.5zM563 100v90q0 9 -5 15t-13 6h-53q-8 0 -13.5 -6t-5.5 -15v-90q0 -7 5.5 -12.5t13.5 -5.5h53q7 0 12.5 5t5.5 13zM766 100v90q0 9 -5 15t-13 6h-52 q-8 0 -14 -6t-6 -15v-90q0 -7 6 -12.5t14 -5.5h52q8 0 13 5t5 13zM971 100v90q0 9 -6.5 15t-14.5 6h-51q-8 0 -13 -6t-5 -15v-90q0 -8 5.5 -13t12.5 -5h51q8 0 14.5 5.5t6.5 12.5zM1174 100v90q0 9 -5.5 15t-13.5 6h-53q-8 0 -13.5 -6t-5.5 -15v-90q0 -7 5.5 -12.5 t13.5 -5.5h53q8 0 13.5 5.5t5.5 12.5zM158 1298v91q0 9 -5.5 14.5t-13.5 5.5h-51q-8 0 -14 -5.5t-6 -14.5v-91q0 -7 6 -12.5t14 -5.5h51q8 0 13.5 5.5t5.5 12.5zM1378 100v90q0 9 -6 15t-14 6h-51q-8 0 -14.5 -6t-6.5 -15v-90q0 -7 6.5 -12.5t14.5 -5.5h51q8 0 14 5.5 t6 12.5zM1593 279v938q0 19 -13 33t-32 14h-1474q-19 0 -32 -14t-13 -33v-938q0 -19 13 -32.5t32 -13.5h1474q19 0 32 13.5t13 32.5zM362 1298v91q0 20 -18 20h-53q-8 0 -13.5 -5.5t-5.5 -14.5v-91q0 -7 5.5 -12.5t13.5 -5.5h53q8 0 13 5t5 13zM1581 100v90q0 9 -5 15t-13 6 h-54q-8 0 -13 -6t-5 -15v-90q0 -8 5.5 -13t12.5 -5h54q7 0 12.5 5t5.5 13zM565 1298v91q0 20 -18 20h-51q-21 0 -21 -20v-91q0 -8 6 -13t15 -5h51q7 0 12.5 5t5.5 13zM770 1298v91q0 9 -6 14.5t-14 5.5h-52q-18 0 -18 -20v-91q0 -8 5 -13t13 -5h52q8 0 14 5.5t6 12.5z M973 1298v91q0 9 -5.5 14.5t-13.5 5.5h-53q-18 0 -18 -20v-91q0 -8 5.5 -13t12.5 -5h53q8 0 13.5 5.5t5.5 12.5zM1178 1298v91q0 9 -6.5 14.5t-14.5 5.5h-51q-8 0 -14.5 -5.5t-6.5 -14.5v-91q0 -7 6.5 -12.5t14.5 -5.5h51q8 0 14.5 5.5t6.5 12.5zM1380 1298v91q0 20 -18 20 h-53q-8 0 -13.5 -5.5t-5.5 -14.5v-91q0 -7 5.5 -12.5t13.5 -5.5h53q8 0 13 5t5 13zM1583 1298v91q0 20 -18 20h-52q-8 0 -14 -5.5t-6 -14.5v-91q0 -7 6 -12.5t14 -5.5h52q7 0 12.5 5t5.5 13zM1622 1489v-1489h-1622v1489h694q17 -31 47 -49.5t64 -18.5q35 0 65.5 18.5 t47.5 49.5h704zM1579 1217v-938q0 -12 -9.5 -21.5t-21.5 -9.5h-1474q-12 0 -21.5 9.5t-9.5 21.5v938q0 13 9.5 22.5t21.5 9.5h1474q12 0 21.5 -9.5t9.5 -22.5z" />
<glyph unicode="$" d="M748 694l61 76v-76h-61zM979 694v402h-139l-312 -439v-133h281v-145h170v145h84v170h-84zM156 100v90q0 9 -5.5 15t-13.5 6h-53q-8 0 -13 -6t-5 -15v-90q0 -8 5 -13t13 -5h53q8 0 13.5 5.5t5.5 12.5zM360 100v90q0 9 -6 15t-14 6h-51q-8 0 -14.5 -6t-6.5 -15v-90 q0 -7 6.5 -12.5t14.5 -5.5h51q8 0 14 5.5t6 12.5zM563 100v90q0 9 -5 15t-13 6h-53q-8 0 -13.5 -6t-5.5 -15v-90q0 -7 5.5 -12.5t13.5 -5.5h53q7 0 12.5 5t5.5 13zM766 100v90q0 9 -5 15t-13 6h-52q-8 0 -14 -6t-6 -15v-90q0 -7 6 -12.5t14 -5.5h52q8 0 13 5t5 13zM971 100 v90q0 9 -6.5 15t-14.5 6h-51q-8 0 -13 -6t-5 -15v-90q0 -8 5.5 -13t12.5 -5h51q8 0 14.5 5.5t6.5 12.5zM1174 100v90q0 9 -5.5 15t-13.5 6h-53q-8 0 -13.5 -6t-5.5 -15v-90q0 -7 5.5 -12.5t13.5 -5.5h53q8 0 13.5 5.5t5.5 12.5zM158 1298v91q0 9 -5.5 14.5t-13.5 5.5h-51 q-8 0 -14 -5.5t-6 -14.5v-91q0 -7 6 -12.5t14 -5.5h51q8 0 13.5 5.5t5.5 12.5zM1378 100v90q0 9 -6 15t-14 6h-51q-8 0 -14.5 -6t-6.5 -15v-90q0 -7 6.5 -12.5t14.5 -5.5h51q8 0 14 5.5t6 12.5zM1593 279v938q0 19 -13 33t-32 14h-1474q-19 0 -32 -14t-13 -33v-938 q0 -19 13 -32.5t32 -13.5h1474q19 0 32 13.5t13 32.5zM362 1298v91q0 20 -18 20h-53q-8 0 -13.5 -5.5t-5.5 -14.5v-91q0 -7 5.5 -12.5t13.5 -5.5h53q8 0 13 5t5 13zM1581 100v90q0 9 -5 15t-13 6h-54q-8 0 -13 -6t-5 -15v-90q0 -8 5.5 -13t12.5 -5h54q7 0 12.5 5t5.5 13z M565 1298v91q0 20 -18 20h-51q-21 0 -21 -20v-91q0 -8 6 -13t15 -5h51q7 0 12.5 5t5.5 13zM770 1298v91q0 9 -6 14.5t-14 5.5h-52q-18 0 -18 -20v-91q0 -8 5 -13t13 -5h52q8 0 14 5.5t6 12.5zM973 1298v91q0 9 -5.5 14.5t-13.5 5.5h-53q-18 0 -18 -20v-91q0 -8 5.5 -13 t12.5 -5h53q8 0 13.5 5.5t5.5 12.5zM1178 1298v91q0 9 -6.5 14.5t-14.5 5.5h-51q-8 0 -14.5 -5.5t-6.5 -14.5v-91q0 -7 6.5 -12.5t14.5 -5.5h51q8 0 14.5 5.5t6.5 12.5zM1380 1298v91q0 20 -18 20h-53q-8 0 -13.5 -5.5t-5.5 -14.5v-91q0 -7 5.5 -12.5t13.5 -5.5h53q8 0 13 5 t5 13zM1583 1298v91q0 20 -18 20h-52q-8 0 -14 -5.5t-6 -14.5v-91q0 -7 6 -12.5t14 -5.5h52q7 0 12.5 5t5.5 13zM1622 1489v-1489h-1622v1489h694q17 -31 47 -49.5t64 -18.5q35 0 65.5 18.5t47.5 49.5h704zM1579 1217v-938q0 -12 -9.5 -21.5t-21.5 -9.5h-1474 q-12 0 -21.5 9.5t-9.5 21.5v938q0 13 9.5 22.5t21.5 9.5h1474q12 0 21.5 -9.5t9.5 -22.5z" />
<glyph unicode="%" d="M827 899q-26 0 -53 -6l8 33h254v170h-395l-78 -408l154 -18q16 25 24.5 35.5t25.5 20t40 9.5q40 0 62 -26t22 -68q0 -40 -21.5 -71t-60.5 -31q-19 0 -33 7.5t-21.5 16.5t-13.5 28t-7 28.5t-4 31.5q-1 5 -1 8l-174 -14q11 -128 70 -197t184 -69q114 0 187 77.5t73 192.5 q0 105 -68.5 177.5t-173.5 72.5zM156 100v90q0 9 -5.5 15t-13.5 6h-53q-8 0 -13 -6t-5 -15v-90q0 -8 5 -13t13 -5h53q8 0 13.5 5.5t5.5 12.5zM360 100v90q0 9 -6 15t-14 6h-51q-8 0 -14.5 -6t-6.5 -15v-90q0 -7 6.5 -12.5t14.5 -5.5h51q8 0 14 5.5t6 12.5zM563 100v90 q0 9 -5 15t-13 6h-53q-8 0 -13.5 -6t-5.5 -15v-90q0 -7 5.5 -12.5t13.5 -5.5h53q7 0 12.5 5t5.5 13zM766 100v90q0 9 -5 15t-13 6h-52q-8 0 -14 -6t-6 -15v-90q0 -7 6 -12.5t14 -5.5h52q8 0 13 5t5 13zM971 100v90q0 9 -6.5 15t-14.5 6h-51q-8 0 -13 -6t-5 -15v-90 q0 -8 5.5 -13t12.5 -5h51q8 0 14.5 5.5t6.5 12.5zM1174 100v90q0 9 -5.5 15t-13.5 6h-53q-8 0 -13.5 -6t-5.5 -15v-90q0 -7 5.5 -12.5t13.5 -5.5h53q8 0 13.5 5.5t5.5 12.5zM158 1298v91q0 9 -5.5 14.5t-13.5 5.5h-51q-8 0 -14 -5.5t-6 -14.5v-91q0 -7 6 -12.5t14 -5.5h51 q8 0 13.5 5.5t5.5 12.5zM1378 100v90q0 9 -6 15t-14 6h-51q-8 0 -14.5 -6t-6.5 -15v-90q0 -7 6.5 -12.5t14.5 -5.5h51q8 0 14 5.5t6 12.5zM1593 279v938q0 19 -13 33t-32 14h-1474q-19 0 -32 -14t-13 -33v-938q0 -19 13 -32.5t32 -13.5h1474q19 0 32 13.5t13 32.5zM362 1298 v91q0 20 -18 20h-53q-8 0 -13.5 -5.5t-5.5 -14.5v-91q0 -7 5.5 -12.5t13.5 -5.5h53q8 0 13 5t5 13zM1581 100v90q0 9 -5 15t-13 6h-54q-8 0 -13 -6t-5 -15v-90q0 -8 5.5 -13t12.5 -5h54q7 0 12.5 5t5.5 13zM565 1298v91q0 20 -18 20h-51q-21 0 -21 -20v-91q0 -8 6 -13t15 -5 h51q7 0 12.5 5t5.5 13zM770 1298v91q0 9 -6 14.5t-14 5.5h-52q-18 0 -18 -20v-91q0 -8 5 -13t13 -5h52q8 0 14 5.5t6 12.5zM973 1298v91q0 9 -5.5 14.5t-13.5 5.5h-53q-18 0 -18 -20v-91q0 -8 5.5 -13t12.5 -5h53q8 0 13.5 5.5t5.5 12.5zM1178 1298v91q0 9 -6.5 14.5 t-14.5 5.5h-51q-8 0 -14.5 -5.5t-6.5 -14.5v-91q0 -7 6.5 -12.5t14.5 -5.5h51q8 0 14.5 5.5t6.5 12.5zM1380 1298v91q0 20 -18 20h-53q-8 0 -13.5 -5.5t-5.5 -14.5v-91q0 -7 5.5 -12.5t13.5 -5.5h53q8 0 13 5t5 13zM1583 1298v91q0 20 -18 20h-52q-8 0 -14 -5.5t-6 -14.5 v-91q0 -7 6 -12.5t14 -5.5h52q7 0 12.5 5t5.5 13zM1622 1489v-1489h-1622v1489h694q17 -31 47 -49.5t64 -18.5q35 0 65.5 18.5t47.5 49.5h704zM1579 1217v-938q0 -12 -9.5 -21.5t-21.5 -9.5h-1474q-12 0 -21.5 9.5t-9.5 21.5v938q0 13 9.5 22.5t21.5 9.5h1474 q12 0 21.5 -9.5t9.5 -22.5z" />
<glyph unicode="&#x26;" d="M811 940q28 0 39.5 -18t17.5 -50q-28 7 -49 7q-39 0 -88 -17q9 31 30 54.5t50 23.5zM731 633q0 36 19.5 61t54.5 25q34 0 51.5 -26.5t17.5 -63.5q0 -36 -16.5 -65t-50.5 -29q-35 0 -55.5 30.5t-20.5 67.5zM938 844l104 10q-15 117 -65.5 179.5t-161.5 62.5 q-76 0 -130.5 -33t-83 -89.5t-40.5 -118.5t-12 -134q0 -68 13 -126t41 -108t81 -79t125 -29q105 0 171.5 74.5t66.5 181.5q0 65 -28 120.5t-81 88.5zM156 100v90q0 9 -5.5 15t-13.5 6h-53q-8 0 -13 -6t-5 -15v-90q0 -8 5 -13t13 -5h53q8 0 13.5 5.5t5.5 12.5zM360 100v90 q0 9 -6 15t-14 6h-51q-8 0 -14.5 -6t-6.5 -15v-90q0 -7 6.5 -12.5t14.5 -5.5h51q8 0 14 5.5t6 12.5zM563 100v90q0 9 -5 15t-13 6h-53q-8 0 -13.5 -6t-5.5 -15v-90q0 -7 5.5 -12.5t13.5 -5.5h53q7 0 12.5 5t5.5 13zM766 100v90q0 9 -5 15t-13 6h-52q-8 0 -14 -6t-6 -15v-90 q0 -7 6 -12.5t14 -5.5h52q8 0 13 5t5 13zM971 100v90q0 9 -6.5 15t-14.5 6h-51q-8 0 -13 -6t-5 -15v-90q0 -8 5.5 -13t12.5 -5h51q8 0 14.5 5.5t6.5 12.5zM1174 100v90q0 9 -5.5 15t-13.5 6h-53q-8 0 -13.5 -6t-5.5 -15v-90q0 -7 5.5 -12.5t13.5 -5.5h53q8 0 13.5 5.5 t5.5 12.5zM158 1298v91q0 9 -5.5 14.5t-13.5 5.5h-51q-8 0 -14 -5.5t-6 -14.5v-91q0 -7 6 -12.5t14 -5.5h51q8 0 13.5 5.5t5.5 12.5zM1378 100v90q0 9 -6 15t-14 6h-51q-8 0 -14.5 -6t-6.5 -15v-90q0 -7 6.5 -12.5t14.5 -5.5h51q8 0 14 5.5t6 12.5zM1593 279v938 q0 19 -13 33t-32 14h-1474q-19 0 -32 -14t-13 -33v-938q0 -19 13 -32.5t32 -13.5h1474q19 0 32 13.5t13 32.5zM362 1298v91q0 20 -18 20h-53q-8 0 -13.5 -5.5t-5.5 -14.5v-91q0 -7 5.5 -12.5t13.5 -5.5h53q8 0 13 5t5 13zM1581 100v90q0 9 -5 15t-13 6h-54q-8 0 -13 -6 t-5 -15v-90q0 -8 5.5 -13t12.5 -5h54q7 0 12.5 5t5.5 13zM565 1298v91q0 20 -18 20h-51q-21 0 -21 -20v-91q0 -8 6 -13t15 -5h51q7 0 12.5 5t5.5 13zM770 1298v91q0 9 -6 14.5t-14 5.5h-52q-18 0 -18 -20v-91q0 -8 5 -13t13 -5h52q8 0 14 5.5t6 12.5zM973 1298v91 q0 9 -5.5 14.5t-13.5 5.5h-53q-18 0 -18 -20v-91q0 -8 5.5 -13t12.5 -5h53q8 0 13.5 5.5t5.5 12.5zM1178 1298v91q0 9 -6.5 14.5t-14.5 5.5h-51q-8 0 -14.5 -5.5t-6.5 -14.5v-91q0 -7 6.5 -12.5t14.5 -5.5h51q8 0 14.5 5.5t6.5 12.5zM1380 1298v91q0 20 -18 20h-53 q-8 0 -13.5 -5.5t-5.5 -14.5v-91q0 -7 5.5 -12.5t13.5 -5.5h53q8 0 13 5t5 13zM1583 1298v91q0 20 -18 20h-52q-8 0 -14 -5.5t-6 -14.5v-91q0 -7 6 -12.5t14 -5.5h52q7 0 12.5 5t5.5 13zM1622 1489v-1489h-1622v1489h694q17 -31 47 -49.5t64 -18.5q35 0 65.5 18.5t47.5 49.5 h704zM1579 1217v-938q0 -12 -9.5 -21.5t-21.5 -9.5h-1474q-12 0 -21.5 9.5t-9.5 21.5v938q0 13 9.5 22.5t21.5 9.5h1474q12 0 21.5 -9.5t9.5 -22.5z" />
<glyph unicode="'" d="M545 1096v-172h260q-165 -250 -174 -545h178q14 179 70.5 317.5t173.5 274.5v125h-508zM156 100v90q0 9 -5.5 15t-13.5 6h-53q-8 0 -13 -6t-5 -15v-90q0 -8 5 -13t13 -5h53q8 0 13.5 5.5t5.5 12.5zM360 100v90q0 9 -6 15t-14 6h-51q-8 0 -14.5 -6t-6.5 -15v-90 q0 -7 6.5 -12.5t14.5 -5.5h51q8 0 14 5.5t6 12.5zM563 100v90q0 9 -5 15t-13 6h-53q-8 0 -13.5 -6t-5.5 -15v-90q0 -7 5.5 -12.5t13.5 -5.5h53q7 0 12.5 5t5.5 13zM766 100v90q0 9 -5 15t-13 6h-52q-8 0 -14 -6t-6 -15v-90q0 -7 6 -12.5t14 -5.5h52q8 0 13 5t5 13zM971 100 v90q0 9 -6.5 15t-14.5 6h-51q-8 0 -13 -6t-5 -15v-90q0 -8 5.5 -13t12.5 -5h51q8 0 14.5 5.5t6.5 12.5zM1174 100v90q0 9 -5.5 15t-13.5 6h-53q-8 0 -13.5 -6t-5.5 -15v-90q0 -7 5.5 -12.5t13.5 -5.5h53q8 0 13.5 5.5t5.5 12.5zM158 1298v91q0 9 -5.5 14.5t-13.5 5.5h-51 q-8 0 -14 -5.5t-6 -14.5v-91q0 -7 6 -12.5t14 -5.5h51q8 0 13.5 5.5t5.5 12.5zM1378 100v90q0 9 -6 15t-14 6h-51q-8 0 -14.5 -6t-6.5 -15v-90q0 -7 6.5 -12.5t14.5 -5.5h51q8 0 14 5.5t6 12.5zM1593 279v938q0 19 -13 33t-32 14h-1474q-19 0 -32 -14t-13 -33v-938 q0 -19 13 -32.5t32 -13.5h1474q19 0 32 13.5t13 32.5zM362 1298v91q0 20 -18 20h-53q-8 0 -13.5 -5.5t-5.5 -14.5v-91q0 -7 5.5 -12.5t13.5 -5.5h53q8 0 13 5t5 13zM1581 100v90q0 9 -5 15t-13 6h-54q-8 0 -13 -6t-5 -15v-90q0 -8 5.5 -13t12.5 -5h54q7 0 12.5 5t5.5 13z M565 1298v91q0 20 -18 20h-51q-21 0 -21 -20v-91q0 -8 6 -13t15 -5h51q7 0 12.5 5t5.5 13zM770 1298v91q0 9 -6 14.5t-14 5.5h-52q-18 0 -18 -20v-91q0 -8 5 -13t13 -5h52q8 0 14 5.5t6 12.5zM973 1298v91q0 9 -5.5 14.5t-13.5 5.5h-53q-18 0 -18 -20v-91q0 -8 5.5 -13 t12.5 -5h53q8 0 13.5 5.5t5.5 12.5zM1178 1298v91q0 9 -6.5 14.5t-14.5 5.5h-51q-8 0 -14.5 -5.5t-6.5 -14.5v-91q0 -7 6.5 -12.5t14.5 -5.5h51q8 0 14.5 5.5t6.5 12.5zM1380 1298v91q0 20 -18 20h-53q-8 0 -13.5 -5.5t-5.5 -14.5v-91q0 -7 5.5 -12.5t13.5 -5.5h53q8 0 13 5 t5 13zM1583 1298v91q0 20 -18 20h-52q-8 0 -14 -5.5t-6 -14.5v-91q0 -7 6 -12.5t14 -5.5h52q7 0 12.5 5t5.5 13zM1622 1489v-1489h-1622v1489h694q17 -31 47 -49.5t64 -18.5q35 0 65.5 18.5t47.5 49.5h704zM1579 1217v-938q0 -12 -9.5 -21.5t-21.5 -9.5h-1474 q-12 0 -21.5 9.5t-9.5 21.5v938q0 13 9.5 22.5t21.5 9.5h1474q12 0 21.5 -9.5t9.5 -22.5z" />
<glyph unicode="(" d="M807 688q34 0 56 -22t22 -56q0 -33 -21.5 -54t-54.5 -21q-34 0 -56 21.5t-22 55.5q0 33 21.5 54.5t54.5 21.5zM860 889q0 -21 -15 -34t-36 -13q-25 0 -39 14t-14 37q0 21 15 34t36 13q22 0 37.5 -14t15.5 -37zM985 770q45 48 45 119q0 92 -65.5 149.5t-157.5 57.5 q-93 0 -158 -57t-65 -148q0 -74 45 -119q-68 -62 -68 -160q0 -104 71.5 -168.5t176.5 -64.5q102 0 174 64.5t72 166.5q0 104 -70 160zM156 100v90q0 9 -5.5 15t-13.5 6h-53q-8 0 -13 -6t-5 -15v-90q0 -8 5 -13t13 -5h53q8 0 13.5 5.5t5.5 12.5zM360 100v90q0 9 -6 15t-14 6 h-51q-8 0 -14.5 -6t-6.5 -15v-90q0 -7 6.5 -12.5t14.5 -5.5h51q8 0 14 5.5t6 12.5zM563 100v90q0 9 -5 15t-13 6h-53q-8 0 -13.5 -6t-5.5 -15v-90q0 -7 5.5 -12.5t13.5 -5.5h53q7 0 12.5 5t5.5 13zM766 100v90q0 9 -5 15t-13 6h-52q-8 0 -14 -6t-6 -15v-90q0 -7 6 -12.5 t14 -5.5h52q8 0 13 5t5 13zM971 100v90q0 9 -6.5 15t-14.5 6h-51q-8 0 -13 -6t-5 -15v-90q0 -8 5.5 -13t12.5 -5h51q8 0 14.5 5.5t6.5 12.5zM1174 100v90q0 9 -5.5 15t-13.5 6h-53q-8 0 -13.5 -6t-5.5 -15v-90q0 -7 5.5 -12.5t13.5 -5.5h53q8 0 13.5 5.5t5.5 12.5zM158 1298 v91q0 9 -5.5 14.5t-13.5 5.5h-51q-8 0 -14 -5.5t-6 -14.5v-91q0 -7 6 -12.5t14 -5.5h51q8 0 13.5 5.5t5.5 12.5zM1378 100v90q0 9 -6 15t-14 6h-51q-8 0 -14.5 -6t-6.5 -15v-90q0 -7 6.5 -12.5t14.5 -5.5h51q8 0 14 5.5t6 12.5zM1593 279v938q0 19 -13 33t-32 14h-1474 q-19 0 -32 -14t-13 -33v-938q0 -19 13 -32.5t32 -13.5h1474q19 0 32 13.5t13 32.5zM362 1298v91q0 20 -18 20h-53q-8 0 -13.5 -5.5t-5.5 -14.5v-91q0 -7 5.5 -12.5t13.5 -5.5h53q8 0 13 5t5 13zM1581 100v90q0 9 -5 15t-13 6h-54q-8 0 -13 -6t-5 -15v-90q0 -8 5.5 -13 t12.5 -5h54q7 0 12.5 5t5.5 13zM565 1298v91q0 20 -18 20h-51q-21 0 -21 -20v-91q0 -8 6 -13t15 -5h51q7 0 12.5 5t5.5 13zM770 1298v91q0 9 -6 14.5t-14 5.5h-52q-18 0 -18 -20v-91q0 -8 5 -13t13 -5h52q8 0 14 5.5t6 12.5zM973 1298v91q0 9 -5.5 14.5t-13.5 5.5h-53 q-18 0 -18 -20v-91q0 -8 5.5 -13t12.5 -5h53q8 0 13.5 5.5t5.5 12.5zM1178 1298v91q0 9 -6.5 14.5t-14.5 5.5h-51q-8 0 -14.5 -5.5t-6.5 -14.5v-91q0 -7 6.5 -12.5t14.5 -5.5h51q8 0 14.5 5.5t6.5 12.5zM1380 1298v91q0 20 -18 20h-53q-8 0 -13.5 -5.5t-5.5 -14.5v-91 q0 -7 5.5 -12.5t13.5 -5.5h53q8 0 13 5t5 13zM1583 1298v91q0 20 -18 20h-52q-8 0 -14 -5.5t-6 -14.5v-91q0 -7 6 -12.5t14 -5.5h52q7 0 12.5 5t5.5 13zM1622 1489v-1489h-1622v1489h694q17 -31 47 -49.5t64 -18.5q35 0 65.5 18.5t47.5 49.5h704zM1579 1217v-938 q0 -12 -9.5 -21.5t-21.5 -9.5h-1474q-12 0 -21.5 9.5t-9.5 21.5v938q0 13 9.5 22.5t21.5 9.5h1474q12 0 21.5 -9.5t9.5 -22.5z" />
<glyph unicode=")" d="M897 846q0 -38 -18.5 -64t-55.5 -26q-34 0 -53.5 24.5t-19.5 59.5q0 38 20 69t55 31q34 0 53 -29t19 -65zM809 535q-20 0 -32 10.5t-15.5 22t-7.5 34.5q24 -6 53 -6q41 0 84 16q-24 -77 -82 -77zM817 1096q-106 0 -171.5 -73t-65.5 -181q0 -144 108 -213l-104 -8 q15 -117 64.5 -179.5t160.5 -62.5q76 0 130.5 33t82 90t39.5 118.5t12 133.5q0 67 -13 124.5t-41 108t-79.5 80t-122.5 29.5zM156 100v90q0 9 -5.5 15t-13.5 6h-53q-8 0 -13 -6t-5 -15v-90q0 -8 5 -13t13 -5h53q8 0 13.5 5.5t5.5 12.5zM360 100v90q0 9 -6 15t-14 6h-51 q-8 0 -14.5 -6t-6.5 -15v-90q0 -7 6.5 -12.5t14.5 -5.5h51q8 0 14 5.5t6 12.5zM563 100v90q0 9 -5 15t-13 6h-53q-8 0 -13.5 -6t-5.5 -15v-90q0 -7 5.5 -12.5t13.5 -5.5h53q7 0 12.5 5t5.5 13zM766 100v90q0 9 -5 15t-13 6h-52q-8 0 -14 -6t-6 -15v-90q0 -7 6 -12.5t14 -5.5 h52q8 0 13 5t5 13zM971 100v90q0 9 -6.5 15t-14.5 6h-51q-8 0 -13 -6t-5 -15v-90q0 -8 5.5 -13t12.5 -5h51q8 0 14.5 5.5t6.5 12.5zM1174 100v90q0 9 -5.5 15t-13.5 6h-53q-8 0 -13.5 -6t-5.5 -15v-90q0 -7 5.5 -12.5t13.5 -5.5h53q8 0 13.5 5.5t5.5 12.5zM158 1298v91 q0 9 -5.5 14.5t-13.5 5.5h-51q-8 0 -14 -5.5t-6 -14.5v-91q0 -7 6 -12.5t14 -5.5h51q8 0 13.5 5.5t5.5 12.5zM1378 100v90q0 9 -6 15t-14 6h-51q-8 0 -14.5 -6t-6.5 -15v-90q0 -7 6.5 -12.5t14.5 -5.5h51q8 0 14 5.5t6 12.5zM1593 279v938q0 19 -13 33t-32 14h-1474 q-19 0 -32 -14t-13 -33v-938q0 -19 13 -32.5t32 -13.5h1474q19 0 32 13.5t13 32.5zM362 1298v91q0 20 -18 20h-53q-8 0 -13.5 -5.5t-5.5 -14.5v-91q0 -7 5.5 -12.5t13.5 -5.5h53q8 0 13 5t5 13zM1581 100v90q0 9 -5 15t-13 6h-54q-8 0 -13 -6t-5 -15v-90q0 -8 5.5 -13 t12.5 -5h54q7 0 12.5 5t5.5 13zM565 1298v91q0 20 -18 20h-51q-21 0 -21 -20v-91q0 -8 6 -13t15 -5h51q7 0 12.5 5t5.5 13zM770 1298v91q0 9 -6 14.5t-14 5.5h-52q-18 0 -18 -20v-91q0 -8 5 -13t13 -5h52q8 0 14 5.5t6 12.5zM973 1298v91q0 9 -5.5 14.5t-13.5 5.5h-53 q-18 0 -18 -20v-91q0 -8 5.5 -13t12.5 -5h53q8 0 13.5 5.5t5.5 12.5zM1178 1298v91q0 9 -6.5 14.5t-14.5 5.5h-51q-8 0 -14.5 -5.5t-6.5 -14.5v-91q0 -7 6.5 -12.5t14.5 -5.5h51q8 0 14.5 5.5t6.5 12.5zM1380 1298v91q0 20 -18 20h-53q-8 0 -13.5 -5.5t-5.5 -14.5v-91 q0 -7 5.5 -12.5t13.5 -5.5h53q8 0 13 5t5 13zM1583 1298v91q0 20 -18 20h-52q-8 0 -14 -5.5t-6 -14.5v-91q0 -7 6 -12.5t14 -5.5h52q7 0 12.5 5t5.5 13zM1622 1489v-1489h-1622v1489h694q17 -31 47 -49.5t64 -18.5q35 0 65.5 18.5t47.5 49.5h704zM1579 1217v-938 q0 -12 -9.5 -21.5t-21.5 -9.5h-1474q-12 0 -21.5 9.5t-9.5 21.5v938q0 13 9.5 22.5t21.5 9.5h1474q12 0 21.5 -9.5t9.5 -22.5z" />
<glyph unicode="*" d="M809 535q-76 0 -76 202q0 203 74 203q76 0 76 -203q0 -202 -74 -202zM809 1096q-58 0 -102.5 -22t-71 -57t-43.5 -84t-23 -96t-6 -100q0 -68 10.5 -126t36 -113.5t76.5 -87t123 -31.5q58 0 102.5 22t71 56.5t43.5 83t23 96t6 100.5t-6 100.5t-23 96.5t-43.5 83.5 t-71 56.5t-102.5 22zM156 100v90q0 9 -5.5 15t-13.5 6h-53q-8 0 -13 -6t-5 -15v-90q0 -8 5 -13t13 -5h53q8 0 13.5 5.5t5.5 12.5zM360 100v90q0 9 -6 15t-14 6h-51q-8 0 -14.5 -6t-6.5 -15v-90q0 -7 6.5 -12.5t14.5 -5.5h51q8 0 14 5.5t6 12.5zM563 100v90q0 9 -5 15t-13 6 h-53q-8 0 -13.5 -6t-5.5 -15v-90q0 -7 5.5 -12.5t13.5 -5.5h53q7 0 12.5 5t5.5 13zM766 100v90q0 9 -5 15t-13 6h-52q-8 0 -14 -6t-6 -15v-90q0 -7 6 -12.5t14 -5.5h52q8 0 13 5t5 13zM971 100v90q0 9 -6.5 15t-14.5 6h-51q-8 0 -13 -6t-5 -15v-90q0 -8 5.5 -13t12.5 -5h51 q8 0 14.5 5.5t6.5 12.5zM1174 100v90q0 9 -5.5 15t-13.5 6h-53q-8 0 -13.5 -6t-5.5 -15v-90q0 -7 5.5 -12.5t13.5 -5.5h53q8 0 13.5 5.5t5.5 12.5zM158 1298v91q0 9 -5.5 14.5t-13.5 5.5h-51q-8 0 -14 -5.5t-6 -14.5v-91q0 -7 6 -12.5t14 -5.5h51q8 0 13.5 5.5t5.5 12.5z M1378 100v90q0 9 -6 15t-14 6h-51q-8 0 -14.5 -6t-6.5 -15v-90q0 -7 6.5 -12.5t14.5 -5.5h51q8 0 14 5.5t6 12.5zM1593 279v938q0 19 -13 33t-32 14h-1474q-19 0 -32 -14t-13 -33v-938q0 -19 13 -32.5t32 -13.5h1474q19 0 32 13.5t13 32.5zM362 1298v91q0 20 -18 20h-53 q-8 0 -13.5 -5.5t-5.5 -14.5v-91q0 -7 5.5 -12.5t13.5 -5.5h53q8 0 13 5t5 13zM1581 100v90q0 9 -5 15t-13 6h-54q-8 0 -13 -6t-5 -15v-90q0 -8 5.5 -13t12.5 -5h54q7 0 12.5 5t5.5 13zM565 1298v91q0 20 -18 20h-51q-21 0 -21 -20v-91q0 -8 6 -13t15 -5h51q7 0 12.5 5 t5.5 13zM770 1298v91q0 9 -6 14.5t-14 5.5h-52q-18 0 -18 -20v-91q0 -8 5 -13t13 -5h52q8 0 14 5.5t6 12.5zM973 1298v91q0 9 -5.5 14.5t-13.5 5.5h-53q-18 0 -18 -20v-91q0 -8 5.5 -13t12.5 -5h53q8 0 13.5 5.5t5.5 12.5zM1178 1298v91q0 9 -6.5 14.5t-14.5 5.5h-51 q-8 0 -14.5 -5.5t-6.5 -14.5v-91q0 -7 6.5 -12.5t14.5 -5.5h51q8 0 14.5 5.5t6.5 12.5zM1380 1298v91q0 20 -18 20h-53q-8 0 -13.5 -5.5t-5.5 -14.5v-91q0 -7 5.5 -12.5t13.5 -5.5h53q8 0 13 5t5 13zM1583 1298v91q0 20 -18 20h-52q-8 0 -14 -5.5t-6 -14.5v-91q0 -7 6 -12.5 t14 -5.5h52q7 0 12.5 5t5.5 13zM1622 1489v-1489h-1622v1489h694q17 -31 47 -49.5t64 -18.5q35 0 65.5 18.5t47.5 49.5h704zM1579 1217v-938q0 -12 -9.5 -21.5t-21.5 -9.5h-1474q-12 0 -21.5 9.5t-9.5 21.5v938q0 13 9.5 22.5t21.5 9.5h1474q12 0 21.5 -9.5t9.5 -22.5z" />
<glyph unicode="0" d="M0 1489h694q17 -31 47 -49.5t64 -18.5q35 0 65.5 18.5t47.5 49.5h704v-1489h-1622v1489zM88 1409q-8 0 -14 -6.5t-6 -13.5v-91q0 -7 6 -12.5t14 -5.5h51q8 0 13.5 5.5t5.5 12.5v91q0 8 -6 14t-13 6h-51zM291 1409q-7 0 -13 -6t-6 -14v-91q0 -7 5.5 -12.5t13.5 -5.5h53 q8 0 13 5t5 13v91q0 8 -5.5 14t-12.5 6h-53zM496 1409q-8 0 -14.5 -6.5t-6.5 -13.5v-91q0 -7 6.5 -12.5t14.5 -5.5h51q7 0 12.5 5t5.5 13v91q0 8 -5.5 14t-12.5 6h-51zM698 1409q-7 0 -12.5 -6t-5.5 -14v-91q0 -8 5 -13t13 -5h52q8 0 14 5.5t6 12.5v91q0 7 -6 13.5t-14 6.5 h-52zM901 1409q-7 0 -12.5 -6t-5.5 -14v-91q0 -8 5.5 -13t12.5 -5h53q8 0 13.5 5.5t5.5 12.5v91q0 8 -6 14t-13 6h-53zM1106 1409q-8 0 -14.5 -6.5t-6.5 -13.5v-91q0 -7 6.5 -12.5t14.5 -5.5h51q8 0 14.5 5.5t6.5 12.5v91q0 7 -6.5 13.5t-14.5 6.5h-51zM1309 1409 q-7 0 -13 -6t-6 -14v-91q0 -7 5.5 -12.5t13.5 -5.5h53q8 0 13 5t5 13v91q0 8 -5.5 14t-12.5 6h-53zM1513 1409q-7 0 -13.5 -6.5t-6.5 -13.5v-91q0 -7 6 -12.5t14 -5.5h52q7 0 12.5 5t5.5 13v91q0 8 -5.5 14t-12.5 6h-52zM74 1255q-15 0 -27 -11.5t-12 -26.5v-938 q0 -15 12 -26t27 -11h1474q15 0 27 11t12 26v938q0 15 -12 26.5t-27 11.5h-1474zM84 211q-8 0 -13 -6t-5 -15v-90q0 -8 5 -13t13 -5h53q8 0 13.5 5.5t5.5 12.5v90q0 9 -5.5 15t-13.5 6h-53zM289 211q-8 0 -14.5 -6t-6.5 -15v-90q0 -7 6.5 -12.5t14.5 -5.5h51q8 0 14 5.5 t6 12.5v90q0 9 -6 15t-14 6h-51zM492 211q-8 0 -13.5 -6t-5.5 -15v-90q0 -7 5.5 -12.5t13.5 -5.5h53q7 0 12.5 5t5.5 13v90q0 9 -5 15t-13 6h-53zM696 211q-8 0 -14 -6t-6 -15v-90q0 -7 6 -12.5t14 -5.5h52q8 0 13 5t5 13v90q0 9 -5 15t-13 6h-52zM899 211q-8 0 -13 -6 t-5 -15v-90q0 -8 5.5 -13t12.5 -5h51q8 0 14.5 5.5t6.5 12.5v90q0 9 -6.5 15t-14.5 6h-51zM1102 211q-8 0 -13.5 -6t-5.5 -15v-90q0 -7 5.5 -12.5t13.5 -5.5h53q8 0 13.5 5.5t5.5 12.5v90q0 9 -5.5 15t-13.5 6h-53zM1307 211q-8 0 -14.5 -6t-6.5 -15v-90q0 -7 6.5 -12.5 t14.5 -5.5h51q8 0 14 5.5t6 12.5v90q0 9 -6 15t-14 6h-51zM1509 211q-8 0 -13 -6t-5 -15v-90q0 -8 5.5 -13t12.5 -5h54q7 0 12.5 5t5.5 13v90q0 9 -5 15t-13 6h-54zM809 1096q58 0 102.5 -22t71 -56.5t43.5 -83.5t23 -96.5t6 -100.5t-6 -100.5t-23 -96t-43.5 -83t-71 -56.5 t-102.5 -22q-72 0 -123 31.5t-76.5 87t-36 113.5t-10.5 126q0 53 6 100t23 96t43.5 84t71 57t102.5 22zM809 535q74 0 74 202q0 203 -76 203q-74 0 -74 -203q0 -202 76 -202z" />
<glyph unicode="1" d="M0 1489h694q17 -31 47 -49.5t64 -18.5q35 0 65.5 18.5t47.5 49.5h704v-1489h-1622v1489zM88 1409q-8 0 -14 -6.5t-6 -13.5v-91q0 -7 6 -12.5t14 -5.5h51q8 0 13.5 5.5t5.5 12.5v91q0 8 -6 14t-13 6h-51zM291 1409q-7 0 -13 -6t-6 -14v-91q0 -7 5.5 -12.5t13.5 -5.5h53 q8 0 13 5t5 13v91q0 8 -5.5 14t-12.5 6h-53zM496 1409q-8 0 -14.5 -6.5t-6.5 -13.5v-91q0 -7 6.5 -12.5t14.5 -5.5h51q7 0 12.5 5t5.5 13v91q0 8 -5.5 14t-12.5 6h-51zM698 1409q-7 0 -12.5 -6t-5.5 -14v-91q0 -8 5 -13t13 -5h52q8 0 14 5.5t6 12.5v91q0 7 -6 13.5t-14 6.5 h-52zM901 1409q-7 0 -12.5 -6t-5.5 -14v-91q0 -8 5.5 -13t12.5 -5h53q8 0 13.5 5.5t5.5 12.5v91q0 8 -6 14t-13 6h-53zM1106 1409q-8 0 -14.5 -6.5t-6.5 -13.5v-91q0 -7 6.5 -12.5t14.5 -5.5h51q8 0 14.5 5.5t6.5 12.5v91q0 7 -6.5 13.5t-14.5 6.5h-51zM1309 1409 q-7 0 -13 -6t-6 -14v-91q0 -7 5.5 -12.5t13.5 -5.5h53q8 0 13 5t5 13v91q0 8 -5.5 14t-12.5 6h-53zM1513 1409q-7 0 -13.5 -6.5t-6.5 -13.5v-91q0 -7 6 -12.5t14 -5.5h52q7 0 12.5 5t5.5 13v91q0 8 -5.5 14t-12.5 6h-52zM74 1255q-15 0 -27 -11.5t-12 -26.5v-938 q0 -15 12 -26t27 -11h1474q15 0 27 11t12 26v938q0 15 -12 26.5t-27 11.5h-1474zM84 211q-8 0 -13 -6t-5 -15v-90q0 -8 5 -13t13 -5h53q8 0 13.5 5.5t5.5 12.5v90q0 9 -5.5 15t-13.5 6h-53zM289 211q-8 0 -14.5 -6t-6.5 -15v-90q0 -7 6.5 -12.5t14.5 -5.5h51q8 0 14 5.5 t6 12.5v90q0 9 -6 15t-14 6h-51zM492 211q-8 0 -13.5 -6t-5.5 -15v-90q0 -7 5.5 -12.5t13.5 -5.5h53q7 0 12.5 5t5.5 13v90q0 9 -5 15t-13 6h-53zM696 211q-8 0 -14 -6t-6 -15v-90q0 -7 6 -12.5t14 -5.5h52q8 0 13 5t5 13v90q0 9 -5 15t-13 6h-52zM899 211q-8 0 -13 -6 t-5 -15v-90q0 -8 5.5 -13t12.5 -5h51q8 0 14.5 5.5t6.5 12.5v90q0 9 -6.5 15t-14.5 6h-51zM1102 211q-8 0 -13.5 -6t-5.5 -15v-90q0 -7 5.5 -12.5t13.5 -5.5h53q8 0 13.5 5.5t5.5 12.5v90q0 9 -5.5 15t-13.5 6h-53zM1307 211q-8 0 -14.5 -6t-6.5 -15v-90q0 -7 6.5 -12.5 t14.5 -5.5h51q8 0 14 5.5t6 12.5v90q0 9 -6 15t-14 6h-51zM1509 211q-8 0 -13 -6t-5 -15v-90q0 -8 5.5 -13t12.5 -5h54q7 0 12.5 5t5.5 13v90q0 9 -5 15t-13 6h-54zM580 924q78 36 119 70t79 102h131v-717h-182v436q-34 -21 -147 -67v176z" />
<glyph unicode="2" d="M0 1489h694q17 -31 47 -49.5t64 -18.5t65 18.5t48 49.5h704v-1489h-1622v1489zM88 1409q-8 0 -14 -6.5t-6 -13.5v-91q0 -7 6 -12.5t14 -5.5h51q8 0 13.5 5.5t5.5 12.5v91q0 8 -6 14t-13 6h-51zM291 1409q-7 0 -13 -6t-6 -14v-91q0 -7 5.5 -12.5t13.5 -5.5h53q8 0 13 5 t5 13v91q0 8 -5.5 14t-12.5 6h-53zM496 1409q-8 0 -14.5 -6.5t-6.5 -13.5v-91q0 -7 6.5 -12.5t14.5 -5.5h51q7 0 12.5 5t5.5 13v91q0 8 -5.5 14t-12.5 6h-51zM698 1409q-7 0 -12.5 -6t-5.5 -14v-91q0 -8 5 -13t13 -5h52q8 0 14 5.5t6 12.5v91q0 7 -6 13.5t-14 6.5h-52z M901 1409q-7 0 -12.5 -6t-5.5 -14v-91q0 -8 5.5 -13t12.5 -5h53q8 0 13.5 5.5t5.5 12.5v91q0 8 -6 14t-13 6h-53zM1106 1409q-8 0 -14.5 -6.5t-6.5 -13.5v-91q0 -7 6.5 -12.5t14.5 -5.5h51q8 0 14.5 5.5t6.5 12.5v91q0 7 -6.5 13.5t-14.5 6.5h-51zM1309 1409q-7 0 -13 -6 t-6 -14v-91q0 -7 5.5 -12.5t13.5 -5.5h53q8 0 13 5t5 13v91q0 8 -5.5 14t-12.5 6h-53zM1513 1409q-7 0 -13.5 -6.5t-6.5 -13.5v-91q0 -7 6 -12.5t14 -5.5h52q7 0 12.5 5t5.5 13v91q0 8 -5.5 14t-12.5 6h-52zM74 1255q-15 0 -27 -11.5t-12 -26.5v-938q0 -15 12 -26t27 -11 h1474q15 0 27 11t12 26v938q0 15 -12 26.5t-27 11.5h-1474zM84 211q-7 0 -12.5 -6.5t-5.5 -14.5v-90q0 -8 5 -13t13 -5h53q8 0 13.5 5.5t5.5 12.5v90q0 8 -6 14.5t-13 6.5h-53zM289 211q-7 0 -14 -6.5t-7 -14.5v-90q0 -7 6.5 -12.5t14.5 -5.5h51q8 0 14 5.5t6 12.5v90 q0 8 -6.5 14.5t-13.5 6.5h-51zM492 211q-7 0 -13 -6.5t-6 -14.5v-90q0 -7 5.5 -12.5t13.5 -5.5h53q7 0 12.5 5t5.5 13v90q0 8 -5.5 14.5t-12.5 6.5h-53zM696 211q-7 0 -13.5 -6.5t-6.5 -14.5v-90q0 -7 6 -12.5t14 -5.5h52q8 0 13 5t5 13v90q0 8 -5.5 14.5t-12.5 6.5h-52z M899 211q-7 0 -12.5 -6.5t-5.5 -14.5v-90q0 -8 5.5 -13t12.5 -5h51q8 0 14.5 5.5t6.5 12.5v90q0 8 -6.5 14.5t-14.5 6.5h-51zM1102 211q-7 0 -13 -6.5t-6 -14.5v-90q0 -7 5.5 -12.5t13.5 -5.5h53q8 0 13.5 5.5t5.5 12.5v90q0 8 -6 14.5t-13 6.5h-53zM1307 211q-7 0 -14 -6.5 t-7 -14.5v-90q0 -7 6.5 -12.5t14.5 -5.5h51q8 0 14 5.5t6 12.5v90q0 8 -6.5 14.5t-13.5 6.5h-51zM1509 211q-7 0 -12.5 -6.5t-5.5 -14.5v-90q0 -8 5.5 -13t12.5 -5h54q7 0 12.5 5t5.5 13v90q0 8 -5.5 14.5t-12.5 6.5h-54zM1055 874q0 -82 -81 -184.5t-161 -140.5h248v-170 h-518v43q0 57 35 113t84.5 100t99 84t84.5 81t35 77q0 28 -20.5 43.5t-49.5 15.5q-45 0 -59.5 -24.5t-14.5 -73.5v-33l-178 20q10 130 68.5 200.5t185.5 70.5q102 0 172 -60.5t70 -161.5z" />
<glyph unicode="3" d="M0 1489h694q17 -31 47 -49.5t64 -18.5t65 18.5t48 49.5h704v-1489h-1622v1489zM88 1409q-8 0 -14 -6.5t-6 -13.5v-91q0 -7 6 -12.5t14 -5.5h51q8 0 13.5 5.5t5.5 12.5v91q0 8 -6 14t-13 6h-51zM291 1409q-7 0 -13 -6t-6 -14v-91q0 -7 5.5 -12.5t13.5 -5.5h53q8 0 13 5 t5 13v91q0 8 -5.5 14t-12.5 6h-53zM496 1409q-8 0 -14.5 -6.5t-6.5 -13.5v-91q0 -7 6.5 -12.5t14.5 -5.5h51q7 0 12.5 5t5.5 13v91q0 8 -5.5 14t-12.5 6h-51zM698 1409q-7 0 -12.5 -6t-5.5 -14v-91q0 -8 5 -13t13 -5h52q8 0 14 5.5t6 12.5v91q0 7 -6 13.5t-14 6.5h-52z M901 1409q-7 0 -12.5 -6t-5.5 -14v-91q0 -8 5.5 -13t12.5 -5h53q8 0 13.5 5.5t5.5 12.5v91q0 8 -6 14t-13 6h-53zM1106 1409q-8 0 -14.5 -6.5t-6.5 -13.5v-91q0 -7 6.5 -12.5t14.5 -5.5h51q8 0 14.5 5.5t6.5 12.5v91q0 7 -6.5 13.5t-14.5 6.5h-51zM1309 1409q-7 0 -13 -6 t-6 -14v-91q0 -7 5.5 -12.5t13.5 -5.5h53q8 0 13 5t5 13v91q0 8 -5.5 14t-12.5 6h-53zM1513 1409q-7 0 -13.5 -6.5t-6.5 -13.5v-91q0 -7 6 -12.5t14 -5.5h52q7 0 12.5 5t5.5 13v91q0 8 -5.5 14t-12.5 6h-52zM74 1255q-15 0 -27 -11.5t-12 -26.5v-938q0 -15 12 -26t27 -11 h1474q15 0 27 11t12 26v938q0 15 -12 26.5t-27 11.5h-1474zM84 211q-7 0 -12.5 -6.5t-5.5 -14.5v-90q0 -8 5 -13t13 -5h53q8 0 13.5 5.5t5.5 12.5v90q0 8 -6 14.5t-13 6.5h-53zM289 211q-7 0 -14 -6.5t-7 -14.5v-90q0 -7 6.5 -12.5t14.5 -5.5h51q8 0 14 5.5t6 12.5v90 q0 8 -6.5 14.5t-13.5 6.5h-51zM492 211q-7 0 -13 -6.5t-6 -14.5v-90q0 -7 5.5 -12.5t13.5 -5.5h53q7 0 12.5 5t5.5 13v90q0 8 -5.5 14.5t-12.5 6.5h-53zM696 211q-7 0 -13.5 -6.5t-6.5 -14.5v-90q0 -7 6 -12.5t14 -5.5h52q8 0 13 5t5 13v90q0 8 -5.5 14.5t-12.5 6.5h-52z M899 211q-7 0 -12.5 -6.5t-5.5 -14.5v-90q0 -8 5.5 -13t12.5 -5h51q8 0 14.5 5.5t6.5 12.5v90q0 8 -6.5 14.5t-14.5 6.5h-51zM1102 211q-7 0 -13 -6.5t-6 -14.5v-90q0 -7 5.5 -12.5t13.5 -5.5h53q8 0 13.5 5.5t5.5 12.5v90q0 8 -6 14.5t-13 6.5h-53zM1307 211q-7 0 -14 -6.5 t-7 -14.5v-90q0 -7 6.5 -12.5t14.5 -5.5h51q8 0 14 5.5t6 12.5v90q0 8 -6.5 14.5t-13.5 6.5h-51zM1509 211q-7 0 -12.5 -6.5t-5.5 -14.5v-90q0 -8 5.5 -13t12.5 -5h54q7 0 12.5 5t5.5 13v90q0 8 -5.5 14.5t-12.5 6.5h-54zM709 668l16 141q133 34 133 82q0 47 -51 47 q-21 0 -34.5 -9.5t-20.5 -29t-9 -32t-4 -36.5l-172 21q21 117 74.5 180.5t163.5 63.5q92 0 158.5 -57.5t66.5 -147.5q0 -71 -41 -115q72 -60 72 -160q0 -103 -74 -170t-178 -67q-117 0 -175 68t-73 190l166 25q0 -2 2 -15.5t3 -17.5t3.5 -16.5t4.5 -17.5t5.5 -15.5t7.5 -15 t10 -11.5t12.5 -10t15 -5.5t18.5 -2.5q32 0 55 23.5t23 55.5q0 31 -21 52.5t-53 21.5q-16 0 -32 -2.5t-40.5 -9t-31.5 -8.5z" />
<glyph unicode="4" d="M0 1489h694q17 -31 47 -49.5t64 -18.5q35 0 65.5 18.5t47.5 49.5h704v-1489h-1622v1489zM88 1409q-8 0 -14 -6.5t-6 -13.5v-91q0 -7 6 -12.5t14 -5.5h51q8 0 13.5 5.5t5.5 12.5v91q0 8 -6 14t-13 6h-51zM291 1409q-7 0 -13 -6t-6 -14v-91q0 -7 5.5 -12.5t13.5 -5.5h53 q8 0 13 5t5 13v91q0 8 -5.5 14t-12.5 6h-53zM496 1409q-8 0 -14.5 -6.5t-6.5 -13.5v-91q0 -7 6.5 -12.5t14.5 -5.5h51q7 0 12.5 5t5.5 13v91q0 8 -5.5 14t-12.5 6h-51zM698 1409q-7 0 -12.5 -6t-5.5 -14v-91q0 -8 5 -13t13 -5h52q8 0 14 5.5t6 12.5v91q0 7 -6 13.5t-14 6.5 h-52zM901 1409q-7 0 -12.5 -6t-5.5 -14v-91q0 -8 5.5 -13t12.5 -5h53q8 0 13.5 5.5t5.5 12.5v91q0 8 -6 14t-13 6h-53zM1106 1409q-8 0 -14.5 -6.5t-6.5 -13.5v-91q0 -7 6.5 -12.5t14.5 -5.5h51q8 0 14.5 5.5t6.5 12.5v91q0 7 -6.5 13.5t-14.5 6.5h-51zM1309 1409 q-7 0 -13 -6t-6 -14v-91q0 -7 5.5 -12.5t13.5 -5.5h53q8 0 13 5t5 13v91q0 8 -5.5 14t-12.5 6h-53zM1513 1409q-7 0 -13.5 -6.5t-6.5 -13.5v-91q0 -7 6 -12.5t14 -5.5h52q7 0 12.5 5t5.5 13v91q0 8 -5.5 14t-12.5 6h-52zM74 1255q-15 0 -27 -11.5t-12 -26.5v-938 q0 -15 12 -26t27 -11h1474q15 0 27 11t12 26v938q0 15 -12 26.5t-27 11.5h-1474zM84 211q-8 0 -13 -6t-5 -15v-90q0 -8 5 -13t13 -5h53q8 0 13.5 5.5t5.5 12.5v90q0 9 -5.5 15t-13.5 6h-53zM289 211q-8 0 -14.5 -6t-6.5 -15v-90q0 -7 6.5 -12.5t14.5 -5.5h51q8 0 14 5.5 t6 12.5v90q0 9 -6 15t-14 6h-51zM492 211q-8 0 -13.5 -6t-5.5 -15v-90q0 -7 5.5 -12.5t13.5 -5.5h53q7 0 12.5 5t5.5 13v90q0 9 -5 15t-13 6h-53zM696 211q-8 0 -14 -6t-6 -15v-90q0 -7 6 -12.5t14 -5.5h52q8 0 13 5t5 13v90q0 9 -5 15t-13 6h-52zM899 211q-8 0 -13 -6 t-5 -15v-90q0 -8 5.5 -13t12.5 -5h51q8 0 14.5 5.5t6.5 12.5v90q0 9 -6.5 15t-14.5 6h-51zM1102 211q-8 0 -13.5 -6t-5.5 -15v-90q0 -7 5.5 -12.5t13.5 -5.5h53q8 0 13.5 5.5t5.5 12.5v90q0 9 -5.5 15t-13.5 6h-53zM1307 211q-8 0 -14.5 -6t-6.5 -15v-90q0 -7 6.5 -12.5 t14.5 -5.5h51q8 0 14 5.5t6 12.5v90q0 9 -6 15t-14 6h-51zM1509 211q-8 0 -13 -6t-5 -15v-90q0 -8 5.5 -13t12.5 -5h54q7 0 12.5 5t5.5 13v90q0 9 -5 15t-13 6h-54zM979 1096v-402h84v-170h-84v-145h-170v145h-281v133l312 439h139zM809 770l-61 -76h61v76z" />
<glyph unicode="5" d="M0 1489h694q17 -31 47 -49.5t64 -18.5t65 18.5t48 49.5h704v-1489h-1622v1489zM88 1409q-8 0 -14 -6.5t-6 -13.5v-91q0 -7 6 -12.5t14 -5.5h51q8 0 13.5 5.5t5.5 12.5v91q0 8 -6 14t-13 6h-51zM291 1409q-7 0 -13 -6t-6 -14v-91q0 -7 5.5 -12.5t13.5 -5.5h53q8 0 13 5 t5 13v91q0 8 -5.5 14t-12.5 6h-53zM496 1409q-8 0 -14.5 -6.5t-6.5 -13.5v-91q0 -7 6.5 -12.5t14.5 -5.5h51q7 0 12.5 5t5.5 13v91q0 8 -5.5 14t-12.5 6h-51zM698 1409q-7 0 -12.5 -6t-5.5 -14v-91q0 -8 5 -13t13 -5h52q8 0 14 5.5t6 12.5v91q0 7 -6 13.5t-14 6.5h-52z M901 1409q-7 0 -12.5 -6t-5.5 -14v-91q0 -8 5.5 -13t12.5 -5h53q8 0 13.5 5.5t5.5 12.5v91q0 8 -6 14t-13 6h-53zM1106 1409q-8 0 -14.5 -6.5t-6.5 -13.5v-91q0 -7 6.5 -12.5t14.5 -5.5h51q8 0 14.5 5.5t6.5 12.5v91q0 7 -6.5 13.5t-14.5 6.5h-51zM1309 1409q-7 0 -13 -6 t-6 -14v-91q0 -7 5.5 -12.5t13.5 -5.5h53q8 0 13 5t5 13v91q0 8 -5.5 14t-12.5 6h-53zM1513 1409q-7 0 -13.5 -6.5t-6.5 -13.5v-91q0 -7 6 -12.5t14 -5.5h52q7 0 12.5 5t5.5 13v91q0 8 -5.5 14t-12.5 6h-52zM74 1255q-15 0 -27 -11.5t-12 -26.5v-938q0 -15 12 -26t27 -11 h1474q15 0 27 11t12 26v938q0 15 -12 26.5t-27 11.5h-1474zM84 211q-7 0 -12.5 -6.5t-5.5 -14.5v-90q0 -8 5 -13t13 -5h53q8 0 13.5 5.5t5.5 12.5v90q0 8 -6 14.5t-13 6.5h-53zM289 211q-7 0 -14 -6.5t-7 -14.5v-90q0 -7 6.5 -12.5t14.5 -5.5h51q8 0 14 5.5t6 12.5v90 q0 8 -6.5 14.5t-13.5 6.5h-51zM492 211q-7 0 -13 -6.5t-6 -14.5v-90q0 -7 5.5 -12.5t13.5 -5.5h53q7 0 12.5 5t5.5 13v90q0 8 -5.5 14.5t-12.5 6.5h-53zM696 211q-7 0 -13.5 -6.5t-6.5 -14.5v-90q0 -7 6 -12.5t14 -5.5h52q8 0 13 5t5 13v90q0 8 -5.5 14.5t-12.5 6.5h-52z M899 211q-7 0 -12.5 -6.5t-5.5 -14.5v-90q0 -8 5.5 -13t12.5 -5h51q8 0 14.5 5.5t6.5 12.5v90q0 8 -6.5 14.5t-14.5 6.5h-51zM1102 211q-7 0 -13 -6.5t-6 -14.5v-90q0 -7 5.5 -12.5t13.5 -5.5h53q8 0 13.5 5.5t5.5 12.5v90q0 8 -6 14.5t-13 6.5h-53zM1307 211q-7 0 -14 -6.5 t-7 -14.5v-90q0 -7 6.5 -12.5t14.5 -5.5h51q8 0 14 5.5t6 12.5v90q0 8 -6.5 14.5t-13.5 6.5h-51zM1509 211q-7 0 -12.5 -6.5t-5.5 -14.5v-90q0 -8 5.5 -13t12.5 -5h54q7 0 12.5 5t5.5 13v90q0 8 -5.5 14.5t-12.5 6.5h-54zM827 899q105 0 173.5 -72.5t68.5 -177.5 q0 -115 -73 -192.5t-187 -77.5q-125 0 -184 69t-70 197l174 14q8 -69 23 -91q20 -28 57 -29q39 0 60.5 31t21.5 71q0 42 -22 68t-62 26q-23 0 -40 -9.5t-25.5 -20t-24.5 -35.5l-154 18l78 408h395v-170h-254l-8 -33q27 6 53 6z" />
<glyph unicode="6" d="M0 1489h694q17 -31 47 -49.5t64 -18.5t65 18.5t48 49.5h704v-1489h-1622v1489zM88 1409q-8 0 -14 -6.5t-6 -13.5v-91q0 -7 6 -12.5t14 -5.5h51q8 0 13.5 5.5t5.5 12.5v91q0 8 -6 14t-13 6h-51zM291 1409q-7 0 -13 -6t-6 -14v-91q0 -7 5.5 -12.5t13.5 -5.5h53q8 0 13 5 t5 13v91q0 8 -5.5 14t-12.5 6h-53zM496 1409q-8 0 -14.5 -6.5t-6.5 -13.5v-91q0 -7 6.5 -12.5t14.5 -5.5h51q7 0 12.5 5t5.5 13v91q0 8 -5.5 14t-12.5 6h-51zM698 1409q-7 0 -12.5 -6t-5.5 -14v-91q0 -8 5 -13t13 -5h52q8 0 14 5.5t6 12.5v91q0 7 -6 13.5t-14 6.5h-52z M901 1409q-7 0 -12.5 -6t-5.5 -14v-91q0 -8 5.5 -13t12.5 -5h53q8 0 13.5 5.5t5.5 12.5v91q0 8 -6 14t-13 6h-53zM1106 1409q-8 0 -14.5 -6.5t-6.5 -13.5v-91q0 -7 6.5 -12.5t14.5 -5.5h51q8 0 14.5 5.5t6.5 12.5v91q0 7 -6.5 13.5t-14.5 6.5h-51zM1309 1409q-7 0 -13 -6 t-6 -14v-91q0 -7 5.5 -12.5t13.5 -5.5h53q8 0 13 5t5 13v91q0 8 -5.5 14t-12.5 6h-53zM1513 1409q-7 0 -13.5 -6.5t-6.5 -13.5v-91q0 -7 6 -12.5t14 -5.5h52q7 0 12.5 5t5.5 13v91q0 8 -5.5 14t-12.5 6h-52zM74 1255q-15 0 -27 -11.5t-12 -26.5v-938q0 -15 12 -26t27 -11 h1474q15 0 27 11t12 26v938q0 15 -12 26.5t-27 11.5h-1474zM84 211q-7 0 -12.5 -6.5t-5.5 -14.5v-90q0 -8 5 -13t13 -5h53q8 0 13.5 5.5t5.5 12.5v90q0 8 -6 14.5t-13 6.5h-53zM289 211q-7 0 -14 -6.5t-7 -14.5v-90q0 -7 6.5 -12.5t14.5 -5.5h51q8 0 14 5.5t6 12.5v90 q0 8 -6.5 14.5t-13.5 6.5h-51zM492 211q-7 0 -13 -6.5t-6 -14.5v-90q0 -7 5.5 -12.5t13.5 -5.5h53q7 0 12.5 5t5.5 13v90q0 8 -5.5 14.5t-12.5 6.5h-53zM696 211q-7 0 -13.5 -6.5t-6.5 -14.5v-90q0 -7 6 -12.5t14 -5.5h52q8 0 13 5t5 13v90q0 8 -5.5 14.5t-12.5 6.5h-52z M899 211q-7 0 -12.5 -6.5t-5.5 -14.5v-90q0 -8 5.5 -13t12.5 -5h51q8 0 14.5 5.5t6.5 12.5v90q0 8 -6.5 14.5t-14.5 6.5h-51zM1102 211q-7 0 -13 -6.5t-6 -14.5v-90q0 -7 5.5 -12.5t13.5 -5.5h53q8 0 13.5 5.5t5.5 12.5v90q0 8 -6 14.5t-13 6.5h-53zM1307 211q-7 0 -14 -6.5 t-7 -14.5v-90q0 -7 6.5 -12.5t14.5 -5.5h51q8 0 14 5.5t6 12.5v90q0 8 -6.5 14.5t-13.5 6.5h-51zM1509 211q-7 0 -12.5 -6.5t-5.5 -14.5v-90q0 -8 5.5 -13t12.5 -5h54q7 0 12.5 5t5.5 13v90q0 8 -5.5 14.5t-12.5 6.5h-54zM938 844q53 -33 81 -88.5t28 -120.5 q0 -107 -66.5 -181.5t-171.5 -74.5q-72 0 -125 29t-81 79t-41 108t-13 126q0 72 12 134t40.5 118.5t83 89.5t130.5 33q111 0 161.5 -62.5t65.5 -179.5zM731 633q0 -37 20.5 -67.5t55.5 -30.5q34 0 50.5 29t16.5 65q0 37 -17.5 63.5t-51.5 26.5q-35 0 -54.5 -25t-19.5 -61z M811 940q-29 0 -50 -23.5t-30 -54.5q49 17 88 17q21 0 49 -7q-6 32 -17.5 50t-39.5 18z" />
<glyph unicode="7" d="M0 1489h694q17 -31 47 -49.5t64 -18.5q35 0 65.5 18.5t47.5 49.5h704v-1489h-1622v1489zM88 1409q-8 0 -14 -6.5t-6 -13.5v-91q0 -7 6 -12.5t14 -5.5h51q8 0 13.5 5.5t5.5 12.5v91q0 8 -6 14t-13 6h-51zM291 1409q-7 0 -13 -6t-6 -14v-91q0 -7 5.5 -12.5t13.5 -5.5h53 q8 0 13 5t5 13v91q0 8 -5.5 14t-12.5 6h-53zM496 1409q-8 0 -14.5 -6.5t-6.5 -13.5v-91q0 -7 6.5 -12.5t14.5 -5.5h51q7 0 12.5 5t5.5 13v91q0 8 -5.5 14t-12.5 6h-51zM698 1409q-7 0 -12.5 -6t-5.5 -14v-91q0 -8 5 -13t13 -5h52q8 0 14 5.5t6 12.5v91q0 7 -6 13.5t-14 6.5 h-52zM901 1409q-7 0 -12.5 -6t-5.5 -14v-91q0 -8 5.5 -13t12.5 -5h53q8 0 13.5 5.5t5.5 12.5v91q0 8 -6 14t-13 6h-53zM1106 1409q-8 0 -14.5 -6.5t-6.5 -13.5v-91q0 -7 6.5 -12.5t14.5 -5.5h51q8 0 14.5 5.5t6.5 12.5v91q0 7 -6.5 13.5t-14.5 6.5h-51zM1309 1409 q-7 0 -13 -6t-6 -14v-91q0 -7 5.5 -12.5t13.5 -5.5h53q8 0 13 5t5 13v91q0 8 -5.5 14t-12.5 6h-53zM1513 1409q-7 0 -13.5 -6.5t-6.5 -13.5v-91q0 -7 6 -12.5t14 -5.5h52q7 0 12.5 5t5.5 13v91q0 8 -5.5 14t-12.5 6h-52zM74 1255q-15 0 -27 -11.5t-12 -26.5v-938 q0 -15 12 -26t27 -11h1474q15 0 27 11t12 26v938q0 15 -12 26.5t-27 11.5h-1474zM84 211q-8 0 -13 -6t-5 -15v-90q0 -8 5 -13t13 -5h53q8 0 13.5 5.5t5.5 12.5v90q0 9 -5.5 15t-13.5 6h-53zM289 211q-8 0 -14.5 -6t-6.5 -15v-90q0 -7 6.5 -12.5t14.5 -5.5h51q8 0 14 5.5 t6 12.5v90q0 9 -6 15t-14 6h-51zM492 211q-8 0 -13.5 -6t-5.5 -15v-90q0 -7 5.5 -12.5t13.5 -5.5h53q7 0 12.5 5t5.5 13v90q0 9 -5 15t-13 6h-53zM696 211q-8 0 -14 -6t-6 -15v-90q0 -7 6 -12.5t14 -5.5h52q8 0 13 5t5 13v90q0 9 -5 15t-13 6h-52zM899 211q-8 0 -13 -6 t-5 -15v-90q0 -8 5.5 -13t12.5 -5h51q8 0 14.5 5.5t6.5 12.5v90q0 9 -6.5 15t-14.5 6h-51zM1102 211q-8 0 -13.5 -6t-5.5 -15v-90q0 -7 5.5 -12.5t13.5 -5.5h53q8 0 13.5 5.5t5.5 12.5v90q0 9 -5.5 15t-13.5 6h-53zM1307 211q-8 0 -14.5 -6t-6.5 -15v-90q0 -7 6.5 -12.5 t14.5 -5.5h51q8 0 14 5.5t6 12.5v90q0 9 -6 15t-14 6h-51zM1509 211q-8 0 -13 -6t-5 -15v-90q0 -8 5.5 -13t12.5 -5h54q7 0 12.5 5t5.5 13v90q0 9 -5 15t-13 6h-54zM545 924v172h508v-125q-117 -136 -173.5 -274.5t-70.5 -317.5h-178q9 295 174 545h-260z" />
<glyph unicode="8" d="M0 1489h694q17 -31 47 -49.5t64 -18.5q35 0 65.5 18.5t47.5 49.5h704v-1489h-1622v1489zM88 1409q-8 0 -14 -6.5t-6 -13.5v-91q0 -7 6 -12.5t14 -5.5h51q8 0 13.5 5.5t5.5 12.5v91q0 8 -6 14t-13 6h-51zM291 1409q-7 0 -13 -6t-6 -14v-91q0 -7 5.5 -12.5t13.5 -5.5h53 q8 0 13 5t5 13v91q0 8 -5.5 14t-12.5 6h-53zM496 1409q-8 0 -14.5 -6.5t-6.5 -13.5v-91q0 -7 6.5 -12.5t14.5 -5.5h51q7 0 12.5 5t5.5 13v91q0 8 -5.5 14t-12.5 6h-51zM698 1409q-7 0 -12.5 -6t-5.5 -14v-91q0 -8 5 -13t13 -5h52q8 0 14 5.5t6 12.5v91q0 7 -6 13.5t-14 6.5 h-52zM901 1409q-7 0 -12.5 -6t-5.5 -14v-91q0 -8 5.5 -13t12.5 -5h53q8 0 13.5 5.5t5.5 12.5v91q0 8 -6 14t-13 6h-53zM1106 1409q-8 0 -14.5 -6.5t-6.5 -13.5v-91q0 -7 6.5 -12.5t14.5 -5.5h51q8 0 14.5 5.5t6.5 12.5v91q0 7 -6.5 13.5t-14.5 6.5h-51zM1309 1409 q-7 0 -13 -6t-6 -14v-91q0 -7 5.5 -12.5t13.5 -5.5h53q8 0 13 5t5 13v91q0 8 -5.5 14t-12.5 6h-53zM1513 1409q-7 0 -13.5 -6.5t-6.5 -13.5v-91q0 -7 6 -12.5t14 -5.5h52q7 0 12.5 5t5.5 13v91q0 8 -5.5 14t-12.5 6h-52zM74 1255q-15 0 -27 -11.5t-12 -26.5v-938 q0 -15 12 -26t27 -11h1474q15 0 27 11t12 26v938q0 15 -12 26.5t-27 11.5h-1474zM84 211q-8 0 -13 -6t-5 -15v-90q0 -8 5 -13t13 -5h53q8 0 13.5 5.5t5.5 12.5v90q0 9 -5.5 15t-13.5 6h-53zM289 211q-8 0 -14.5 -6t-6.5 -15v-90q0 -7 6.5 -12.5t14.5 -5.5h51q8 0 14 5.5 t6 12.5v90q0 9 -6 15t-14 6h-51zM492 211q-8 0 -13.5 -6t-5.5 -15v-90q0 -7 5.5 -12.5t13.5 -5.5h53q7 0 12.5 5t5.5 13v90q0 9 -5 15t-13 6h-53zM696 211q-8 0 -14 -6t-6 -15v-90q0 -7 6 -12.5t14 -5.5h52q8 0 13 5t5 13v90q0 9 -5 15t-13 6h-52zM899 211q-8 0 -13 -6 t-5 -15v-90q0 -8 5.5 -13t12.5 -5h51q8 0 14.5 5.5t6.5 12.5v90q0 9 -6.5 15t-14.5 6h-51zM1102 211q-8 0 -13.5 -6t-5.5 -15v-90q0 -7 5.5 -12.5t13.5 -5.5h53q8 0 13.5 5.5t5.5 12.5v90q0 9 -5.5 15t-13.5 6h-53zM1307 211q-8 0 -14.5 -6t-6.5 -15v-90q0 -7 6.5 -12.5 t14.5 -5.5h51q8 0 14 5.5t6 12.5v90q0 9 -6 15t-14 6h-51zM1509 211q-8 0 -13 -6t-5 -15v-90q0 -8 5.5 -13t12.5 -5h54q7 0 12.5 5t5.5 13v90q0 9 -5 15t-13 6h-54zM985 770q70 -56 70 -160q0 -102 -72 -166.5t-174 -64.5q-105 0 -176.5 64.5t-71.5 168.5q0 98 68 160 q-45 45 -45 119q0 91 65 148t158 57q92 0 157.5 -57.5t65.5 -149.5q0 -71 -45 -119zM860 889q0 23 -15.5 37t-37.5 14q-21 0 -36 -13t-15 -34q0 -23 14 -37t39 -14q21 0 36 13t15 34zM807 688q-33 0 -54.5 -21.5t-21.5 -54.5q0 -34 22 -55.5t56 -21.5q33 0 54.5 21t21.5 54 q0 34 -22 56t-56 22z" />
<glyph unicode="9" d="M0 1489h694q17 -31 47 -49.5t64 -18.5t65 18.5t48 49.5h704v-1489h-1622v1489zM88 1409q-8 0 -14 -6.5t-6 -13.5v-91q0 -7 6 -12.5t14 -5.5h51q8 0 13.5 5.5t5.5 12.5v91q0 8 -6 14t-13 6h-51zM291 1409q-7 0 -13 -6t-6 -14v-91q0 -7 5.5 -12.5t13.5 -5.5h53q8 0 13 5 t5 13v91q0 8 -5.5 14t-12.5 6h-53zM496 1409q-8 0 -14.5 -6.5t-6.5 -13.5v-91q0 -7 6.5 -12.5t14.5 -5.5h51q7 0 12.5 5t5.5 13v91q0 8 -5.5 14t-12.5 6h-51zM698 1409q-7 0 -12.5 -6t-5.5 -14v-91q0 -8 5 -13t13 -5h52q8 0 14 5.5t6 12.5v91q0 7 -6 13.5t-14 6.5h-52z M901 1409q-7 0 -12.5 -6t-5.5 -14v-91q0 -8 5.5 -13t12.5 -5h53q8 0 13.5 5.5t5.5 12.5v91q0 8 -6 14t-13 6h-53zM1106 1409q-8 0 -14.5 -6.5t-6.5 -13.5v-91q0 -7 6.5 -12.5t14.5 -5.5h51q8 0 14.5 5.5t6.5 12.5v91q0 7 -6.5 13.5t-14.5 6.5h-51zM1309 1409q-7 0 -13 -6 t-6 -14v-91q0 -7 5.5 -12.5t13.5 -5.5h53q8 0 13 5t5 13v91q0 8 -5.5 14t-12.5 6h-53zM1513 1409q-7 0 -13.5 -6.5t-6.5 -13.5v-91q0 -7 6 -12.5t14 -5.5h52q7 0 12.5 5t5.5 13v91q0 8 -5.5 14t-12.5 6h-52zM74 1255q-15 0 -27 -11.5t-12 -26.5v-938q0 -15 12 -26t27 -11 h1474q15 0 27 11t12 26v938q0 15 -12 26.5t-27 11.5h-1474zM84 211q-7 0 -12.5 -6.5t-5.5 -14.5v-90q0 -8 5 -13t13 -5h53q8 0 13.5 5.5t5.5 12.5v90q0 8 -6 14.5t-13 6.5h-53zM289 211q-7 0 -14 -6.5t-7 -14.5v-90q0 -7 6.5 -12.5t14.5 -5.5h51q8 0 14 5.5t6 12.5v90 q0 8 -6.5 14.5t-13.5 6.5h-51zM492 211q-7 0 -13 -6.5t-6 -14.5v-90q0 -7 5.5 -12.5t13.5 -5.5h53q7 0 12.5 5t5.5 13v90q0 8 -5.5 14.5t-12.5 6.5h-53zM696 211q-7 0 -13.5 -6.5t-6.5 -14.5v-90q0 -7 6 -12.5t14 -5.5h52q8 0 13 5t5 13v90q0 8 -5.5 14.5t-12.5 6.5h-52z M899 211q-7 0 -12.5 -6.5t-5.5 -14.5v-90q0 -8 5.5 -13t12.5 -5h51q8 0 14.5 5.5t6.5 12.5v90q0 8 -6.5 14.5t-14.5 6.5h-51zM1102 211q-7 0 -13 -6.5t-6 -14.5v-90q0 -7 5.5 -12.5t13.5 -5.5h53q8 0 13.5 5.5t5.5 12.5v90q0 8 -6 14.5t-13 6.5h-53zM1307 211q-7 0 -14 -6.5 t-7 -14.5v-90q0 -7 6.5 -12.5t14.5 -5.5h51q8 0 14 5.5t6 12.5v90q0 8 -6.5 14.5t-13.5 6.5h-51zM1509 211q-7 0 -12.5 -6.5t-5.5 -14.5v-90q0 -8 5.5 -13t12.5 -5h54q7 0 12.5 5t5.5 13v90q0 8 -5.5 14.5t-12.5 6.5h-54zM817 1096q71 0 122.5 -29.5t79.5 -80t41 -108 t13 -124.5q0 -72 -12 -133.5t-39.5 -118.5t-82 -90t-130.5 -33q-111 0 -160.5 62.5t-64.5 179.5l104 8q-108 69 -108 213q0 108 65.5 181t171.5 73zM809 535q58 0 82 77q-43 -16 -84 -16q-29 0 -53 6q4 -23 7.5 -34.5t15.5 -22t32 -10.5zM897 846q0 36 -19 65t-53 29 q-35 0 -55 -31t-20 -69q0 -35 19.5 -59.5t53.5 -24.5q37 0 55.5 26t18.5 64z" />
<glyph unicode=":" horiz-adv-x="811" />
<glyph unicode="A" d="M156 100v90q0 9 -5.5 15t-13.5 6h-53q-8 0 -13 -6t-5 -15v-90q0 -8 5 -13t13 -5h53q8 0 13.5 5.5t5.5 12.5zM360 100v90q0 9 -6 15t-14 6h-51q-8 0 -14.5 -6t-6.5 -15v-90q0 -7 6.5 -12.5t14.5 -5.5h51q8 0 14 5.5t6 12.5zM563 100v90q0 9 -5 15t-13 6h-53q-8 0 -13.5 -6 t-5.5 -15v-90q0 -7 5.5 -12.5t13.5 -5.5h53q7 0 12.5 5t5.5 13zM766 100v90q0 9 -5 15t-13 6h-52q-8 0 -14 -6t-6 -15v-90q0 -7 6 -12.5t14 -5.5h52q8 0 13 5t5 13zM971 100v90q0 9 -6.5 15t-14.5 6h-51q-8 0 -13 -6t-5 -15v-90q0 -8 5.5 -13t12.5 -5h51q8 0 14.5 5.5 t6.5 12.5zM1174 100v90q0 9 -5.5 15t-13.5 6h-53q-8 0 -13.5 -6t-5.5 -15v-90q0 -7 5.5 -12.5t13.5 -5.5h53q8 0 13.5 5.5t5.5 12.5zM158 1298v91q0 9 -5.5 14.5t-13.5 5.5h-51q-8 0 -14 -5.5t-6 -14.5v-91q0 -7 6 -12.5t14 -5.5h51q8 0 13.5 5.5t5.5 12.5zM1378 100v90 q0 9 -6 15t-14 6h-51q-8 0 -14.5 -6t-6.5 -15v-90q0 -7 6.5 -12.5t14.5 -5.5h51q8 0 14 5.5t6 12.5zM1593 279v938q0 19 -13 33t-32 14h-1474q-19 0 -32 -14t-13 -33v-938q0 -19 13 -32.5t32 -13.5h1474q19 0 32 13.5t13 32.5zM362 1298v91q0 20 -18 20h-53q-8 0 -13.5 -5.5 t-5.5 -14.5v-91q0 -7 5.5 -12.5t13.5 -5.5h53q8 0 13 5t5 13zM1581 100v90q0 9 -5 15t-13 6h-54q-8 0 -13 -6t-5 -15v-90q0 -8 5.5 -13t12.5 -5h54q7 0 12.5 5t5.5 13zM565 1298v91q0 20 -18 20h-51q-21 0 -21 -20v-91q0 -8 6 -13t15 -5h51q7 0 12.5 5t5.5 13zM770 1298v91 q0 9 -6 14.5t-14 5.5h-52q-18 0 -18 -20v-91q0 -8 5 -13t13 -5h52q8 0 14 5.5t6 12.5zM973 1298v91q0 9 -5.5 14.5t-13.5 5.5h-53q-18 0 -18 -20v-91q0 -8 5.5 -13t12.5 -5h53q8 0 13.5 5.5t5.5 12.5zM1178 1298v91q0 9 -6.5 14.5t-14.5 5.5h-51q-8 0 -14.5 -5.5t-6.5 -14.5 v-91q0 -7 6.5 -12.5t14.5 -5.5h51q8 0 14.5 5.5t6.5 12.5zM1380 1298v91q0 20 -18 20h-53q-8 0 -13.5 -5.5t-5.5 -14.5v-91q0 -7 5.5 -12.5t13.5 -5.5h53q8 0 13 5t5 13zM1583 1298v91q0 20 -18 20h-52q-8 0 -14 -5.5t-6 -14.5v-91q0 -7 6 -12.5t14 -5.5h52q7 0 12.5 5 t5.5 13zM1622 1489v-1489h-1622v1489h694q17 -31 47 -49.5t64 -18.5q35 0 65.5 18.5t47.5 49.5h704zM844 731h-74l37 96q22 -62 37 -96zM979 379h199l-295 717h-156l-276 -717h192l68 182h194zM1579 1217v-938q0 -12 -9.5 -21.5t-21.5 -9.5h-1474q-12 0 -21.5 9.5t-9.5 21.5 v938q0 13 9.5 22.5t21.5 9.5h1474q12 0 21.5 -9.5t9.5 -22.5z" />
<glyph unicode="B" d="M156 100v90q0 9 -5.5 15t-13.5 6h-53q-8 0 -13 -6t-5 -15v-90q0 -8 5 -13t13 -5h53q8 0 13.5 5.5t5.5 12.5zM360 100v90q0 9 -6 15t-14 6h-51q-8 0 -14.5 -6t-6.5 -15v-90q0 -7 6.5 -12.5t14.5 -5.5h51q8 0 14 5.5t6 12.5zM563 100v90q0 9 -5 15t-13 6h-53q-8 0 -13.5 -6 t-5.5 -15v-90q0 -7 5.5 -12.5t13.5 -5.5h53q7 0 12.5 5t5.5 13zM766 100v90q0 9 -5 15t-13 6h-52q-8 0 -14 -6t-6 -15v-90q0 -7 6 -12.5t14 -5.5h52q8 0 13 5t5 13zM971 100v90q0 9 -6.5 15t-14.5 6h-51q-8 0 -13 -6t-5 -15v-90q0 -8 5.5 -13t12.5 -5h51q8 0 14.5 5.5 t6.5 12.5zM1174 100v90q0 9 -5.5 15t-13.5 6h-53q-8 0 -13.5 -6t-5.5 -15v-90q0 -7 5.5 -12.5t13.5 -5.5h53q8 0 13.5 5.5t5.5 12.5zM158 1298v91q0 9 -5.5 14.5t-13.5 5.5h-51q-8 0 -14 -5.5t-6 -14.5v-91q0 -7 6 -12.5t14 -5.5h51q8 0 13.5 5.5t5.5 12.5zM1378 100v90 q0 9 -6 15t-14 6h-51q-8 0 -14.5 -6t-6.5 -15v-90q0 -7 6.5 -12.5t14.5 -5.5h51q8 0 14 5.5t6 12.5zM1593 279v938q0 19 -13 33t-32 14h-1474q-19 0 -32 -14t-13 -33v-938q0 -19 13 -32.5t32 -13.5h1474q19 0 32 13.5t13 32.5zM362 1298v91q0 20 -18 20h-53q-8 0 -13.5 -5.5 t-5.5 -14.5v-91q0 -7 5.5 -12.5t13.5 -5.5h53q8 0 13 5t5 13zM1581 100v90q0 9 -5 15t-13 6h-54q-8 0 -13 -6t-5 -15v-90q0 -8 5.5 -13t12.5 -5h54q7 0 12.5 5t5.5 13zM565 1298v91q0 20 -18 20h-51q-21 0 -21 -20v-91q0 -8 6 -13t15 -5h51q7 0 12.5 5t5.5 13zM770 1298v91 q0 9 -6 14.5t-14 5.5h-52q-18 0 -18 -20v-91q0 -8 5 -13t13 -5h52q8 0 14 5.5t6 12.5zM973 1298v91q0 9 -5.5 14.5t-13.5 5.5h-53q-18 0 -18 -20v-91q0 -8 5.5 -13t12.5 -5h53q8 0 13.5 5.5t5.5 12.5zM1178 1298v91q0 9 -6.5 14.5t-14.5 5.5h-51q-8 0 -14.5 -5.5t-6.5 -14.5 v-91q0 -7 6.5 -12.5t14.5 -5.5h51q8 0 14.5 5.5t6.5 12.5zM1380 1298v91q0 20 -18 20h-53q-8 0 -13.5 -5.5t-5.5 -14.5v-91q0 -7 5.5 -12.5t13.5 -5.5h53q8 0 13 5t5 13zM1583 1298v91q0 20 -18 20h-52q-8 0 -14 -5.5t-6 -14.5v-91q0 -7 6 -12.5t14 -5.5h52q7 0 12.5 5 t5.5 13zM1622 1489v-1489h-1622v1489h694q17 -31 47 -49.5t64 -18.5q35 0 65.5 18.5t47.5 49.5h704zM928 606q0 -20 -7.5 -32t-23 -17t-27.5 -6.5t-32 -1.5h-113v121h92q23 0 38 -1.5t34 -7.5t29 -19.5t10 -35.5zM901 879q0 -24 -13.5 -31.5t-39.5 -7.5h-123v86h106 q21 0 34.5 -2.5t24.5 -13.5t11 -31zM1110 606q0 47 -20 90t-56 70q45 54 45 125q0 103 -74 154t-182 51h-280v-717h286q59 0 107.5 12t88.5 37.5t62.5 70.5t22.5 107zM1579 1217v-938q0 -12 -9.5 -21.5t-21.5 -9.5h-1474q-12 0 -21.5 9.5t-9.5 21.5v938q0 13 9.5 22.5 t21.5 9.5h1474q12 0 21.5 -9.5t9.5 -22.5z" />
<glyph unicode="C" d="M156 100v90q0 9 -5.5 15t-13.5 6h-53q-8 0 -13 -6t-5 -15v-90q0 -8 5 -13t13 -5h53q8 0 13.5 5.5t5.5 12.5zM360 100v90q0 9 -6 15t-14 6h-51q-8 0 -14.5 -6t-6.5 -15v-90q0 -7 6.5 -12.5t14.5 -5.5h51q8 0 14 5.5t6 12.5zM563 100v90q0 9 -5 15t-13 6h-53q-8 0 -13.5 -6 t-5.5 -15v-90q0 -7 5.5 -12.5t13.5 -5.5h53q7 0 12.5 5t5.5 13zM766 100v90q0 9 -5 15t-13 6h-52q-8 0 -14 -6t-6 -15v-90q0 -7 6 -12.5t14 -5.5h52q8 0 13 5t5 13zM971 100v90q0 9 -6.5 15t-14.5 6h-51q-8 0 -13 -6t-5 -15v-90q0 -8 5.5 -13t12.5 -5h51q8 0 14.5 5.5 t6.5 12.5zM1174 100v90q0 9 -5.5 15t-13.5 6h-53q-8 0 -13.5 -6t-5.5 -15v-90q0 -7 5.5 -12.5t13.5 -5.5h53q8 0 13.5 5.5t5.5 12.5zM158 1298v91q0 9 -5.5 14.5t-13.5 5.5h-51q-8 0 -14 -5.5t-6 -14.5v-91q0 -7 6 -12.5t14 -5.5h51q8 0 13.5 5.5t5.5 12.5zM1378 100v90 q0 9 -6 15t-14 6h-51q-8 0 -14.5 -6t-6.5 -15v-90q0 -7 6.5 -12.5t14.5 -5.5h51q8 0 14 5.5t6 12.5zM1593 279v938q0 19 -13 33t-32 14h-1474q-19 0 -32 -14t-13 -33v-938q0 -19 13 -32.5t32 -13.5h1474q19 0 32 13.5t13 32.5zM362 1298v91q0 20 -18 20h-53q-8 0 -13.5 -5.5 t-5.5 -14.5v-91q0 -7 5.5 -12.5t13.5 -5.5h53q8 0 13 5t5 13zM1581 100v90q0 9 -5 15t-13 6h-54q-8 0 -13 -6t-5 -15v-90q0 -8 5.5 -13t12.5 -5h54q7 0 12.5 5t5.5 13zM565 1298v91q0 20 -18 20h-51q-21 0 -21 -20v-91q0 -8 6 -13t15 -5h51q7 0 12.5 5t5.5 13zM770 1298v91 q0 9 -6 14.5t-14 5.5h-52q-18 0 -18 -20v-91q0 -8 5 -13t13 -5h52q8 0 14 5.5t6 12.5zM973 1298v91q0 9 -5.5 14.5t-13.5 5.5h-53q-18 0 -18 -20v-91q0 -8 5.5 -13t12.5 -5h53q8 0 13.5 5.5t5.5 12.5zM1178 1298v91q0 9 -6.5 14.5t-14.5 5.5h-51q-8 0 -14.5 -5.5t-6.5 -14.5 v-91q0 -7 6.5 -12.5t14.5 -5.5h51q8 0 14.5 5.5t6.5 12.5zM1380 1298v91q0 20 -18 20h-53q-8 0 -13.5 -5.5t-5.5 -14.5v-91q0 -7 5.5 -12.5t13.5 -5.5h53q8 0 13 5t5 13zM1583 1298v91q0 20 -18 20h-52q-8 0 -14 -5.5t-6 -14.5v-91q0 -7 6 -12.5t14 -5.5h52q7 0 12.5 5 t5.5 13zM1622 1489v-1489h-1622v1489h694q17 -31 47 -49.5t64 -18.5q35 0 65.5 18.5t47.5 49.5h704zM1112 662l-172 43q-9 -42 -15.5 -63.5t-21.5 -49t-40.5 -39.5t-63.5 -12q-42 0 -72 17.5t-46 47t-23 63t-7 72.5q0 85 37 139t119 54q32 0 53.5 -9.5t36 -33t21 -39.5 t18.5 -53l168 41q-36 126 -104.5 191t-192.5 65q-153 0 -242.5 -100t-89.5 -255q0 -161 86.5 -261.5t245.5 -100.5q68 0 119.5 20t87 59.5t58.5 88.5t40 115zM1579 1217v-938q0 -12 -9.5 -21.5t-21.5 -9.5h-1474q-12 0 -21.5 9.5t-9.5 21.5v938q0 13 9.5 22.5t21.5 9.5h1474 q12 0 21.5 -9.5t9.5 -22.5z" />
<glyph unicode="D" d="M156 100v90q0 9 -5.5 15t-13.5 6h-53q-8 0 -13 -6t-5 -15v-90q0 -8 5 -13t13 -5h53q8 0 13.5 5.5t5.5 12.5zM360 100v90q0 9 -6 15t-14 6h-51q-8 0 -14.5 -6t-6.5 -15v-90q0 -7 6.5 -12.5t14.5 -5.5h51q8 0 14 5.5t6 12.5zM563 100v90q0 9 -5 15t-13 6h-53q-8 0 -13.5 -6 t-5.5 -15v-90q0 -7 5.5 -12.5t13.5 -5.5h53q7 0 12.5 5t5.5 13zM766 100v90q0 9 -5 15t-13 6h-52q-8 0 -14 -6t-6 -15v-90q0 -7 6 -12.5t14 -5.5h52q8 0 13 5t5 13zM971 100v90q0 9 -6.5 15t-14.5 6h-51q-8 0 -13 -6t-5 -15v-90q0 -8 5.5 -13t12.5 -5h51q8 0 14.5 5.5 t6.5 12.5zM1174 100v90q0 9 -5.5 15t-13.5 6h-53q-8 0 -13.5 -6t-5.5 -15v-90q0 -7 5.5 -12.5t13.5 -5.5h53q8 0 13.5 5.5t5.5 12.5zM158 1298v91q0 9 -5.5 14.5t-13.5 5.5h-51q-8 0 -14 -5.5t-6 -14.5v-91q0 -7 6 -12.5t14 -5.5h51q8 0 13.5 5.5t5.5 12.5zM1378 100v90 q0 9 -6 15t-14 6h-51q-8 0 -14.5 -6t-6.5 -15v-90q0 -7 6.5 -12.5t14.5 -5.5h51q8 0 14 5.5t6 12.5zM1593 279v938q0 19 -13 33t-32 14h-1474q-19 0 -32 -14t-13 -33v-938q0 -19 13 -32.5t32 -13.5h1474q19 0 32 13.5t13 32.5zM362 1298v91q0 20 -18 20h-53q-8 0 -13.5 -5.5 t-5.5 -14.5v-91q0 -7 5.5 -12.5t13.5 -5.5h53q8 0 13 5t5 13zM1581 100v90q0 9 -5 15t-13 6h-54q-8 0 -13 -6t-5 -15v-90q0 -8 5.5 -13t12.5 -5h54q7 0 12.5 5t5.5 13zM565 1298v91q0 20 -18 20h-51q-21 0 -21 -20v-91q0 -8 6 -13t15 -5h51q7 0 12.5 5t5.5 13zM770 1298v91 q0 9 -6 14.5t-14 5.5h-52q-18 0 -18 -20v-91q0 -8 5 -13t13 -5h52q8 0 14 5.5t6 12.5zM973 1298v91q0 9 -5.5 14.5t-13.5 5.5h-53q-18 0 -18 -20v-91q0 -8 5.5 -13t12.5 -5h53q8 0 13.5 5.5t5.5 12.5zM1178 1298v91q0 9 -6.5 14.5t-14.5 5.5h-51q-8 0 -14.5 -5.5t-6.5 -14.5 v-91q0 -7 6.5 -12.5t14.5 -5.5h51q8 0 14.5 5.5t6.5 12.5zM1380 1298v91q0 20 -18 20h-53q-8 0 -13.5 -5.5t-5.5 -14.5v-91q0 -7 5.5 -12.5t13.5 -5.5h53q8 0 13 5t5 13zM1583 1298v91q0 20 -18 20h-52q-8 0 -14 -5.5t-6 -14.5v-91q0 -7 6 -12.5t14 -5.5h52q7 0 12.5 5 t5.5 13zM1622 1489v-1489h-1622v1489h694q17 -31 47 -49.5t64 -18.5q35 0 65.5 18.5t47.5 49.5h704zM954 741q0 -101 -32 -146.5t-129 -45.5h-88v377h86q95 0 129 -43.5t34 -141.5zM1137 741q0 132 -62 232t-184 119q-33 4 -105 4h-264v-717h275q169 0 254.5 95t85.5 267z M1579 1217v-938q0 -12 -9.5 -21.5t-21.5 -9.5h-1474q-12 0 -21.5 9.5t-9.5 21.5v938q0 13 9.5 22.5t21.5 9.5h1474q12 0 21.5 -9.5t9.5 -22.5z" />
<glyph unicode="E" d="M156 100v90q0 9 -5.5 15t-13.5 6h-53q-8 0 -13 -6t-5 -15v-90q0 -8 5 -13t13 -5h53q8 0 13.5 5.5t5.5 12.5zM360 100v90q0 9 -6 15t-14 6h-51q-8 0 -14.5 -6t-6.5 -15v-90q0 -7 6.5 -12.5t14.5 -5.5h51q8 0 14 5.5t6 12.5zM563 100v90q0 9 -5 15t-13 6h-53q-8 0 -13.5 -6 t-5.5 -15v-90q0 -7 5.5 -12.5t13.5 -5.5h53q7 0 12.5 5t5.5 13zM766 100v90q0 9 -5 15t-13 6h-52q-8 0 -14 -6t-6 -15v-90q0 -7 6 -12.5t14 -5.5h52q8 0 13 5t5 13zM971 100v90q0 9 -6.5 15t-14.5 6h-51q-8 0 -13 -6t-5 -15v-90q0 -8 5.5 -13t12.5 -5h51q8 0 14.5 5.5 t6.5 12.5zM1174 100v90q0 9 -5.5 15t-13.5 6h-53q-8 0 -13.5 -6t-5.5 -15v-90q0 -7 5.5 -12.5t13.5 -5.5h53q8 0 13.5 5.5t5.5 12.5zM158 1298v91q0 9 -5.5 14.5t-13.5 5.5h-51q-8 0 -14 -5.5t-6 -14.5v-91q0 -7 6 -12.5t14 -5.5h51q8 0 13.5 5.5t5.5 12.5zM1378 100v90 q0 9 -6 15t-14 6h-51q-8 0 -14.5 -6t-6.5 -15v-90q0 -7 6.5 -12.5t14.5 -5.5h51q8 0 14 5.5t6 12.5zM1593 279v938q0 19 -13 33t-32 14h-1474q-19 0 -32 -14t-13 -33v-938q0 -19 13 -32.5t32 -13.5h1474q19 0 32 13.5t13 32.5zM362 1298v91q0 20 -18 20h-53q-8 0 -13.5 -5.5 t-5.5 -14.5v-91q0 -7 5.5 -12.5t13.5 -5.5h53q8 0 13 5t5 13zM1581 100v90q0 9 -5 15t-13 6h-54q-8 0 -13 -6t-5 -15v-90q0 -8 5.5 -13t12.5 -5h54q7 0 12.5 5t5.5 13zM565 1298v91q0 20 -18 20h-51q-21 0 -21 -20v-91q0 -8 6 -13t15 -5h51q7 0 12.5 5t5.5 13zM770 1298v91 q0 9 -6 14.5t-14 5.5h-52q-18 0 -18 -20v-91q0 -8 5 -13t13 -5h52q8 0 14 5.5t6 12.5zM973 1298v91q0 9 -5.5 14.5t-13.5 5.5h-53q-18 0 -18 -20v-91q0 -8 5.5 -13t12.5 -5h53q8 0 13.5 5.5t5.5 12.5zM1178 1298v91q0 9 -6.5 14.5t-14.5 5.5h-51q-8 0 -14.5 -5.5t-6.5 -14.5 v-91q0 -7 6.5 -12.5t14.5 -5.5h51q8 0 14.5 5.5t6.5 12.5zM1380 1298v91q0 20 -18 20h-53q-8 0 -13.5 -5.5t-5.5 -14.5v-91q0 -7 5.5 -12.5t13.5 -5.5h53q8 0 13 5t5 13zM1583 1298v91q0 20 -18 20h-52q-8 0 -14 -5.5t-6 -14.5v-91q0 -7 6 -12.5t14 -5.5h52q7 0 12.5 5 t5.5 13zM1622 1489v-1489h-1622v1489h694q17 -31 47 -49.5t64 -18.5q35 0 65.5 18.5t47.5 49.5h704zM522 379h570v170h-387v108h352v172h-352v97h374v170h-557v-717zM1579 1217v-938q0 -12 -9.5 -21.5t-21.5 -9.5h-1474q-12 0 -21.5 9.5t-9.5 21.5v938q0 13 9.5 22.5 t21.5 9.5h1474q12 0 21.5 -9.5t9.5 -22.5z" />
<glyph unicode="F" d="M705 657h331v172h-331v97h374v170h-557v-717h183v278zM0 1489h694q17 -31 47 -49.5t64 -18.5q35 0 65.5 18.5t47.5 49.5h704v-1489h-1622v1489zM88 1409q-8 0 -14 -5.5t-6 -14.5v-91q0 -7 6 -12.5t14 -5.5h51q8 0 13.5 5.5t5.5 12.5v91q0 9 -5.5 14.5t-13.5 5.5h-51z M291 1409q-8 0 -13.5 -5.5t-5.5 -14.5v-91q0 -7 5.5 -12.5t13.5 -5.5h53q8 0 13 5t5 13v91q0 20 -18 20h-53zM496 1409q-21 0 -21 -20v-91q0 -8 6 -13t15 -5h51q7 0 12.5 5t5.5 13v91q0 20 -18 20h-51zM698 1409q-18 0 -18 -20v-91q0 -8 5 -13t13 -5h52q8 0 14 5.5t6 12.5 v91q0 9 -6 14.5t-14 5.5h-52zM901 1409q-18 0 -18 -20v-91q0 -8 5.5 -13t12.5 -5h53q8 0 13.5 5.5t5.5 12.5v91q0 9 -5.5 14.5t-13.5 5.5h-53zM1106 1409q-8 0 -14.5 -5.5t-6.5 -14.5v-91q0 -7 6.5 -12.5t14.5 -5.5h51q8 0 14.5 5.5t6.5 12.5v91q0 9 -6.5 14.5t-14.5 5.5 h-51zM1309 1409q-8 0 -13.5 -5.5t-5.5 -14.5v-91q0 -7 5.5 -12.5t13.5 -5.5h53q8 0 13 5t5 13v91q0 20 -18 20h-53zM1513 1409q-8 0 -14 -5.5t-6 -14.5v-91q0 -7 6 -12.5t14 -5.5h52q7 0 12.5 5t5.5 13v91q0 20 -18 20h-52zM84 211q-8 0 -13 -6t-5 -15v-90q0 -8 5 -13t13 -5 h53q8 0 13.5 5.5t5.5 12.5v90q0 9 -5.5 15t-13.5 6h-53zM289 211q-8 0 -14.5 -6t-6.5 -15v-90q0 -7 6.5 -12.5t14.5 -5.5h51q8 0 14 5.5t6 12.5v90q0 9 -6 15t-14 6h-51zM492 211q-8 0 -13.5 -6t-5.5 -15v-90q0 -7 5.5 -12.5t13.5 -5.5h53q7 0 12.5 5t5.5 13v90q0 9 -5 15 t-13 6h-53zM696 211q-8 0 -14 -6t-6 -15v-90q0 -7 6 -12.5t14 -5.5h52q8 0 13 5t5 13v90q0 9 -5 15t-13 6h-52zM899 211q-8 0 -13 -6t-5 -15v-90q0 -8 5.5 -13t12.5 -5h51q8 0 14.5 5.5t6.5 12.5v90q0 9 -6.5 15t-14.5 6h-51zM1102 211q-8 0 -13.5 -6t-5.5 -15v-90 q0 -7 5.5 -12.5t13.5 -5.5h53q8 0 13.5 5.5t5.5 12.5v90q0 9 -5.5 15t-13.5 6h-53zM1307 211q-8 0 -14.5 -6t-6.5 -15v-90q0 -7 6.5 -12.5t14.5 -5.5h51q8 0 14 5.5t6 12.5v90q0 9 -6 15t-14 6h-51zM1509 211q-8 0 -13 -6t-5 -15v-90q0 -8 5.5 -13t12.5 -5h54q7 0 12.5 5 t5.5 13v90q0 9 -5 15t-13 6h-54zM1548 1264h-1474q-19 0 -32 -14t-13 -33v-938q0 -19 13 -32.5t32 -13.5h1474q19 0 32 13.5t13 32.5v938q0 19 -13 33t-32 14zM1548 1249q12 0 21.5 -9.5t9.5 -22.5v-938q0 -12 -9.5 -21.5t-21.5 -9.5h-1474q-12 0 -21.5 9.5t-9.5 21.5v938 q0 13 9.5 22.5t21.5 9.5h1474z" />
<glyph unicode="G" d="M156 100v90q0 9 -5.5 15t-13.5 6h-53q-8 0 -13 -6t-5 -15v-90q0 -8 5 -13t13 -5h53q8 0 13.5 5.5t5.5 12.5zM360 100v90q0 9 -6 15t-14 6h-51q-8 0 -14.5 -6t-6.5 -15v-90q0 -7 6.5 -12.5t14.5 -5.5h51q8 0 14 5.5t6 12.5zM563 100v90q0 9 -5 15t-13 6h-53q-8 0 -13.5 -6 t-5.5 -15v-90q0 -7 5.5 -12.5t13.5 -5.5h53q7 0 12.5 5t5.5 13zM766 100v90q0 9 -5 15t-13 6h-52q-8 0 -14 -6t-6 -15v-90q0 -7 6 -12.5t14 -5.5h52q8 0 13 5t5 13zM971 100v90q0 9 -6.5 15t-14.5 6h-51q-8 0 -13 -6t-5 -15v-90q0 -8 5.5 -13t12.5 -5h51q8 0 14.5 5.5 t6.5 12.5zM1174 100v90q0 9 -5.5 15t-13.5 6h-53q-8 0 -13.5 -6t-5.5 -15v-90q0 -7 5.5 -12.5t13.5 -5.5h53q8 0 13.5 5.5t5.5 12.5zM158 1298v91q0 9 -5.5 14.5t-13.5 5.5h-51q-8 0 -14 -5.5t-6 -14.5v-91q0 -7 6 -12.5t14 -5.5h51q8 0 13.5 5.5t5.5 12.5zM1378 100v90 q0 9 -6 15t-14 6h-51q-8 0 -14.5 -6t-6.5 -15v-90q0 -7 6.5 -12.5t14.5 -5.5h51q8 0 14 5.5t6 12.5zM1593 279v938q0 19 -13 33t-32 14h-1474q-19 0 -32 -14t-13 -33v-938q0 -19 13 -32.5t32 -13.5h1474q19 0 32 13.5t13 32.5zM362 1298v91q0 20 -18 20h-53q-8 0 -13.5 -5.5 t-5.5 -14.5v-91q0 -7 5.5 -12.5t13.5 -5.5h53q8 0 13 5t5 13zM1581 100v90q0 9 -5 15t-13 6h-54q-8 0 -13 -6t-5 -15v-90q0 -8 5.5 -13t12.5 -5h54q7 0 12.5 5t5.5 13zM565 1298v91q0 20 -18 20h-51q-21 0 -21 -20v-91q0 -8 6 -13t15 -5h51q7 0 12.5 5t5.5 13zM770 1298v91 q0 9 -6 14.5t-14 5.5h-52q-18 0 -18 -20v-91q0 -8 5 -13t13 -5h52q8 0 14 5.5t6 12.5zM973 1298v91q0 9 -5.5 14.5t-13.5 5.5h-53q-18 0 -18 -20v-91q0 -8 5.5 -13t12.5 -5h53q8 0 13.5 5.5t5.5 12.5zM1178 1298v91q0 9 -6.5 14.5t-14.5 5.5h-51q-8 0 -14.5 -5.5t-6.5 -14.5 v-91q0 -7 6.5 -12.5t14.5 -5.5h51q8 0 14.5 5.5t6.5 12.5zM1380 1298v91q0 20 -18 20h-53q-8 0 -13.5 -5.5t-5.5 -14.5v-91q0 -7 5.5 -12.5t13.5 -5.5h53q8 0 13 5t5 13zM1583 1298v91q0 20 -18 20h-52q-8 0 -14 -5.5t-6 -14.5v-91q0 -7 6 -12.5t14 -5.5h52q7 0 12.5 5 t5.5 13zM1622 1489v-1489h-1622v1489h694q17 -31 47 -49.5t64 -18.5q35 0 65.5 18.5t47.5 49.5h704zM1110 498v293h-352v-164h176v-43q-53 -39 -127 -39q-89 0 -131.5 51.5t-42.5 142.5t42.5 143t131.5 52q37 0 61 -8.5t39.5 -31t22.5 -42t18 -59.5l160 45 q-30 134 -98.5 196t-202.5 62q-159 0 -254.5 -100.5t-95.5 -260.5t98 -258t258 -98q152 0 297 119zM1579 1217v-938q0 -12 -9.5 -21.5t-21.5 -9.5h-1474q-12 0 -21.5 9.5t-9.5 21.5v938q0 13 9.5 22.5t21.5 9.5h1474q12 0 21.5 -9.5t9.5 -22.5z" />
<glyph unicode="H" d="M156 100v90q0 9 -5.5 15t-13.5 6h-53q-8 0 -13 -6t-5 -15v-90q0 -8 5 -13t13 -5h53q8 0 13.5 5.5t5.5 12.5zM360 100v90q0 9 -6 15t-14 6h-51q-8 0 -14.5 -6t-6.5 -15v-90q0 -7 6.5 -12.5t14.5 -5.5h51q8 0 14 5.5t6 12.5zM563 100v90q0 9 -5 15t-13 6h-53q-8 0 -13.5 -6 t-5.5 -15v-90q0 -7 5.5 -12.5t13.5 -5.5h53q7 0 12.5 5t5.5 13zM766 100v90q0 9 -5 15t-13 6h-52q-8 0 -14 -6t-6 -15v-90q0 -7 6 -12.5t14 -5.5h52q8 0 13 5t5 13zM971 100v90q0 9 -6.5 15t-14.5 6h-51q-8 0 -13 -6t-5 -15v-90q0 -8 5.5 -13t12.5 -5h51q8 0 14.5 5.5 t6.5 12.5zM1174 100v90q0 9 -5.5 15t-13.5 6h-53q-8 0 -13.5 -6t-5.5 -15v-90q0 -7 5.5 -12.5t13.5 -5.5h53q8 0 13.5 5.5t5.5 12.5zM158 1298v91q0 9 -5.5 14.5t-13.5 5.5h-51q-8 0 -14 -5.5t-6 -14.5v-91q0 -7 6 -12.5t14 -5.5h51q8 0 13.5 5.5t5.5 12.5zM1378 100v90 q0 9 -6 15t-14 6h-51q-8 0 -14.5 -6t-6.5 -15v-90q0 -7 6.5 -12.5t14.5 -5.5h51q8 0 14 5.5t6 12.5zM1593 279v938q0 19 -13 33t-32 14h-1474q-19 0 -32 -14t-13 -33v-938q0 -19 13 -32.5t32 -13.5h1474q19 0 32 13.5t13 32.5zM362 1298v91q0 20 -18 20h-53q-8 0 -13.5 -5.5 t-5.5 -14.5v-91q0 -7 5.5 -12.5t13.5 -5.5h53q8 0 13 5t5 13zM1581 100v90q0 9 -5 15t-13 6h-54q-8 0 -13 -6t-5 -15v-90q0 -8 5.5 -13t12.5 -5h54q7 0 12.5 5t5.5 13zM565 1298v91q0 20 -18 20h-51q-21 0 -21 -20v-91q0 -8 6 -13t15 -5h51q7 0 12.5 5t5.5 13zM770 1298v91 q0 9 -6 14.5t-14 5.5h-52q-18 0 -18 -20v-91q0 -8 5 -13t13 -5h52q8 0 14 5.5t6 12.5zM973 1298v91q0 9 -5.5 14.5t-13.5 5.5h-53q-18 0 -18 -20v-91q0 -8 5.5 -13t12.5 -5h53q8 0 13.5 5.5t5.5 12.5zM1178 1298v91q0 9 -6.5 14.5t-14.5 5.5h-51q-8 0 -14.5 -5.5t-6.5 -14.5 v-91q0 -7 6.5 -12.5t14.5 -5.5h51q8 0 14.5 5.5t6.5 12.5zM1380 1298v91q0 20 -18 20h-53q-8 0 -13.5 -5.5t-5.5 -14.5v-91q0 -7 5.5 -12.5t13.5 -5.5h53q8 0 13 5t5 13zM1583 1298v91q0 20 -18 20h-52q-8 0 -14 -5.5t-6 -14.5v-91q0 -7 6 -12.5t14 -5.5h52q7 0 12.5 5 t5.5 13zM1622 1489v-1489h-1622v1489h694q17 -31 47 -49.5t64 -18.5q35 0 65.5 18.5t47.5 49.5h704zM920 379h182v717h-182v-256h-218v256h-182v-717h182v291h218v-291zM1579 1217v-938q0 -12 -9.5 -21.5t-21.5 -9.5h-1474q-12 0 -21.5 9.5t-9.5 21.5v938q0 13 9.5 22.5 t21.5 9.5h1474q12 0 21.5 -9.5t9.5 -22.5z" />
<glyph unicode="I" d="M156 100v90q0 9 -5.5 15t-13.5 6h-53q-8 0 -13 -6t-5 -15v-90q0 -8 5 -13t13 -5h53q8 0 13.5 5.5t5.5 12.5zM360 100v90q0 9 -6 15t-14 6h-51q-8 0 -14.5 -6t-6.5 -15v-90q0 -7 6.5 -12.5t14.5 -5.5h51q8 0 14 5.5t6 12.5zM563 100v90q0 9 -5 15t-13 6h-53q-8 0 -13.5 -6 t-5.5 -15v-90q0 -7 5.5 -12.5t13.5 -5.5h53q7 0 12.5 5t5.5 13zM766 100v90q0 9 -5 15t-13 6h-52q-8 0 -14 -6t-6 -15v-90q0 -7 6 -12.5t14 -5.5h52q8 0 13 5t5 13zM971 100v90q0 9 -6.5 15t-14.5 6h-51q-8 0 -13 -6t-5 -15v-90q0 -8 5.5 -13t12.5 -5h51q8 0 14.5 5.5 t6.5 12.5zM1174 100v90q0 9 -5.5 15t-13.5 6h-53q-8 0 -13.5 -6t-5.5 -15v-90q0 -7 5.5 -12.5t13.5 -5.5h53q8 0 13.5 5.5t5.5 12.5zM158 1298v91q0 9 -5.5 14.5t-13.5 5.5h-51q-8 0 -14 -5.5t-6 -14.5v-91q0 -7 6 -12.5t14 -5.5h51q8 0 13.5 5.5t5.5 12.5zM1378 100v90 q0 9 -6 15t-14 6h-51q-8 0 -14.5 -6t-6.5 -15v-90q0 -7 6.5 -12.5t14.5 -5.5h51q8 0 14 5.5t6 12.5zM1593 279v938q0 19 -13 33t-32 14h-1474q-19 0 -32 -14t-13 -33v-938q0 -19 13 -32.5t32 -13.5h1474q19 0 32 13.5t13 32.5zM362 1298v91q0 20 -18 20h-53q-8 0 -13.5 -5.5 t-5.5 -14.5v-91q0 -7 5.5 -12.5t13.5 -5.5h53q8 0 13 5t5 13zM1581 100v90q0 9 -5 15t-13 6h-54q-8 0 -13 -6t-5 -15v-90q0 -8 5.5 -13t12.5 -5h54q7 0 12.5 5t5.5 13zM565 1298v91q0 20 -18 20h-51q-21 0 -21 -20v-91q0 -8 6 -13t15 -5h51q7 0 12.5 5t5.5 13zM770 1298v91 q0 9 -6 14.5t-14 5.5h-52q-18 0 -18 -20v-91q0 -8 5 -13t13 -5h52q8 0 14 5.5t6 12.5zM973 1298v91q0 9 -5.5 14.5t-13.5 5.5h-53q-18 0 -18 -20v-91q0 -8 5.5 -13t12.5 -5h53q8 0 13.5 5.5t5.5 12.5zM1178 1298v91q0 9 -6.5 14.5t-14.5 5.5h-51q-8 0 -14.5 -5.5t-6.5 -14.5 v-91q0 -7 6.5 -12.5t14.5 -5.5h51q8 0 14.5 5.5t6.5 12.5zM1380 1298v91q0 20 -18 20h-53q-8 0 -13.5 -5.5t-5.5 -14.5v-91q0 -7 5.5 -12.5t13.5 -5.5h53q8 0 13 5t5 13zM1583 1298v91q0 20 -18 20h-52q-8 0 -14 -5.5t-6 -14.5v-91q0 -7 6 -12.5t14 -5.5h52q7 0 12.5 5 t5.5 13zM1622 1489v-1489h-1622v1489h694q17 -31 47 -49.5t64 -18.5q35 0 65.5 18.5t47.5 49.5h704zM713 379h182v717h-182v-717zM1579 1217v-938q0 -12 -9.5 -21.5t-21.5 -9.5h-1474q-12 0 -21.5 9.5t-9.5 21.5v938q0 13 9.5 22.5t21.5 9.5h1474q12 0 21.5 -9.5t9.5 -22.5z " />
<glyph unicode="J" d="M156 100v90q0 9 -5.5 15t-13.5 6h-53q-8 0 -13 -6t-5 -15v-90q0 -8 5 -13t13 -5h53q8 0 13.5 5.5t5.5 12.5zM360 100v90q0 9 -6 15t-14 6h-51q-8 0 -14.5 -6t-6.5 -15v-90q0 -7 6.5 -12.5t14.5 -5.5h51q8 0 14 5.5t6 12.5zM563 100v90q0 9 -5 15t-13 6h-53q-8 0 -13.5 -6 t-5.5 -15v-90q0 -7 5.5 -12.5t13.5 -5.5h53q7 0 12.5 5t5.5 13zM766 100v90q0 9 -5 15t-13 6h-52q-8 0 -14 -6t-6 -15v-90q0 -7 6 -12.5t14 -5.5h52q8 0 13 5t5 13zM971 100v90q0 9 -6.5 15t-14.5 6h-51q-8 0 -13 -6t-5 -15v-90q0 -8 5.5 -13t12.5 -5h51q8 0 14.5 5.5 t6.5 12.5zM1174 100v90q0 9 -5.5 15t-13.5 6h-53q-8 0 -13.5 -6t-5.5 -15v-90q0 -7 5.5 -12.5t13.5 -5.5h53q8 0 13.5 5.5t5.5 12.5zM158 1298v91q0 9 -5.5 14.5t-13.5 5.5h-51q-8 0 -14 -5.5t-6 -14.5v-91q0 -7 6 -12.5t14 -5.5h51q8 0 13.5 5.5t5.5 12.5zM1378 100v90 q0 9 -6 15t-14 6h-51q-8 0 -14.5 -6t-6.5 -15v-90q0 -7 6.5 -12.5t14.5 -5.5h51q8 0 14 5.5t6 12.5zM1593 279v938q0 19 -13 33t-32 14h-1474q-19 0 -32 -14t-13 -33v-938q0 -19 13 -32.5t32 -13.5h1474q19 0 32 13.5t13 32.5zM362 1298v91q0 20 -18 20h-53q-8 0 -13.5 -5.5 t-5.5 -14.5v-91q0 -7 5.5 -12.5t13.5 -5.5h53q8 0 13 5t5 13zM1581 100v90q0 9 -5 15t-13 6h-54q-8 0 -13 -6t-5 -15v-90q0 -8 5.5 -13t12.5 -5h54q7 0 12.5 5t5.5 13zM565 1298v91q0 20 -18 20h-51q-21 0 -21 -20v-91q0 -8 6 -13t15 -5h51q7 0 12.5 5t5.5 13zM770 1298v91 q0 9 -6 14.5t-14 5.5h-52q-18 0 -18 -20v-91q0 -8 5 -13t13 -5h52q8 0 14 5.5t6 12.5zM973 1298v91q0 9 -5.5 14.5t-13.5 5.5h-53q-18 0 -18 -20v-91q0 -8 5.5 -13t12.5 -5h53q8 0 13.5 5.5t5.5 12.5zM1178 1298v91q0 9 -6.5 14.5t-14.5 5.5h-51q-8 0 -14.5 -5.5t-6.5 -14.5 v-91q0 -7 6.5 -12.5t14.5 -5.5h51q8 0 14.5 5.5t6.5 12.5zM1380 1298v91q0 20 -18 20h-53q-8 0 -13.5 -5.5t-5.5 -14.5v-91q0 -7 5.5 -12.5t13.5 -5.5h53q8 0 13 5t5 13zM1583 1298v91q0 20 -18 20h-52q-8 0 -14 -5.5t-6 -14.5v-91q0 -7 6 -12.5t14 -5.5h52q7 0 12.5 5 t5.5 13zM1622 1489v-1489h-1622v1489h694q17 -31 47 -49.5t64 -18.5q35 0 65.5 18.5t47.5 49.5h704zM995 633v463h-178v-494q0 -27 -8.5 -41t-34.5 -14q-16 0 -26 9t-13.5 27.5t-4.5 31t0 35.5t1 26l-164 -23v-41q0 -108 51.5 -170.5t157.5 -62.5q114 0 166.5 68.5 t52.5 185.5zM1579 1217v-938q0 -12 -9.5 -21.5t-21.5 -9.5h-1474q-12 0 -21.5 9.5t-9.5 21.5v938q0 13 9.5 22.5t21.5 9.5h1474q12 0 21.5 -9.5t9.5 -22.5z" />
<glyph unicode="K" d="M156 100v90q0 9 -5.5 15t-13.5 6h-53q-8 0 -13 -6t-5 -15v-90q0 -8 5 -13t13 -5h53q8 0 13.5 5.5t5.5 12.5zM360 100v90q0 9 -6 15t-14 6h-51q-8 0 -14.5 -6t-6.5 -15v-90q0 -7 6.5 -12.5t14.5 -5.5h51q8 0 14 5.5t6 12.5zM563 100v90q0 9 -5 15t-13 6h-53q-8 0 -13.5 -6 t-5.5 -15v-90q0 -7 5.5 -12.5t13.5 -5.5h53q7 0 12.5 5t5.5 13zM766 100v90q0 9 -5 15t-13 6h-52q-8 0 -14 -6t-6 -15v-90q0 -7 6 -12.5t14 -5.5h52q8 0 13 5t5 13zM971 100v90q0 9 -6.5 15t-14.5 6h-51q-8 0 -13 -6t-5 -15v-90q0 -8 5.5 -13t12.5 -5h51q8 0 14.5 5.5 t6.5 12.5zM1174 100v90q0 9 -5.5 15t-13.5 6h-53q-8 0 -13.5 -6t-5.5 -15v-90q0 -7 5.5 -12.5t13.5 -5.5h53q8 0 13.5 5.5t5.5 12.5zM158 1298v91q0 9 -5.5 14.5t-13.5 5.5h-51q-8 0 -14 -5.5t-6 -14.5v-91q0 -7 6 -12.5t14 -5.5h51q8 0 13.5 5.5t5.5 12.5zM1378 100v90 q0 9 -6 15t-14 6h-51q-8 0 -14.5 -6t-6.5 -15v-90q0 -7 6.5 -12.5t14.5 -5.5h51q8 0 14 5.5t6 12.5zM1593 279v938q0 19 -13 33t-32 14h-1474q-19 0 -32 -14t-13 -33v-938q0 -19 13 -32.5t32 -13.5h1474q19 0 32 13.5t13 32.5zM362 1298v91q0 20 -18 20h-53q-8 0 -13.5 -5.5 t-5.5 -14.5v-91q0 -7 5.5 -12.5t13.5 -5.5h53q8 0 13 5t5 13zM1581 100v90q0 9 -5 15t-13 6h-54q-8 0 -13 -6t-5 -15v-90q0 -8 5.5 -13t12.5 -5h54q7 0 12.5 5t5.5 13zM565 1298v91q0 20 -18 20h-51q-21 0 -21 -20v-91q0 -8 6 -13t15 -5h51q7 0 12.5 5t5.5 13zM770 1298v91 q0 9 -6 14.5t-14 5.5h-52q-18 0 -18 -20v-91q0 -8 5 -13t13 -5h52q8 0 14 5.5t6 12.5zM973 1298v91q0 9 -5.5 14.5t-13.5 5.5h-53q-18 0 -18 -20v-91q0 -8 5.5 -13t12.5 -5h53q8 0 13.5 5.5t5.5 12.5zM1178 1298v91q0 9 -6.5 14.5t-14.5 5.5h-51q-8 0 -14.5 -5.5t-6.5 -14.5 v-91q0 -7 6.5 -12.5t14.5 -5.5h51q8 0 14.5 5.5t6.5 12.5zM1380 1298v91q0 20 -18 20h-53q-8 0 -13.5 -5.5t-5.5 -14.5v-91q0 -7 5.5 -12.5t13.5 -5.5h53q8 0 13 5t5 13zM1583 1298v91q0 20 -18 20h-52q-8 0 -14 -5.5t-6 -14.5v-91q0 -7 6 -12.5t14 -5.5h52q7 0 12.5 5 t5.5 13zM1622 1489v-1489h-1622v1489h694q17 -31 47 -49.5t64 -18.5q35 0 65.5 18.5t47.5 49.5h704zM842 791l317 305h-252l-243 -240v240h-183v-717h183v242l47 47l207 -289h229zM1579 1217v-938q0 -12 -9.5 -21.5t-21.5 -9.5h-1474q-12 0 -21.5 9.5t-9.5 21.5v938 q0 13 9.5 22.5t21.5 9.5h1474q12 0 21.5 -9.5t9.5 -22.5z" />
<glyph unicode="L" d="M156 100v90q0 9 -5.5 15t-13.5 6h-53q-8 0 -13 -6t-5 -15v-90q0 -8 5 -13t13 -5h53q8 0 13.5 5.5t5.5 12.5zM360 100v90q0 9 -6 15t-14 6h-51q-8 0 -14.5 -6t-6.5 -15v-90q0 -7 6.5 -12.5t14.5 -5.5h51q8 0 14 5.5t6 12.5zM563 100v90q0 9 -5 15t-13 6h-53q-8 0 -13.5 -6 t-5.5 -15v-90q0 -7 5.5 -12.5t13.5 -5.5h53q7 0 12.5 5t5.5 13zM766 100v90q0 9 -5 15t-13 6h-52q-8 0 -14 -6t-6 -15v-90q0 -7 6 -12.5t14 -5.5h52q8 0 13 5t5 13zM971 100v90q0 9 -6.5 15t-14.5 6h-51q-8 0 -13 -6t-5 -15v-90q0 -8 5.5 -13t12.5 -5h51q8 0 14.5 5.5 t6.5 12.5zM1174 100v90q0 9 -5.5 15t-13.5 6h-53q-8 0 -13.5 -6t-5.5 -15v-90q0 -7 5.5 -12.5t13.5 -5.5h53q8 0 13.5 5.5t5.5 12.5zM158 1298v91q0 9 -5.5 14.5t-13.5 5.5h-51q-8 0 -14 -5.5t-6 -14.5v-91q0 -7 6 -12.5t14 -5.5h51q8 0 13.5 5.5t5.5 12.5zM1378 100v90 q0 9 -6 15t-14 6h-51q-8 0 -14.5 -6t-6.5 -15v-90q0 -7 6.5 -12.5t14.5 -5.5h51q8 0 14 5.5t6 12.5zM1593 279v938q0 19 -13 33t-32 14h-1474q-19 0 -32 -14t-13 -33v-938q0 -19 13 -32.5t32 -13.5h1474q19 0 32 13.5t13 32.5zM362 1298v91q0 20 -18 20h-53q-8 0 -13.5 -5.5 t-5.5 -14.5v-91q0 -7 5.5 -12.5t13.5 -5.5h53q8 0 13 5t5 13zM1581 100v90q0 9 -5 15t-13 6h-54q-8 0 -13 -6t-5 -15v-90q0 -8 5.5 -13t12.5 -5h54q7 0 12.5 5t5.5 13zM565 1298v91q0 20 -18 20h-51q-21 0 -21 -20v-91q0 -8 6 -13t15 -5h51q7 0 12.5 5t5.5 13zM770 1298v91 q0 9 -6 14.5t-14 5.5h-52q-18 0 -18 -20v-91q0 -8 5 -13t13 -5h52q8 0 14 5.5t6 12.5zM973 1298v91q0 9 -5.5 14.5t-13.5 5.5h-53q-18 0 -18 -20v-91q0 -8 5.5 -13t12.5 -5h53q8 0 13.5 5.5t5.5 12.5zM1178 1298v91q0 9 -6.5 14.5t-14.5 5.5h-51q-8 0 -14.5 -5.5t-6.5 -14.5 v-91q0 -7 6.5 -12.5t14.5 -5.5h51q8 0 14.5 5.5t6.5 12.5zM1380 1298v91q0 20 -18 20h-53q-8 0 -13.5 -5.5t-5.5 -14.5v-91q0 -7 5.5 -12.5t13.5 -5.5h53q8 0 13 5t5 13zM1583 1298v91q0 20 -18 20h-52q-8 0 -14 -5.5t-6 -14.5v-91q0 -7 6 -12.5t14 -5.5h52q7 0 12.5 5 t5.5 13zM1622 1489v-1489h-1622v1489h694q17 -31 47 -49.5t64 -18.5q35 0 65.5 18.5t47.5 49.5h704zM565 379h486v170h-303v547h-183v-717zM1579 1217v-938q0 -12 -9.5 -21.5t-21.5 -9.5h-1474q-12 0 -21.5 9.5t-9.5 21.5v938q0 13 9.5 22.5t21.5 9.5h1474q12 0 21.5 -9.5 t9.5 -22.5z" />
<glyph unicode="M" d="M156 100v90q0 9 -5.5 15t-13.5 6h-53q-8 0 -13 -6t-5 -15v-90q0 -8 5 -13t13 -5h53q8 0 13.5 5.5t5.5 12.5zM360 100v90q0 9 -6 15t-14 6h-51q-8 0 -14.5 -6t-6.5 -15v-90q0 -7 6.5 -12.5t14.5 -5.5h51q8 0 14 5.5t6 12.5zM563 100v90q0 9 -5 15t-13 6h-53q-8 0 -13.5 -6 t-5.5 -15v-90q0 -7 5.5 -12.5t13.5 -5.5h53q7 0 12.5 5t5.5 13zM766 100v90q0 9 -5 15t-13 6h-52q-8 0 -14 -6t-6 -15v-90q0 -7 6 -12.5t14 -5.5h52q8 0 13 5t5 13zM971 100v90q0 9 -6.5 15t-14.5 6h-51q-8 0 -13 -6t-5 -15v-90q0 -8 5.5 -13t12.5 -5h51q8 0 14.5 5.5 t6.5 12.5zM1174 100v90q0 9 -5.5 15t-13.5 6h-53q-8 0 -13.5 -6t-5.5 -15v-90q0 -7 5.5 -12.5t13.5 -5.5h53q8 0 13.5 5.5t5.5 12.5zM158 1298v91q0 9 -5.5 14.5t-13.5 5.5h-51q-8 0 -14 -5.5t-6 -14.5v-91q0 -7 6 -12.5t14 -5.5h51q8 0 13.5 5.5t5.5 12.5zM1378 100v90 q0 9 -6 15t-14 6h-51q-8 0 -14.5 -6t-6.5 -15v-90q0 -7 6.5 -12.5t14.5 -5.5h51q8 0 14 5.5t6 12.5zM1593 279v938q0 19 -13 33t-32 14h-1474q-19 0 -32 -14t-13 -33v-938q0 -19 13 -32.5t32 -13.5h1474q19 0 32 13.5t13 32.5zM362 1298v91q0 20 -18 20h-53q-8 0 -13.5 -5.5 t-5.5 -14.5v-91q0 -7 5.5 -12.5t13.5 -5.5h53q8 0 13 5t5 13zM1581 100v90q0 9 -5 15t-13 6h-54q-8 0 -13 -6t-5 -15v-90q0 -8 5.5 -13t12.5 -5h54q7 0 12.5 5t5.5 13zM565 1298v91q0 20 -18 20h-51q-21 0 -21 -20v-91q0 -8 6 -13t15 -5h51q7 0 12.5 5t5.5 13zM770 1298v91 q0 9 -6 14.5t-14 5.5h-52q-18 0 -18 -20v-91q0 -8 5 -13t13 -5h52q8 0 14 5.5t6 12.5zM973 1298v91q0 9 -5.5 14.5t-13.5 5.5h-53q-18 0 -18 -20v-91q0 -8 5.5 -13t12.5 -5h53q8 0 13.5 5.5t5.5 12.5zM1178 1298v91q0 9 -6.5 14.5t-14.5 5.5h-51q-8 0 -14.5 -5.5t-6.5 -14.5 v-91q0 -7 6.5 -12.5t14.5 -5.5h51q8 0 14.5 5.5t6.5 12.5zM1380 1298v91q0 20 -18 20h-53q-8 0 -13.5 -5.5t-5.5 -14.5v-91q0 -7 5.5 -12.5t13.5 -5.5h53q8 0 13 5t5 13zM1583 1298v91q0 20 -18 20h-52q-8 0 -14 -5.5t-6 -14.5v-91q0 -7 6 -12.5t14 -5.5h52q7 0 12.5 5 t5.5 13zM1622 1489v-1489h-1622v1489h694q17 -31 47 -49.5t64 -18.5q35 0 65.5 18.5t47.5 49.5h704zM977 379h170v717h-189l-147 -430l-143 430h-213v-717h182v289l96 -289h146l98 283v-283zM1579 1217v-938q0 -12 -9.5 -21.5t-21.5 -9.5h-1474q-12 0 -21.5 9.5t-9.5 21.5 v938q0 13 9.5 22.5t21.5 9.5h1474q12 0 21.5 -9.5t9.5 -22.5z" />
<glyph unicode="N" d="M156 100v90q0 9 -5.5 15t-13.5 6h-53q-8 0 -13 -6t-5 -15v-90q0 -8 5 -13t13 -5h53q8 0 13.5 5.5t5.5 12.5zM360 100v90q0 9 -6 15t-14 6h-51q-8 0 -14.5 -6t-6.5 -15v-90q0 -7 6.5 -12.5t14.5 -5.5h51q8 0 14 5.5t6 12.5zM563 100v90q0 9 -5 15t-13 6h-53q-8 0 -13.5 -6 t-5.5 -15v-90q0 -7 5.5 -12.5t13.5 -5.5h53q7 0 12.5 5t5.5 13zM766 100v90q0 9 -5 15t-13 6h-52q-8 0 -14 -6t-6 -15v-90q0 -7 6 -12.5t14 -5.5h52q8 0 13 5t5 13zM971 100v90q0 9 -6.5 15t-14.5 6h-51q-8 0 -13 -6t-5 -15v-90q0 -8 5.5 -13t12.5 -5h51q8 0 14.5 5.5 t6.5 12.5zM1174 100v90q0 9 -5.5 15t-13.5 6h-53q-8 0 -13.5 -6t-5.5 -15v-90q0 -7 5.5 -12.5t13.5 -5.5h53q8 0 13.5 5.5t5.5 12.5zM158 1298v91q0 9 -5.5 14.5t-13.5 5.5h-51q-8 0 -14 -5.5t-6 -14.5v-91q0 -7 6 -12.5t14 -5.5h51q8 0 13.5 5.5t5.5 12.5zM1378 100v90 q0 9 -6 15t-14 6h-51q-8 0 -14.5 -6t-6.5 -15v-90q0 -7 6.5 -12.5t14.5 -5.5h51q8 0 14 5.5t6 12.5zM1593 279v938q0 19 -13 33t-32 14h-1474q-19 0 -32 -14t-13 -33v-938q0 -19 13 -32.5t32 -13.5h1474q19 0 32 13.5t13 32.5zM362 1298v91q0 20 -18 20h-53q-8 0 -13.5 -5.5 t-5.5 -14.5v-91q0 -7 5.5 -12.5t13.5 -5.5h53q8 0 13 5t5 13zM1581 100v90q0 9 -5 15t-13 6h-54q-8 0 -13 -6t-5 -15v-90q0 -8 5.5 -13t12.5 -5h54q7 0 12.5 5t5.5 13zM565 1298v91q0 20 -18 20h-51q-21 0 -21 -20v-91q0 -8 6 -13t15 -5h51q7 0 12.5 5t5.5 13zM770 1298v91 q0 9 -6 14.5t-14 5.5h-52q-18 0 -18 -20v-91q0 -8 5 -13t13 -5h52q8 0 14 5.5t6 12.5zM973 1298v91q0 9 -5.5 14.5t-13.5 5.5h-53q-18 0 -18 -20v-91q0 -8 5.5 -13t12.5 -5h53q8 0 13.5 5.5t5.5 12.5zM1178 1298v91q0 9 -6.5 14.5t-14.5 5.5h-51q-8 0 -14.5 -5.5t-6.5 -14.5 v-91q0 -7 6.5 -12.5t14.5 -5.5h51q8 0 14.5 5.5t6.5 12.5zM1380 1298v91q0 20 -18 20h-53q-8 0 -13.5 -5.5t-5.5 -14.5v-91q0 -7 5.5 -12.5t13.5 -5.5h53q8 0 13 5t5 13zM1583 1298v91q0 20 -18 20h-52q-8 0 -14 -5.5t-6 -14.5v-91q0 -7 6 -12.5t14 -5.5h52q7 0 12.5 5 t5.5 13zM1622 1489v-1489h-1622v1489h694q17 -31 47 -49.5t64 -18.5q35 0 65.5 18.5t47.5 49.5h704zM944 379h164v717h-182v-379l-252 379h-160v-717h182v379zM1579 1217v-938q0 -12 -9.5 -21.5t-21.5 -9.5h-1474q-12 0 -21.5 9.5t-9.5 21.5v938q0 13 9.5 22.5t21.5 9.5 h1474q12 0 21.5 -9.5t9.5 -22.5z" />
<glyph unicode="O" d="M156 100v90q0 9 -5.5 15t-13.5 6h-53q-8 0 -13 -6t-5 -15v-90q0 -8 5 -13t13 -5h53q8 0 13.5 5.5t5.5 12.5zM360 100v90q0 9 -6 15t-14 6h-51q-8 0 -14.5 -6t-6.5 -15v-90q0 -7 6.5 -12.5t14.5 -5.5h51q8 0 14 5.5t6 12.5zM563 100v90q0 9 -5 15t-13 6h-53q-8 0 -13.5 -6 t-5.5 -15v-90q0 -7 5.5 -12.5t13.5 -5.5h53q7 0 12.5 5t5.5 13zM766 100v90q0 9 -5 15t-13 6h-52q-8 0 -14 -6t-6 -15v-90q0 -7 6 -12.5t14 -5.5h52q8 0 13 5t5 13zM971 100v90q0 9 -6.5 15t-14.5 6h-51q-8 0 -13 -6t-5 -15v-90q0 -8 5.5 -13t12.5 -5h51q8 0 14.5 5.5 t6.5 12.5zM1174 100v90q0 9 -5.5 15t-13.5 6h-53q-8 0 -13.5 -6t-5.5 -15v-90q0 -7 5.5 -12.5t13.5 -5.5h53q8 0 13.5 5.5t5.5 12.5zM158 1298v91q0 9 -5.5 14.5t-13.5 5.5h-51q-8 0 -14 -5.5t-6 -14.5v-91q0 -7 6 -12.5t14 -5.5h51q8 0 13.5 5.5t5.5 12.5zM1378 100v90 q0 9 -6 15t-14 6h-51q-8 0 -14.5 -6t-6.5 -15v-90q0 -7 6.5 -12.5t14.5 -5.5h51q8 0 14 5.5t6 12.5zM1593 279v938q0 19 -13 33t-32 14h-1474q-19 0 -32 -14t-13 -33v-938q0 -19 13 -32.5t32 -13.5h1474q19 0 32 13.5t13 32.5zM362 1298v91q0 20 -18 20h-53q-8 0 -13.5 -5.5 t-5.5 -14.5v-91q0 -7 5.5 -12.5t13.5 -5.5h53q8 0 13 5t5 13zM1581 100v90q0 9 -5 15t-13 6h-54q-8 0 -13 -6t-5 -15v-90q0 -8 5.5 -13t12.5 -5h54q7 0 12.5 5t5.5 13zM565 1298v91q0 20 -18 20h-51q-21 0 -21 -20v-91q0 -8 6 -13t15 -5h51q7 0 12.5 5t5.5 13zM770 1298v91 q0 9 -6 14.5t-14 5.5h-52q-18 0 -18 -20v-91q0 -8 5 -13t13 -5h52q8 0 14 5.5t6 12.5zM973 1298v91q0 9 -5.5 14.5t-13.5 5.5h-53q-18 0 -18 -20v-91q0 -8 5.5 -13t12.5 -5h53q8 0 13.5 5.5t5.5 12.5zM1178 1298v91q0 9 -6.5 14.5t-14.5 5.5h-51q-8 0 -14.5 -5.5t-6.5 -14.5 v-91q0 -7 6.5 -12.5t14.5 -5.5h51q8 0 14.5 5.5t6.5 12.5zM1380 1298v91q0 20 -18 20h-53q-8 0 -13.5 -5.5t-5.5 -14.5v-91q0 -7 5.5 -12.5t13.5 -5.5h53q8 0 13 5t5 13zM1583 1298v91q0 20 -18 20h-52q-8 0 -14 -5.5t-6 -14.5v-91q0 -7 6 -12.5t14 -5.5h52q7 0 12.5 5 t5.5 13zM1622 1489v-1489h-1622v1489h694q17 -31 47 -49.5t64 -18.5q35 0 65.5 18.5t47.5 49.5h704zM969 737q0 -84 -39.5 -140t-120.5 -56q-77 0 -117.5 54t-40.5 134q0 90 37.5 147.5t122.5 57.5q80 0 119 -56.5t39 -140.5zM1145 737q0 154 -91.5 256.5t-242.5 102.5 q-157 0 -246.5 -104t-89.5 -263q0 -149 93 -249.5t243 -100.5q152 0 243 101.5t91 256.5zM1579 1217v-938q0 -12 -9.5 -21.5t-21.5 -9.5h-1474q-12 0 -21.5 9.5t-9.5 21.5v938q0 13 9.5 22.5t21.5 9.5h1474q12 0 21.5 -9.5t9.5 -22.5z" />
<glyph unicode="P" d="M156 100v90q0 9 -5.5 15t-13.5 6h-53q-8 0 -13 -6t-5 -15v-90q0 -8 5 -13t13 -5h53q8 0 13.5 5.5t5.5 12.5zM360 100v90q0 9 -6 15t-14 6h-51q-8 0 -14.5 -6t-6.5 -15v-90q0 -7 6.5 -12.5t14.5 -5.5h51q8 0 14 5.5t6 12.5zM563 100v90q0 9 -5 15t-13 6h-53q-8 0 -13.5 -6 t-5.5 -15v-90q0 -7 5.5 -12.5t13.5 -5.5h53q7 0 12.5 5t5.5 13zM766 100v90q0 9 -5 15t-13 6h-52q-8 0 -14 -6t-6 -15v-90q0 -7 6 -12.5t14 -5.5h52q8 0 13 5t5 13zM971 100v90q0 9 -6.5 15t-14.5 6h-51q-8 0 -13 -6t-5 -15v-90q0 -8 5.5 -13t12.5 -5h51q8 0 14.5 5.5 t6.5 12.5zM1174 100v90q0 9 -5.5 15t-13.5 6h-53q-8 0 -13.5 -6t-5.5 -15v-90q0 -7 5.5 -12.5t13.5 -5.5h53q8 0 13.5 5.5t5.5 12.5zM158 1298v91q0 9 -5.5 14.5t-13.5 5.5h-51q-8 0 -14 -5.5t-6 -14.5v-91q0 -7 6 -12.5t14 -5.5h51q8 0 13.5 5.5t5.5 12.5zM1378 100v90 q0 9 -6 15t-14 6h-51q-8 0 -14.5 -6t-6.5 -15v-90q0 -7 6.5 -12.5t14.5 -5.5h51q8 0 14 5.5t6 12.5zM1593 279v938q0 19 -13 33t-32 14h-1474q-19 0 -32 -14t-13 -33v-938q0 -19 13 -32.5t32 -13.5h1474q19 0 32 13.5t13 32.5zM362 1298v91q0 20 -18 20h-53q-8 0 -13.5 -5.5 t-5.5 -14.5v-91q0 -7 5.5 -12.5t13.5 -5.5h53q8 0 13 5t5 13zM1581 100v90q0 9 -5 15t-13 6h-54q-8 0 -13 -6t-5 -15v-90q0 -8 5.5 -13t12.5 -5h54q7 0 12.5 5t5.5 13zM565 1298v91q0 20 -18 20h-51q-21 0 -21 -20v-91q0 -8 6 -13t15 -5h51q7 0 12.5 5t5.5 13zM770 1298v91 q0 9 -6 14.5t-14 5.5h-52q-18 0 -18 -20v-91q0 -8 5 -13t13 -5h52q8 0 14 5.5t6 12.5zM973 1298v91q0 9 -5.5 14.5t-13.5 5.5h-53q-18 0 -18 -20v-91q0 -8 5.5 -13t12.5 -5h53q8 0 13.5 5.5t5.5 12.5zM1178 1298v91q0 9 -6.5 14.5t-14.5 5.5h-51q-8 0 -14.5 -5.5t-6.5 -14.5 v-91q0 -7 6.5 -12.5t14.5 -5.5h51q8 0 14.5 5.5t6.5 12.5zM1380 1298v91q0 20 -18 20h-53q-8 0 -13.5 -5.5t-5.5 -14.5v-91q0 -7 5.5 -12.5t13.5 -5.5h53q8 0 13 5t5 13zM1583 1298v91q0 20 -18 20h-52q-8 0 -14 -5.5t-6 -14.5v-91q0 -7 6 -12.5t14 -5.5h52q7 0 12.5 5 t5.5 13zM1622 1489v-1489h-1622v1489h694q17 -31 47 -49.5t64 -18.5q35 0 65.5 18.5t47.5 49.5h704zM936 864q0 -41 -25 -54t-71 -13h-117v131h125q21 0 34 -2t27 -8t20.5 -19.5t6.5 -34.5zM1116 866q0 123 -78.5 176.5t-206.5 53.5h-274v-717h166v252q160 0 227 17 q149 37 164 181q2 17 2 37zM1579 1217v-938q0 -12 -9.5 -21.5t-21.5 -9.5h-1474q-12 0 -21.5 9.5t-9.5 21.5v938q0 13 9.5 22.5t21.5 9.5h1474q12 0 21.5 -9.5t9.5 -22.5z" />
<glyph unicode="Q" d="M0 1489h694q17 -31 47 -49.5t64 -18.5q35 0 65.5 18.5t47.5 49.5h704v-1489h-1622v1489zM88 1409q-8 0 -14 -5.5t-6 -14.5v-91q0 -7 6 -12.5t14 -5.5h51q8 0 13.5 5.5t5.5 12.5v91q0 9 -5.5 14.5t-13.5 5.5h-51zM291 1409q-8 0 -13.5 -5.5t-5.5 -14.5v-91q0 -7 5.5 -12.5 t13.5 -5.5h53q8 0 13 5t5 13v91q0 20 -18 20h-53zM496 1409q-21 0 -21 -20v-91q0 -8 6 -13t15 -5h51q7 0 12.5 5t5.5 13v91q0 20 -18 20h-51zM698 1409q-18 0 -18 -20v-91q0 -8 5 -13t13 -5h52q8 0 14 5.5t6 12.5v91q0 9 -6 14.5t-14 5.5h-52zM901 1409q-18 0 -18 -20v-91 q0 -8 5.5 -13t12.5 -5h53q8 0 13.5 5.5t5.5 12.5v91q0 9 -5.5 14.5t-13.5 5.5h-53zM1106 1409q-8 0 -14.5 -5.5t-6.5 -14.5v-91q0 -7 6.5 -12.5t14.5 -5.5h51q8 0 14.5 5.5t6.5 12.5v91q0 9 -6.5 14.5t-14.5 5.5h-51zM1309 1409q-8 0 -13.5 -5.5t-5.5 -14.5v-91 q0 -7 5.5 -12.5t13.5 -5.5h53q8 0 13 5t5 13v91q0 20 -18 20h-53zM1513 1409q-8 0 -14 -5.5t-6 -14.5v-91q0 -7 6 -12.5t14 -5.5h52q7 0 12.5 5t5.5 13v91q0 20 -18 20h-52zM84 211q-8 0 -13 -6t-5 -15v-90q0 -8 5 -13t13 -5h53q8 0 13.5 5.5t5.5 12.5v90q0 9 -5.5 15 t-13.5 6h-53zM289 211q-8 0 -14.5 -6t-6.5 -15v-90q0 -7 6.5 -12.5t14.5 -5.5h51q8 0 14 5.5t6 12.5v90q0 9 -6 15t-14 6h-51zM492 211q-8 0 -13.5 -6t-5.5 -15v-90q0 -7 5.5 -12.5t13.5 -5.5h53q7 0 12.5 5t5.5 13v90q0 9 -5 15t-13 6h-53zM696 211q-8 0 -14 -6t-6 -15v-90 q0 -7 6 -12.5t14 -5.5h52q8 0 13 5t5 13v90q0 9 -5 15t-13 6h-52zM899 211q-8 0 -13 -6t-5 -15v-90q0 -8 5.5 -13t12.5 -5h51q8 0 14.5 5.5t6.5 12.5v90q0 9 -6.5 15t-14.5 6h-51zM1102 211q-8 0 -13.5 -6t-5.5 -15v-90q0 -7 5.5 -12.5t13.5 -5.5h53q8 0 13.5 5.5t5.5 12.5 v90q0 9 -5.5 15t-13.5 6h-53zM1307 211q-8 0 -14.5 -6t-6.5 -15v-90q0 -7 6.5 -12.5t14.5 -5.5h51q8 0 14 5.5t6 12.5v90q0 9 -6 15t-14 6h-51zM1509 211q-8 0 -13 -6t-5 -15v-90q0 -8 5.5 -13t12.5 -5h54q7 0 12.5 5t5.5 13v90q0 9 -5 15t-13 6h-54zM1548 1264h-1474 q-19 0 -32 -14t-13 -33v-938q0 -19 13 -32.5t32 -13.5h1474q19 0 32 13.5t13 32.5v938q0 19 -13 33t-32 14zM1548 1249q12 0 21.5 -9.5t9.5 -22.5v-938q0 -12 -9.5 -21.5t-21.5 -9.5h-1474q-12 0 -21.5 9.5t-9.5 21.5v938q0 13 9.5 22.5t21.5 9.5h1474zM961 666l-117 69 l-92 -151l69 -43h-12q-79 -3 -118.5 51t-39.5 137q0 90 37.5 147.5t122.5 57.5q80 0 119 -56.5t39 -140.5q0 -40 -8 -71zM1253 485l-141 86q33 73 33 166q0 154 -91.5 256.5t-242.5 102.5q-157 0 -246.5 -104t-89.5 -263q0 -149 93 -249.5t243 -100.5q108 0 186 55l164 -100 z" />
<glyph unicode="R" d="M156 100v90q0 9 -5.5 15t-13.5 6h-53q-8 0 -13 -6t-5 -15v-90q0 -8 5 -13t13 -5h53q8 0 13.5 5.5t5.5 12.5zM360 100v90q0 9 -6 15t-14 6h-51q-8 0 -14.5 -6t-6.5 -15v-90q0 -7 6.5 -12.5t14.5 -5.5h51q8 0 14 5.5t6 12.5zM563 100v90q0 9 -5 15t-13 6h-53q-8 0 -13.5 -6 t-5.5 -15v-90q0 -7 5.5 -12.5t13.5 -5.5h53q7 0 12.5 5t5.5 13zM766 100v90q0 9 -5 15t-13 6h-52q-8 0 -14 -6t-6 -15v-90q0 -7 6 -12.5t14 -5.5h52q8 0 13 5t5 13zM971 100v90q0 9 -6.5 15t-14.5 6h-51q-8 0 -13 -6t-5 -15v-90q0 -8 5.5 -13t12.5 -5h51q8 0 14.5 5.5 t6.5 12.5zM1174 100v90q0 9 -5.5 15t-13.5 6h-53q-8 0 -13.5 -6t-5.5 -15v-90q0 -7 5.5 -12.5t13.5 -5.5h53q8 0 13.5 5.5t5.5 12.5zM158 1298v91q0 9 -5.5 14.5t-13.5 5.5h-51q-8 0 -14 -5.5t-6 -14.5v-91q0 -7 6 -12.5t14 -5.5h51q8 0 13.5 5.5t5.5 12.5zM1378 100v90 q0 9 -6 15t-14 6h-51q-8 0 -14.5 -6t-6.5 -15v-90q0 -7 6.5 -12.5t14.5 -5.5h51q8 0 14 5.5t6 12.5zM1593 279v938q0 19 -13 33t-32 14h-1474q-19 0 -32 -14t-13 -33v-938q0 -19 13 -32.5t32 -13.5h1474q19 0 32 13.5t13 32.5zM362 1298v91q0 20 -18 20h-53q-8 0 -13.5 -5.5 t-5.5 -14.5v-91q0 -7 5.5 -12.5t13.5 -5.5h53q8 0 13 5t5 13zM1581 100v90q0 9 -5 15t-13 6h-54q-8 0 -13 -6t-5 -15v-90q0 -8 5.5 -13t12.5 -5h54q7 0 12.5 5t5.5 13zM565 1298v91q0 20 -18 20h-51q-21 0 -21 -20v-91q0 -8 6 -13t15 -5h51q7 0 12.5 5t5.5 13zM770 1298v91 q0 9 -6 14.5t-14 5.5h-52q-18 0 -18 -20v-91q0 -8 5 -13t13 -5h52q8 0 14 5.5t6 12.5zM973 1298v91q0 9 -5.5 14.5t-13.5 5.5h-53q-18 0 -18 -20v-91q0 -8 5.5 -13t12.5 -5h53q8 0 13.5 5.5t5.5 12.5zM1178 1298v91q0 9 -6.5 14.5t-14.5 5.5h-51q-8 0 -14.5 -5.5t-6.5 -14.5 v-91q0 -7 6.5 -12.5t14.5 -5.5h51q8 0 14.5 5.5t6.5 12.5zM1380 1298v91q0 20 -18 20h-53q-8 0 -13.5 -5.5t-5.5 -14.5v-91q0 -7 5.5 -12.5t13.5 -5.5h53q8 0 13 5t5 13zM1583 1298v91q0 20 -18 20h-52q-8 0 -14 -5.5t-6 -14.5v-91q0 -7 6 -12.5t14 -5.5h52q7 0 12.5 5 t5.5 13zM1622 1489v-1489h-1622v1489h694q17 -31 47 -49.5t64 -18.5q35 0 65.5 18.5t47.5 49.5h704zM926 877q0 -19 -9.5 -31.5t-28.5 -17.5t-32.5 -6t-34.5 -1h-133v107h154q84 0 84 -51zM979 379h217q-22 33 -61.5 101t-74 120t-71.5 92q55 26 85 74.5t30 110.5 q0 115 -74 167t-192 52h-316v-717h166v274h53q29 0 43 -4q10 -3 24 -16t30.5 -35t32 -44.5t34 -52t30.5 -49t26.5 -44t17.5 -29.5zM1579 1217v-938q0 -12 -9.5 -21.5t-21.5 -9.5h-1474q-12 0 -21.5 9.5t-9.5 21.5v938q0 13 9.5 22.5t21.5 9.5h1474q12 0 21.5 -9.5t9.5 -22.5 z" />
<glyph unicode="S" d="M1100 606q0 61 -28 105t-70.5 66t-92 38t-92 23.5t-70.5 19.5t-28 29q0 43 92 43q57 0 78 -20t24 -76h170q-12 262 -274 262q-106 0 -182 -56t-76 -157q0 -51 21 -90t54.5 -60.5t73.5 -37t80.5 -25t74 -18t54.5 -21.5t21 -31q0 -22 -19.5 -35t-40.5 -16.5t-43 -3.5 q-72 0 -101 28t-34 99h-168q6 -151 80 -222t225 -71q109 0 190 60.5t81 166.5zM1579 1217v-938q0 -12 -9.5 -21.5t-21.5 -9.5h-1474q-12 0 -21.5 9.5t-9.5 21.5v938q0 13 9.5 22.5t21.5 9.5h1474q12 0 21.5 -9.5t9.5 -22.5zM156 100v90q0 9 -5.5 15t-13.5 6h-53q-8 0 -13 -6 t-5 -15v-90q0 -8 5 -13t13 -5h53q8 0 13.5 5.5t5.5 12.5zM360 100v90q0 9 -6 15t-14 6h-51q-8 0 -14.5 -6t-6.5 -15v-90q0 -7 6.5 -12.5t14.5 -5.5h51q8 0 14 5.5t6 12.5zM563 100v90q0 9 -5 15t-13 6h-53q-8 0 -13.5 -6t-5.5 -15v-90q0 -7 5.5 -12.5t13.5 -5.5h53 q7 0 12.5 5t5.5 13zM766 100v90q0 9 -5 15t-13 6h-52q-8 0 -14 -6t-6 -15v-90q0 -7 6 -12.5t14 -5.5h52q8 0 13 5t5 13zM971 100v90q0 9 -6.5 15t-14.5 6h-51q-8 0 -13 -6t-5 -15v-90q0 -8 5.5 -13t12.5 -5h51q8 0 14.5 5.5t6.5 12.5zM1174 100v90q0 9 -5.5 15t-13.5 6h-53 q-8 0 -13.5 -6t-5.5 -15v-90q0 -7 5.5 -12.5t13.5 -5.5h53q8 0 13.5 5.5t5.5 12.5zM158 1298v91q0 9 -5.5 14.5t-13.5 5.5h-51q-8 0 -14 -5.5t-6 -14.5v-91q0 -7 6 -12.5t14 -5.5h51q8 0 13.5 5.5t5.5 12.5zM1378 100v90q0 9 -6 15t-14 6h-51q-8 0 -14.5 -6t-6.5 -15v-90 q0 -7 6.5 -12.5t14.5 -5.5h51q8 0 14 5.5t6 12.5zM1593 279v938q0 19 -13 33t-32 14h-1474q-19 0 -32 -14t-13 -33v-938q0 -19 13 -32.5t32 -13.5h1474q19 0 32 13.5t13 32.5zM362 1298v91q0 20 -18 20h-53q-8 0 -13.5 -5.5t-5.5 -14.5v-91q0 -7 5.5 -12.5t13.5 -5.5h53 q8 0 13 5t5 13zM1581 100v90q0 9 -5 15t-13 6h-54q-8 0 -13 -6t-5 -15v-90q0 -8 5.5 -13t12.5 -5h54q7 0 12.5 5t5.5 13zM565 1298v91q0 20 -18 20h-51q-21 0 -21 -20v-91q0 -8 6 -13t15 -5h51q7 0 12.5 5t5.5 13zM770 1298v91q0 9 -6 14.5t-14 5.5h-52q-18 0 -18 -20v-91 q0 -8 5 -13t13 -5h52q8 0 14 5.5t6 12.5zM973 1298v91q0 9 -5.5 14.5t-13.5 5.5h-53q-18 0 -18 -20v-91q0 -8 5.5 -13t12.5 -5h53q8 0 13.5 5.5t5.5 12.5zM1178 1298v91q0 9 -6.5 14.5t-14.5 5.5h-51q-8 0 -14.5 -5.5t-6.5 -14.5v-91q0 -7 6.5 -12.5t14.5 -5.5h51 q8 0 14.5 5.5t6.5 12.5zM1380 1298v91q0 20 -18 20h-53q-8 0 -13.5 -5.5t-5.5 -14.5v-91q0 -7 5.5 -12.5t13.5 -5.5h53q8 0 13 5t5 13zM1583 1298v91q0 20 -18 20h-52q-8 0 -14 -5.5t-6 -14.5v-91q0 -7 6 -12.5t14 -5.5h52q7 0 12.5 5t5.5 13zM1622 1489v-1489h-1622v1489 h694q17 -31 47 -48.5t64 -17.5q35 0 65.5 17.5t47.5 48.5h704z" />
<glyph unicode="T" d="M901 928h203v168h-586v-168h205v-549h178v549zM1579 1217v-938q0 -12 -9.5 -21.5t-21.5 -9.5h-1474q-12 0 -21.5 9.5t-9.5 21.5v938q0 13 9.5 22.5t21.5 9.5h1474q12 0 21.5 -9.5t9.5 -22.5zM156 100v90q0 9 -5.5 15t-13.5 6h-53q-8 0 -13 -6t-5 -15v-90q0 -8 5 -13 t13 -5h53q8 0 13.5 5.5t5.5 12.5zM360 100v90q0 9 -6 15t-14 6h-51q-8 0 -14.5 -6t-6.5 -15v-90q0 -7 6.5 -12.5t14.5 -5.5h51q8 0 14 5.5t6 12.5zM563 100v90q0 9 -5 15t-13 6h-53q-8 0 -13.5 -6t-5.5 -15v-90q0 -7 5.5 -12.5t13.5 -5.5h53q7 0 12.5 5t5.5 13zM766 100v90 q0 9 -5 15t-13 6h-52q-8 0 -14 -6t-6 -15v-90q0 -7 6 -12.5t14 -5.5h52q8 0 13 5t5 13zM971 100v90q0 9 -6.5 15t-14.5 6h-51q-8 0 -13 -6t-5 -15v-90q0 -8 5.5 -13t12.5 -5h51q8 0 14.5 5.5t6.5 12.5zM1174 100v90q0 9 -5.5 15t-13.5 6h-53q-8 0 -13.5 -6t-5.5 -15v-90 q0 -7 5.5 -12.5t13.5 -5.5h53q8 0 13.5 5.5t5.5 12.5zM158 1298v91q0 9 -5.5 14.5t-13.5 5.5h-51q-8 0 -14 -5.5t-6 -14.5v-91q0 -7 6 -12.5t14 -5.5h51q8 0 13.5 5.5t5.5 12.5zM1378 100v90q0 9 -6 15t-14 6h-51q-8 0 -14.5 -6t-6.5 -15v-90q0 -7 6.5 -12.5t14.5 -5.5h51 q8 0 14 5.5t6 12.5zM1593 279v938q0 19 -13 33t-32 14h-1474q-19 0 -32 -14t-13 -33v-938q0 -19 13 -32.5t32 -13.5h1474q19 0 32 13.5t13 32.5zM362 1298v91q0 20 -18 20h-53q-8 0 -13.5 -5.5t-5.5 -14.5v-91q0 -7 5.5 -12.5t13.5 -5.5h53q8 0 13 5t5 13zM1581 100v90 q0 9 -5 15t-13 6h-54q-8 0 -13 -6t-5 -15v-90q0 -8 5.5 -13t12.5 -5h54q7 0 12.5 5t5.5 13zM565 1298v91q0 20 -18 20h-51q-21 0 -21 -20v-91q0 -8 6 -13t15 -5h51q7 0 12.5 5t5.5 13zM770 1298v91q0 9 -6 14.5t-14 5.5h-52q-18 0 -18 -20v-91q0 -8 5 -13t13 -5h52 q8 0 14 5.5t6 12.5zM973 1298v91q0 9 -5.5 14.5t-13.5 5.5h-53q-18 0 -18 -20v-91q0 -8 5.5 -13t12.5 -5h53q8 0 13.5 5.5t5.5 12.5zM1178 1298v91q0 9 -6.5 14.5t-14.5 5.5h-51q-8 0 -14.5 -5.5t-6.5 -14.5v-91q0 -7 6.5 -12.5t14.5 -5.5h51q8 0 14.5 5.5t6.5 12.5z M1380 1298v91q0 20 -18 20h-53q-8 0 -13.5 -5.5t-5.5 -14.5v-91q0 -7 5.5 -12.5t13.5 -5.5h53q8 0 13 5t5 13zM1583 1298v91q0 20 -18 20h-52q-8 0 -14 -5.5t-6 -14.5v-91q0 -7 6 -12.5t14 -5.5h52q7 0 12.5 5t5.5 13zM1622 1489v-1489h-1622v1489h694q17 -31 47 -48.5 t64 -17.5q35 0 65.5 17.5t47.5 48.5h704z" />
<glyph unicode="U" d="M156 100v90q0 9 -5.5 15t-13.5 6h-53q-8 0 -13 -6t-5 -15v-90q0 -8 5 -13t13 -5h53q8 0 13.5 5.5t5.5 12.5zM360 100v90q0 9 -6 15t-14 6h-51q-8 0 -14.5 -6t-6.5 -15v-90q0 -7 6.5 -12.5t14.5 -5.5h51q8 0 14 5.5t6 12.5zM563 100v90q0 9 -5 15t-13 6h-53q-8 0 -13.5 -6 t-5.5 -15v-90q0 -7 5.5 -12.5t13.5 -5.5h53q7 0 12.5 5t5.5 13zM766 100v90q0 9 -5 15t-13 6h-52q-8 0 -14 -6t-6 -15v-90q0 -7 6 -12.5t14 -5.5h52q8 0 13 5t5 13zM971 100v90q0 9 -6.5 15t-14.5 6h-51q-8 0 -13 -6t-5 -15v-90q0 -8 5.5 -13t12.5 -5h51q8 0 14.5 5.5 t6.5 12.5zM1174 100v90q0 9 -5.5 15t-13.5 6h-53q-8 0 -13.5 -6t-5.5 -15v-90q0 -7 5.5 -12.5t13.5 -5.5h53q8 0 13.5 5.5t5.5 12.5zM158 1298v91q0 9 -5.5 14.5t-13.5 5.5h-51q-8 0 -14 -5.5t-6 -14.5v-91q0 -7 6 -12.5t14 -5.5h51q8 0 13.5 5.5t5.5 12.5zM1378 100v90 q0 9 -6 15t-14 6h-51q-8 0 -14.5 -6t-6.5 -15v-90q0 -7 6.5 -12.5t14.5 -5.5h51q8 0 14 5.5t6 12.5zM1593 279v938q0 19 -13 33t-32 14h-1474q-19 0 -32 -14t-13 -33v-938q0 -19 13 -32.5t32 -13.5h1474q19 0 32 13.5t13 32.5zM362 1298v91q0 20 -18 20h-53q-8 0 -13.5 -5.5 t-5.5 -14.5v-91q0 -7 5.5 -12.5t13.5 -5.5h53q8 0 13 5t5 13zM1581 100v90q0 9 -5 15t-13 6h-54q-8 0 -13 -6t-5 -15v-90q0 -8 5.5 -13t12.5 -5h54q7 0 12.5 5t5.5 13zM565 1298v91q0 20 -18 20h-51q-21 0 -21 -20v-91q0 -8 6 -13t15 -5h51q7 0 12.5 5t5.5 13zM770 1298v91 q0 9 -6 14.5t-14 5.5h-52q-18 0 -18 -20v-91q0 -8 5 -13t13 -5h52q8 0 14 5.5t6 12.5zM973 1298v91q0 9 -5.5 14.5t-13.5 5.5h-53q-18 0 -18 -20v-91q0 -8 5.5 -13t12.5 -5h53q8 0 13.5 5.5t5.5 12.5zM1178 1298v91q0 9 -6.5 14.5t-14.5 5.5h-51q-8 0 -14.5 -5.5t-6.5 -14.5 v-91q0 -7 6.5 -12.5t14.5 -5.5h51q8 0 14.5 5.5t6.5 12.5zM1380 1298v91q0 20 -18 20h-53q-8 0 -13.5 -5.5t-5.5 -14.5v-91q0 -7 5.5 -12.5t13.5 -5.5h53q8 0 13 5t5 13zM1583 1298v91q0 20 -18 20h-52q-8 0 -14 -5.5t-6 -14.5v-91q0 -7 6 -12.5t14 -5.5h52q7 0 12.5 5 t5.5 13zM1622 1489v-1489h-1622v1489h694q17 -31 47 -49.5t64 -18.5q35 0 65.5 18.5t47.5 49.5h704zM1094 680v416h-176v-402v-30t-1 -26t-3 -24.5t-5.5 -19.5t-9 -17.5t-14 -12t-20 -10t-26.5 -5t-34 -2.5q-25 0 -43 4t-28.5 15t-16.5 20t-8.5 30t-3 32.5t-0.5 39.5v408 h-179v-402q0 -157 66.5 -236t220.5 -79q281 0 281 301zM1579 1217v-938q0 -12 -9.5 -21.5t-21.5 -9.5h-1474q-12 0 -21.5 9.5t-9.5 21.5v938q0 13 9.5 22.5t21.5 9.5h1474q12 0 21.5 -9.5t9.5 -22.5z" />
<glyph unicode="V" d="M156 100v90q0 9 -5.5 15t-13.5 6h-53q-8 0 -13 -6t-5 -15v-90q0 -8 5 -13t13 -5h53q8 0 13.5 5.5t5.5 12.5zM360 100v90q0 9 -6 15t-14 6h-51q-8 0 -14.5 -6t-6.5 -15v-90q0 -7 6.5 -12.5t14.5 -5.5h51q8 0 14 5.5t6 12.5zM563 100v90q0 9 -5 15t-13 6h-53q-8 0 -13.5 -6 t-5.5 -15v-90q0 -7 5.5 -12.5t13.5 -5.5h53q7 0 12.5 5t5.5 13zM766 100v90q0 9 -5 15t-13 6h-52q-8 0 -14 -6t-6 -15v-90q0 -7 6 -12.5t14 -5.5h52q8 0 13 5t5 13zM971 100v90q0 9 -6.5 15t-14.5 6h-51q-8 0 -13 -6t-5 -15v-90q0 -8 5.5 -13t12.5 -5h51q8 0 14.5 5.5 t6.5 12.5zM1174 100v90q0 9 -5.5 15t-13.5 6h-53q-8 0 -13.5 -6t-5.5 -15v-90q0 -7 5.5 -12.5t13.5 -5.5h53q8 0 13.5 5.5t5.5 12.5zM158 1298v91q0 9 -5.5 14.5t-13.5 5.5h-51q-8 0 -14 -5.5t-6 -14.5v-91q0 -7 6 -12.5t14 -5.5h51q8 0 13.5 5.5t5.5 12.5zM1378 100v90 q0 9 -6 15t-14 6h-51q-8 0 -14.5 -6t-6.5 -15v-90q0 -7 6.5 -12.5t14.5 -5.5h51q8 0 14 5.5t6 12.5zM1593 279v938q0 19 -13 33t-32 14h-1474q-19 0 -32 -14t-13 -33v-938q0 -19 13 -32.5t32 -13.5h1474q19 0 32 13.5t13 32.5zM362 1298v91q0 20 -18 20h-53q-8 0 -13.5 -5.5 t-5.5 -14.5v-91q0 -7 5.5 -12.5t13.5 -5.5h53q8 0 13 5t5 13zM1581 100v90q0 9 -5 15t-13 6h-54q-8 0 -13 -6t-5 -15v-90q0 -8 5.5 -13t12.5 -5h54q7 0 12.5 5t5.5 13zM565 1298v91q0 20 -18 20h-51q-21 0 -21 -20v-91q0 -8 6 -13t15 -5h51q7 0 12.5 5t5.5 13zM770 1298v91 q0 9 -6 14.5t-14 5.5h-52q-18 0 -18 -20v-91q0 -8 5 -13t13 -5h52q8 0 14 5.5t6 12.5zM973 1298v91q0 9 -5.5 14.5t-13.5 5.5h-53q-18 0 -18 -20v-91q0 -8 5.5 -13t12.5 -5h53q8 0 13.5 5.5t5.5 12.5zM1178 1298v91q0 9 -6.5 14.5t-14.5 5.5h-51q-8 0 -14.5 -5.5t-6.5 -14.5 v-91q0 -7 6.5 -12.5t14.5 -5.5h51q8 0 14.5 5.5t6.5 12.5zM1380 1298v91q0 20 -18 20h-53q-8 0 -13.5 -5.5t-5.5 -14.5v-91q0 -7 5.5 -12.5t13.5 -5.5h53q8 0 13 5t5 13zM1583 1298v91q0 20 -18 20h-52q-8 0 -14 -5.5t-6 -14.5v-91q0 -7 6 -12.5t14 -5.5h52q7 0 12.5 5 t5.5 13zM1622 1489v-1489h-1622v1489h694q17 -31 47 -49.5t64 -18.5q35 0 65.5 18.5t47.5 49.5h704zM877 379l278 717h-186l-166 -445l-160 445h-190l274 -717h150zM1579 1217v-938q0 -12 -9.5 -21.5t-21.5 -9.5h-1474q-12 0 -21.5 9.5t-9.5 21.5v938q0 13 9.5 22.5 t21.5 9.5h1474q12 0 21.5 -9.5t9.5 -22.5z" />
<glyph unicode="W" d="M156 100v90q0 9 -5.5 15t-13.5 6h-53q-8 0 -13 -6t-5 -15v-90q0 -8 5 -13t13 -5h53q8 0 13.5 5.5t5.5 12.5zM360 100v90q0 9 -6 15t-14 6h-51q-8 0 -14.5 -6t-6.5 -15v-90q0 -7 6.5 -12.5t14.5 -5.5h51q8 0 14 5.5t6 12.5zM563 100v90q0 9 -5 15t-13 6h-53q-8 0 -13.5 -6 t-5.5 -15v-90q0 -7 5.5 -12.5t13.5 -5.5h53q7 0 12.5 5t5.5 13zM766 100v90q0 9 -5 15t-13 6h-52q-8 0 -14 -6t-6 -15v-90q0 -7 6 -12.5t14 -5.5h52q8 0 13 5t5 13zM971 100v90q0 9 -6.5 15t-14.5 6h-51q-8 0 -13 -6t-5 -15v-90q0 -8 5.5 -13t12.5 -5h51q8 0 14.5 5.5 t6.5 12.5zM1174 100v90q0 9 -5.5 15t-13.5 6h-53q-8 0 -13.5 -6t-5.5 -15v-90q0 -7 5.5 -12.5t13.5 -5.5h53q8 0 13.5 5.5t5.5 12.5zM158 1298v91q0 9 -5.5 14.5t-13.5 5.5h-51q-8 0 -14 -5.5t-6 -14.5v-91q0 -7 6 -12.5t14 -5.5h51q8 0 13.5 5.5t5.5 12.5zM1378 100v90 q0 9 -6 15t-14 6h-51q-8 0 -14.5 -6t-6.5 -15v-90q0 -7 6.5 -12.5t14.5 -5.5h51q8 0 14 5.5t6 12.5zM1593 279v938q0 19 -13 33t-32 14h-1474q-19 0 -32 -14t-13 -33v-938q0 -19 13 -32.5t32 -13.5h1474q19 0 32 13.5t13 32.5zM362 1298v91q0 20 -18 20h-53q-8 0 -13.5 -5.5 t-5.5 -14.5v-91q0 -7 5.5 -12.5t13.5 -5.5h53q8 0 13 5t5 13zM1581 100v90q0 9 -5 15t-13 6h-54q-8 0 -13 -6t-5 -15v-90q0 -8 5.5 -13t12.5 -5h54q7 0 12.5 5t5.5 13zM565 1298v91q0 20 -18 20h-51q-21 0 -21 -20v-91q0 -8 6 -13t15 -5h51q7 0 12.5 5t5.5 13zM770 1298v91 q0 9 -6 14.5t-14 5.5h-52q-18 0 -18 -20v-91q0 -8 5 -13t13 -5h52q8 0 14 5.5t6 12.5zM973 1298v91q0 9 -5.5 14.5t-13.5 5.5h-53q-18 0 -18 -20v-91q0 -8 5.5 -13t12.5 -5h53q8 0 13.5 5.5t5.5 12.5zM1178 1298v91q0 9 -6.5 14.5t-14.5 5.5h-51q-8 0 -14.5 -5.5t-6.5 -14.5 v-91q0 -7 6.5 -12.5t14.5 -5.5h51q8 0 14.5 5.5t6.5 12.5zM1380 1298v91q0 20 -18 20h-53q-8 0 -13.5 -5.5t-5.5 -14.5v-91q0 -7 5.5 -12.5t13.5 -5.5h53q8 0 13 5t5 13zM1583 1298v91q0 20 -18 20h-52q-8 0 -14 -5.5t-6 -14.5v-91q0 -7 6 -12.5t14 -5.5h52q7 0 12.5 5 t5.5 13zM1622 1489v-1489h-1622v1489h694q17 -31 47 -49.5t64 -18.5q35 0 65.5 18.5t47.5 49.5h704zM1065 379l197 717h-183l-88 -361l-102 361h-170l-105 -369l-88 369h-182l191 -717h153l115 405l110 -405h152zM1579 1217v-938q0 -12 -9.5 -21.5t-21.5 -9.5h-1474 q-12 0 -21.5 9.5t-9.5 21.5v938q0 13 9.5 22.5t21.5 9.5h1474q12 0 21.5 -9.5t9.5 -22.5z" />
<glyph unicode="X" d="M668 1096h-215l243 -344l-274 -373h219l158 225l157 -225h220l-269 377l252 340h-207l-147 -197zM156 100v90q0 9 -5.5 15t-13.5 6h-53q-8 0 -13 -6t-5 -15v-90q0 -8 5 -13t13 -5h53q8 0 13.5 5.5t5.5 12.5zM360 100v90q0 9 -6 15t-14 6h-51q-8 0 -14.5 -6t-6.5 -15v-90 q0 -7 6.5 -12.5t14.5 -5.5h51q8 0 14 5.5t6 12.5zM563 100v90q0 9 -5 15t-13 6h-53q-8 0 -13.5 -6t-5.5 -15v-90q0 -7 5.5 -12.5t13.5 -5.5h53q7 0 12.5 5t5.5 13zM766 100v90q0 9 -5 15t-13 6h-52q-8 0 -14 -6t-6 -15v-90q0 -7 6 -12.5t14 -5.5h52q8 0 13 5t5 13zM971 100 v90q0 9 -6.5 15t-14.5 6h-51q-8 0 -13 -6t-5 -15v-90q0 -8 5.5 -13t12.5 -5h51q8 0 14.5 5.5t6.5 12.5zM1174 100v90q0 9 -5.5 15t-13.5 6h-53q-8 0 -13.5 -6t-5.5 -15v-90q0 -7 5.5 -12.5t13.5 -5.5h53q8 0 13.5 5.5t5.5 12.5zM158 1298v91q0 9 -5.5 14.5t-13.5 5.5h-51 q-8 0 -14 -5.5t-6 -14.5v-91q0 -7 6 -12.5t14 -5.5h51q8 0 13.5 5.5t5.5 12.5zM1378 100v90q0 9 -6 15t-14 6h-51q-8 0 -14.5 -6t-6.5 -15v-90q0 -7 6.5 -12.5t14.5 -5.5h51q8 0 14 5.5t6 12.5zM1593 279v938q0 19 -13 33t-32 14h-1474q-19 0 -32 -14t-13 -33v-938 q0 -19 13 -32.5t32 -13.5h1474q19 0 32 13.5t13 32.5zM362 1298v91q0 20 -18 20h-53q-8 0 -13.5 -5.5t-5.5 -14.5v-91q0 -7 5.5 -12.5t13.5 -5.5h53q8 0 13 5t5 13zM1581 100v90q0 9 -5 15t-13 6h-54q-8 0 -13 -6t-5 -15v-90q0 -8 5.5 -13t12.5 -5h54q7 0 12.5 5t5.5 13z M565 1298v91q0 20 -18 20h-51q-21 0 -21 -20v-91q0 -8 6 -13t15 -5h51q7 0 12.5 5t5.5 13zM770 1298v91q0 9 -6 14.5t-14 5.5h-52q-18 0 -18 -20v-91q0 -8 5 -13t13 -5h52q8 0 14 5.5t6 12.5zM973 1298v91q0 9 -5.5 14.5t-13.5 5.5h-53q-18 0 -18 -20v-91q0 -8 5.5 -13 t12.5 -5h53q8 0 13.5 5.5t5.5 12.5zM1178 1298v91q0 9 -6.5 14.5t-14.5 5.5h-51q-8 0 -14.5 -5.5t-6.5 -14.5v-91q0 -7 6.5 -12.5t14.5 -5.5h51q8 0 14.5 5.5t6.5 12.5zM1380 1298v91q0 20 -18 20h-53q-8 0 -13.5 -5.5t-5.5 -14.5v-91q0 -7 5.5 -12.5t13.5 -5.5h53q8 0 13 5 t5 13zM1583 1298v91q0 20 -18 20h-52q-8 0 -14 -5.5t-6 -14.5v-91q0 -7 6 -12.5t14 -5.5h52q7 0 12.5 5t5.5 13zM1622 1489v-1489h-1622v1489h694q17 -31 47 -49.5t64 -18.5q35 0 65.5 18.5t47.5 49.5h704zM1579 1217v-938q0 -12 -9.5 -21.5t-21.5 -9.5h-1474 q-12 0 -21.5 9.5t-9.5 21.5v938q0 13 9.5 22.5t21.5 9.5h1474q12 0 21.5 -9.5t9.5 -22.5z" />
<glyph unicode="Y" d="M893 676l285 420h-211l-160 -246l-160 246h-213l279 -420v-297h180v297zM1579 1217v-938q0 -12 -9.5 -21.5t-21.5 -9.5h-1474q-12 0 -21.5 9.5t-9.5 21.5v938q0 13 9.5 22.5t21.5 9.5h1474q12 0 21.5 -9.5t9.5 -22.5zM156 100v90q0 9 -5.5 15t-13.5 6h-53q-8 0 -13 -6 t-5 -15v-90q0 -8 5 -13t13 -5h53q8 0 13.5 5.5t5.5 12.5zM360 100v90q0 9 -6 15t-14 6h-51q-8 0 -14.5 -6t-6.5 -15v-90q0 -7 6.5 -12.5t14.5 -5.5h51q8 0 14 5.5t6 12.5zM563 100v90q0 9 -5 15t-13 6h-53q-8 0 -13.5 -6t-5.5 -15v-90q0 -7 5.5 -12.5t13.5 -5.5h53 q7 0 12.5 5t5.5 13zM766 100v90q0 9 -5 15t-13 6h-52q-8 0 -14 -6t-6 -15v-90q0 -7 6 -12.5t14 -5.5h52q8 0 13 5t5 13zM971 100v90q0 9 -6.5 15t-14.5 6h-51q-8 0 -13 -6t-5 -15v-90q0 -8 5.5 -13t12.5 -5h51q8 0 14.5 5.5t6.5 12.5zM1174 100v90q0 9 -5.5 15t-13.5 6h-53 q-8 0 -13.5 -6t-5.5 -15v-90q0 -7 5.5 -12.5t13.5 -5.5h53q8 0 13.5 5.5t5.5 12.5zM158 1298v91q0 9 -5.5 14.5t-13.5 5.5h-51q-8 0 -14 -5.5t-6 -14.5v-91q0 -7 6 -12.5t14 -5.5h51q8 0 13.5 5.5t5.5 12.5zM1378 100v90q0 9 -6 15t-14 6h-51q-8 0 -14.5 -6t-6.5 -15v-90 q0 -7 6.5 -12.5t14.5 -5.5h51q8 0 14 5.5t6 12.5zM1593 279v938q0 19 -13 33t-32 14h-1474q-19 0 -32 -14t-13 -33v-938q0 -19 13 -32.5t32 -13.5h1474q19 0 32 13.5t13 32.5zM362 1298v91q0 20 -18 20h-53q-8 0 -13.5 -5.5t-5.5 -14.5v-91q0 -7 5.5 -12.5t13.5 -5.5h53 q8 0 13 5t5 13zM1581 100v90q0 9 -5 15t-13 6h-54q-8 0 -13 -6t-5 -15v-90q0 -8 5.5 -13t12.5 -5h54q7 0 12.5 5t5.5 13zM565 1298v91q0 20 -18 20h-51q-21 0 -21 -20v-91q0 -8 6 -13t15 -5h51q7 0 12.5 5t5.5 13zM770 1298v91q0 9 -6 14.5t-14 5.5h-52q-18 0 -18 -20v-91 q0 -8 5 -13t13 -5h52q8 0 14 5.5t6 12.5zM973 1298v91q0 9 -5.5 14.5t-13.5 5.5h-53q-18 0 -18 -20v-91q0 -8 5.5 -13t12.5 -5h53q8 0 13.5 5.5t5.5 12.5zM1178 1298v91q0 9 -6.5 14.5t-14.5 5.5h-51q-8 0 -14.5 -5.5t-6.5 -14.5v-91q0 -7 6.5 -12.5t14.5 -5.5h51 q8 0 14.5 5.5t6.5 12.5zM1380 1298v91q0 20 -18 20h-53q-8 0 -13.5 -5.5t-5.5 -14.5v-91q0 -7 5.5 -12.5t13.5 -5.5h53q8 0 13 5t5 13zM1583 1298v91q0 20 -18 20h-52q-8 0 -14 -5.5t-6 -14.5v-91q0 -7 6 -12.5t14 -5.5h52q7 0 12.5 5t5.5 13zM1622 1489v-1489h-1622v1489 h694q17 -31 47 -49.5t64 -18.5q35 0 65.5 18.5t47.5 49.5h704z" />
<glyph unicode="Z" d="M156 100v90q0 9 -5.5 15t-13.5 6h-53q-8 0 -13 -6t-5 -15v-90q0 -8 5 -13t13 -5h53q8 0 13.5 5.5t5.5 12.5zM360 100v90q0 9 -6 15t-14 6h-51q-8 0 -14.5 -6t-6.5 -15v-90q0 -7 6.5 -12.5t14.5 -5.5h51q8 0 14 5.5t6 12.5zM563 100v90q0 9 -5 15t-13 6h-53q-8 0 -13.5 -6 t-5.5 -15v-90q0 -7 5.5 -12.5t13.5 -5.5h53q7 0 12.5 5t5.5 13zM766 100v90q0 9 -5 15t-13 6h-52q-8 0 -14 -6t-6 -15v-90q0 -7 6 -12.5t14 -5.5h52q8 0 13 5t5 13zM971 100v90q0 9 -6.5 15t-14.5 6h-51q-8 0 -13 -6t-5 -15v-90q0 -8 5.5 -13t12.5 -5h51q8 0 14.5 5.5 t6.5 12.5zM1174 100v90q0 9 -5.5 15t-13.5 6h-53q-8 0 -13.5 -6t-5.5 -15v-90q0 -7 5.5 -12.5t13.5 -5.5h53q8 0 13.5 5.5t5.5 12.5zM158 1298v91q0 9 -5.5 14.5t-13.5 5.5h-51q-8 0 -14 -5.5t-6 -14.5v-91q0 -7 6 -12.5t14 -5.5h51q8 0 13.5 5.5t5.5 12.5zM1378 100v90 q0 9 -6 15t-14 6h-51q-8 0 -14.5 -6t-6.5 -15v-90q0 -7 6.5 -12.5t14.5 -5.5h51q8 0 14 5.5t6 12.5zM1593 279v938q0 19 -13 33t-32 14h-1474q-19 0 -32 -14t-13 -33v-938q0 -19 13 -32.5t32 -13.5h1474q19 0 32 13.5t13 32.5zM362 1298v91q0 20 -18 20h-53q-8 0 -13.5 -5.5 t-5.5 -14.5v-91q0 -7 5.5 -12.5t13.5 -5.5h53q8 0 13 5t5 13zM1581 100v90q0 9 -5 15t-13 6h-54q-8 0 -13 -6t-5 -15v-90q0 -8 5.5 -13t12.5 -5h54q7 0 12.5 5t5.5 13zM565 1298v91q0 20 -18 20h-51q-21 0 -21 -20v-91q0 -8 6 -13t15 -5h51q7 0 12.5 5t5.5 13zM770 1298v91 q0 9 -6 14.5t-14 5.5h-52q-18 0 -18 -20v-91q0 -8 5 -13t13 -5h52q8 0 14 5.5t6 12.5zM973 1298v91q0 9 -5.5 14.5t-13.5 5.5h-53q-18 0 -18 -20v-91q0 -8 5.5 -13t12.5 -5h53q8 0 13.5 5.5t5.5 12.5zM1178 1298v91q0 9 -6.5 14.5t-14.5 5.5h-51q-8 0 -14.5 -5.5t-6.5 -14.5 v-91q0 -7 6.5 -12.5t14.5 -5.5h51q8 0 14.5 5.5t6.5 12.5zM1380 1298v91q0 20 -18 20h-53q-8 0 -13.5 -5.5t-5.5 -14.5v-91q0 -7 5.5 -12.5t13.5 -5.5h53q8 0 13 5t5 13zM1583 1298v91q0 20 -18 20h-52q-8 0 -14 -5.5t-6 -14.5v-91q0 -7 6 -12.5t14 -5.5h52q7 0 12.5 5 t5.5 13zM1622 1489v-1489h-1622v1489h694q17 -31 47 -49.5t64 -18.5q35 0 65.5 18.5t47.5 49.5h704zM508 379h586v168h-338l325 409v140h-536v-168h291l-328 -404v-145zM1579 1217v-938q0 -12 -9.5 -21.5t-21.5 -9.5h-1474q-12 0 -21.5 9.5t-9.5 21.5v938q0 13 9.5 22.5 t21.5 9.5h1474q12 0 21.5 -9.5t9.5 -22.5z" />
<glyph unicode="[" horiz-adv-x="811" />
<glyph unicode="\" horiz-adv-x="811" />
<glyph unicode="]" horiz-adv-x="811" />
<glyph unicode="^" horiz-adv-x="811" />
<glyph unicode="_" horiz-adv-x="811" />
<glyph unicode="`" horiz-adv-x="811" />
<glyph unicode="a" d="M0 1489h694q17 -31 47 -49.5t64 -18.5q35 0 65.5 18.5t47.5 49.5h704v-1489h-1622v1489zM88 1409q-8 0 -14 -5.5t-6 -14.5v-91q0 -7 6 -12.5t14 -5.5h51q8 0 13.5 5.5t5.5 12.5v91q0 9 -5.5 14.5t-13.5 5.5h-51zM291 1409q-8 0 -13.5 -5.5t-5.5 -14.5v-91q0 -7 5.5 -12.5 t13.5 -5.5h53q8 0 13 5t5 13v91q0 20 -18 20h-53zM496 1409q-21 0 -21 -20v-91q0 -8 6 -13t15 -5h51q7 0 12.5 5t5.5 13v91q0 20 -18 20h-51zM698 1409q-18 0 -18 -20v-91q0 -8 5 -13t13 -5h52q8 0 14 5.5t6 12.5v91q0 9 -6 14.5t-14 5.5h-52zM901 1409q-18 0 -18 -20v-91 q0 -8 5.5 -13t12.5 -5h53q8 0 13.5 5.5t5.5 12.5v91q0 9 -5.5 14.5t-13.5 5.5h-53zM1106 1409q-8 0 -14.5 -5.5t-6.5 -14.5v-91q0 -7 6.5 -12.5t14.5 -5.5h51q8 0 14.5 5.5t6.5 12.5v91q0 9 -6.5 14.5t-14.5 5.5h-51zM1309 1409q-8 0 -13.5 -5.5t-5.5 -14.5v-91 q0 -7 5.5 -12.5t13.5 -5.5h53q8 0 13 5t5 13v91q0 20 -18 20h-53zM1513 1409q-8 0 -14 -5.5t-6 -14.5v-91q0 -7 6 -12.5t14 -5.5h52q7 0 12.5 5t5.5 13v91q0 20 -18 20h-52zM74 1255q-15 0 -27 -11.5t-12 -26.5v-938q0 -15 12 -26t27 -11h1474q15 0 27 11t12 26v938 q0 15 -12 26.5t-27 11.5h-1474zM84 211q-8 0 -13 -6t-5 -15v-90q0 -8 5 -13t13 -5h53q8 0 13.5 5.5t5.5 12.5v90q0 9 -5.5 15t-13.5 6h-53zM289 211q-8 0 -14.5 -6t-6.5 -15v-90q0 -7 6.5 -12.5t14.5 -5.5h51q8 0 14 5.5t6 12.5v90q0 9 -6 15t-14 6h-51zM492 211 q-8 0 -13.5 -6t-5.5 -15v-90q0 -7 5.5 -12.5t13.5 -5.5h53q7 0 12.5 5t5.5 13v90q0 9 -5 15t-13 6h-53zM696 211q-8 0 -14 -6t-6 -15v-90q0 -7 6 -12.5t14 -5.5h52q8 0 13 5t5 13v90q0 9 -5 15t-13 6h-52zM899 211q-8 0 -13 -6t-5 -15v-90q0 -8 5.5 -13t12.5 -5h51 q8 0 14.5 5.5t6.5 12.5v90q0 9 -6.5 15t-14.5 6h-51zM1102 211q-8 0 -13.5 -6t-5.5 -15v-90q0 -7 5.5 -12.5t13.5 -5.5h53q8 0 13.5 5.5t5.5 12.5v90q0 9 -5.5 15t-13.5 6h-53zM1307 211q-8 0 -14.5 -6t-6.5 -15v-90q0 -7 6.5 -12.5t14.5 -5.5h51q8 0 14 5.5t6 12.5v90 q0 9 -6 15t-14 6h-51zM1509 211q-8 0 -13 -6t-5 -15v-90q0 -8 5.5 -13t12.5 -5h54q7 0 12.5 5t5.5 13v90q0 9 -5 15t-13 6h-54zM727 1096h156l295 -717h-199l-74 182h-194l-68 -182h-192zM770 731h74q-15 34 -37 96z" />
<glyph unicode="b" d="M1110 606q0 -62 -22.5 -107t-62.5 -70.5t-88.5 -37.5t-107.5 -12h-286v717h280q108 0 182 -51t74 -154q0 -71 -45 -125q36 -27 56 -70t20 -90zM928 606q0 22 -10 35.5t-29 19.5t-34 7.5t-38 1.5h-92v-121h113q20 0 32 1.5t27.5 6.5t23 17t7.5 32zM901 879q0 29 -18.5 38 t-51.5 9h-106v-86h123q26 0 39.5 7.5t13.5 31.5zM0 1489h694q17 -31 47 -49.5t64 -18.5q35 0 65.5 18.5t47.5 49.5h704v-1489h-1622v1489zM88 1409q-8 0 -14 -5.5t-6 -14.5v-91q0 -7 6 -12.5t14 -5.5h51q8 0 13.5 5.5t5.5 12.5v91q0 9 -5.5 14.5t-13.5 5.5h-51zM291 1409 q-8 0 -13.5 -5.5t-5.5 -14.5v-91q0 -7 5.5 -12.5t13.5 -5.5h53q8 0 13 5t5 13v91q0 20 -18 20h-53zM496 1409q-21 0 -21 -20v-91q0 -8 6 -13t15 -5h51q7 0 12.5 5t5.5 13v91q0 20 -18 20h-51zM698 1409q-18 0 -18 -20v-91q0 -8 5 -13t13 -5h52q8 0 14 5.5t6 12.5v91 q0 9 -6 14.5t-14 5.5h-52zM901 1409q-18 0 -18 -20v-91q0 -8 5.5 -13t12.5 -5h53q8 0 13.5 5.5t5.5 12.5v91q0 9 -5.5 14.5t-13.5 5.5h-53zM1106 1409q-8 0 -14.5 -5.5t-6.5 -14.5v-91q0 -7 6.5 -12.5t14.5 -5.5h51q8 0 14.5 5.5t6.5 12.5v91q0 9 -6.5 14.5t-14.5 5.5h-51z M1309 1409q-8 0 -13.5 -5.5t-5.5 -14.5v-91q0 -7 5.5 -12.5t13.5 -5.5h53q8 0 13 5t5 13v91q0 20 -18 20h-53zM1513 1409q-8 0 -14 -5.5t-6 -14.5v-91q0 -7 6 -12.5t14 -5.5h52q7 0 12.5 5t5.5 13v91q0 20 -18 20h-52zM74 1255q-15 0 -27 -11.5t-12 -26.5v-938q0 -15 12 -26 t27 -11h1474q15 0 27 11t12 26v938q0 15 -12 26.5t-27 11.5h-1474zM84 211q-8 0 -13 -6t-5 -15v-90q0 -8 5 -13t13 -5h53q8 0 13.5 5.5t5.5 12.5v90q0 9 -5.5 15t-13.5 6h-53zM289 211q-8 0 -14.5 -6t-6.5 -15v-90q0 -7 6.5 -12.5t14.5 -5.5h51q8 0 14 5.5t6 12.5v90 q0 9 -6 15t-14 6h-51zM492 211q-8 0 -13.5 -6t-5.5 -15v-90q0 -7 5.5 -12.5t13.5 -5.5h53q7 0 12.5 5t5.5 13v90q0 9 -5 15t-13 6h-53zM696 211q-8 0 -14 -6t-6 -15v-90q0 -7 6 -12.5t14 -5.5h52q8 0 13 5t5 13v90q0 9 -5 15t-13 6h-52zM899 211q-8 0 -13 -6t-5 -15v-90 q0 -8 5.5 -13t12.5 -5h51q8 0 14.5 5.5t6.5 12.5v90q0 9 -6.5 15t-14.5 6h-51zM1102 211q-8 0 -13.5 -6t-5.5 -15v-90q0 -7 5.5 -12.5t13.5 -5.5h53q8 0 13.5 5.5t5.5 12.5v90q0 9 -5.5 15t-13.5 6h-53zM1307 211q-8 0 -14.5 -6t-6.5 -15v-90q0 -7 6.5 -12.5t14.5 -5.5h51 q8 0 14 5.5t6 12.5v90q0 9 -6 15t-14 6h-51zM1509 211q-8 0 -13 -6t-5 -15v-90q0 -8 5.5 -13t12.5 -5h54q7 0 12.5 5t5.5 13v90q0 9 -5 15t-13 6h-54z" />
<glyph unicode="c" d="M1112 662q-17 -66 -40 -115t-58.5 -88.5t-87 -59.5t-119.5 -20q-159 0 -245.5 100.5t-86.5 261.5q0 155 89.5 255t242.5 100q124 0 192.5 -65t104.5 -191l-168 -41q-12 37 -18.5 53t-21 39.5t-36 33t-53.5 9.5q-82 0 -119 -54t-37 -139q0 -39 7 -72.5t23 -63t46 -47 t72 -17.5q38 0 63.5 12t40.5 39.5t21.5 49t15.5 63.5zM0 1489h694q17 -31 47 -49.5t64 -18.5q35 0 65.5 18.5t47.5 49.5h704v-1489h-1622v1489zM88 1409q-8 0 -14 -5.5t-6 -14.5v-91q0 -7 6 -12.5t14 -5.5h51q8 0 13.5 5.5t5.5 12.5v91q0 9 -5.5 14.5t-13.5 5.5h-51z M291 1409q-8 0 -13.5 -5.5t-5.5 -14.5v-91q0 -7 5.5 -12.5t13.5 -5.5h53q8 0 13 5t5 13v91q0 20 -18 20h-53zM496 1409q-21 0 -21 -20v-91q0 -8 6 -13t15 -5h51q7 0 12.5 5t5.5 13v91q0 20 -18 20h-51zM698 1409q-18 0 -18 -20v-91q0 -8 5 -13t13 -5h52q8 0 14 5.5t6 12.5 v91q0 9 -6 14.5t-14 5.5h-52zM901 1409q-18 0 -18 -20v-91q0 -8 5.5 -13t12.5 -5h53q8 0 13.5 5.5t5.5 12.5v91q0 9 -5.5 14.5t-13.5 5.5h-53zM1106 1409q-8 0 -14.5 -5.5t-6.5 -14.5v-91q0 -7 6.5 -12.5t14.5 -5.5h51q8 0 14.5 5.5t6.5 12.5v91q0 9 -6.5 14.5t-14.5 5.5 h-51zM1309 1409q-8 0 -13.5 -5.5t-5.5 -14.5v-91q0 -7 5.5 -12.5t13.5 -5.5h53q8 0 13 5t5 13v91q0 20 -18 20h-53zM1513 1409q-8 0 -14 -5.5t-6 -14.5v-91q0 -7 6 -12.5t14 -5.5h52q7 0 12.5 5t5.5 13v91q0 20 -18 20h-52zM74 1255q-15 0 -27 -11.5t-12 -26.5v-938 q0 -15 12 -26t27 -11h1474q15 0 27 11t12 26v938q0 15 -12 26.5t-27 11.5h-1474zM84 211q-8 0 -13 -6t-5 -15v-90q0 -8 5 -13t13 -5h53q8 0 13.5 5.5t5.5 12.5v90q0 9 -5.5 15t-13.5 6h-53zM289 211q-8 0 -14.5 -6t-6.5 -15v-90q0 -7 6.5 -12.5t14.5 -5.5h51q8 0 14 5.5 t6 12.5v90q0 9 -6 15t-14 6h-51zM492 211q-8 0 -13.5 -6t-5.5 -15v-90q0 -7 5.5 -12.5t13.5 -5.5h53q7 0 12.5 5t5.5 13v90q0 9 -5 15t-13 6h-53zM696 211q-8 0 -14 -6t-6 -15v-90q0 -7 6 -12.5t14 -5.5h52q8 0 13 5t5 13v90q0 9 -5 15t-13 6h-52zM899 211q-8 0 -13 -6 t-5 -15v-90q0 -8 5.5 -13t12.5 -5h51q8 0 14.5 5.5t6.5 12.5v90q0 9 -6.5 15t-14.5 6h-51zM1102 211q-8 0 -13.5 -6t-5.5 -15v-90q0 -7 5.5 -12.5t13.5 -5.5h53q8 0 13.5 5.5t5.5 12.5v90q0 9 -5.5 15t-13.5 6h-53zM1307 211q-8 0 -14.5 -6t-6.5 -15v-90q0 -7 6.5 -12.5 t14.5 -5.5h51q8 0 14 5.5t6 12.5v90q0 9 -6 15t-14 6h-51zM1509 211q-8 0 -13 -6t-5 -15v-90q0 -8 5.5 -13t12.5 -5h54q7 0 12.5 5t5.5 13v90q0 9 -5 15t-13 6h-54z" />
<glyph unicode="d" d="M1137 741q0 -172 -85.5 -267t-254.5 -95h-275v717h264q72 0 105 -4q122 -19 184 -119t62 -232zM793 549q97 0 129 45.5t32 146.5q0 98 -34 141.5t-129 43.5h-86v-377h88zM0 1489h694q17 -31 47 -49.5t64 -18.5q35 0 65.5 18.5t47.5 49.5h704v-1489h-1622v1489zM88 1409 q-8 0 -14 -5.5t-6 -14.5v-91q0 -7 6 -12.5t14 -5.5h51q8 0 13.5 5.5t5.5 12.5v91q0 9 -5.5 14.5t-13.5 5.5h-51zM291 1409q-8 0 -13.5 -5.5t-5.5 -14.5v-91q0 -7 5.5 -12.5t13.5 -5.5h53q8 0 13 5t5 13v91q0 20 -18 20h-53zM496 1409q-21 0 -21 -20v-91q0 -8 6 -13t15 -5h51 q7 0 12.5 5t5.5 13v91q0 20 -18 20h-51zM698 1409q-18 0 -18 -20v-91q0 -8 5 -13t13 -5h52q8 0 14 5.5t6 12.5v91q0 9 -6 14.5t-14 5.5h-52zM901 1409q-18 0 -18 -20v-91q0 -8 5.5 -13t12.5 -5h53q8 0 13.5 5.5t5.5 12.5v91q0 9 -5.5 14.5t-13.5 5.5h-53zM1106 1409 q-8 0 -14.5 -5.5t-6.5 -14.5v-91q0 -7 6.5 -12.5t14.5 -5.5h51q8 0 14.5 5.5t6.5 12.5v91q0 9 -6.5 14.5t-14.5 5.5h-51zM1309 1409q-8 0 -13.5 -5.5t-5.5 -14.5v-91q0 -7 5.5 -12.5t13.5 -5.5h53q8 0 13 5t5 13v91q0 20 -18 20h-53zM1513 1409q-8 0 -14 -5.5t-6 -14.5v-91 q0 -7 6 -12.5t14 -5.5h52q7 0 12.5 5t5.5 13v91q0 20 -18 20h-52zM74 1255q-15 0 -27 -11.5t-12 -26.5v-938q0 -15 12 -26t27 -11h1474q15 0 27 11t12 26v938q0 15 -12 26.5t-27 11.5h-1474zM84 211q-8 0 -13 -6t-5 -15v-90q0 -8 5 -13t13 -5h53q8 0 13.5 5.5t5.5 12.5v90 q0 9 -5.5 15t-13.5 6h-53zM289 211q-8 0 -14.5 -6t-6.5 -15v-90q0 -7 6.5 -12.5t14.5 -5.5h51q8 0 14 5.5t6 12.5v90q0 9 -6 15t-14 6h-51zM492 211q-8 0 -13.5 -6t-5.5 -15v-90q0 -7 5.5 -12.5t13.5 -5.5h53q7 0 12.5 5t5.5 13v90q0 9 -5 15t-13 6h-53zM696 211 q-8 0 -14 -6t-6 -15v-90q0 -7 6 -12.5t14 -5.5h52q8 0 13 5t5 13v90q0 9 -5 15t-13 6h-52zM899 211q-8 0 -13 -6t-5 -15v-90q0 -8 5.5 -13t12.5 -5h51q8 0 14.5 5.5t6.5 12.5v90q0 9 -6.5 15t-14.5 6h-51zM1102 211q-8 0 -13.5 -6t-5.5 -15v-90q0 -7 5.5 -12.5t13.5 -5.5h53 q8 0 13.5 5.5t5.5 12.5v90q0 9 -5.5 15t-13.5 6h-53zM1307 211q-8 0 -14.5 -6t-6.5 -15v-90q0 -7 6.5 -12.5t14.5 -5.5h51q8 0 14 5.5t6 12.5v90q0 9 -6 15t-14 6h-51zM1509 211q-8 0 -13 -6t-5 -15v-90q0 -8 5.5 -13t12.5 -5h54q7 0 12.5 5t5.5 13v90q0 9 -5 15t-13 6h-54z " />
<glyph unicode="e" d="M1092 549v-170h-570v717h557v-170h-374v-97h352v-172h-352v-108h387zM0 1489h694q17 -31 47 -49.5t64 -18.5q35 0 65.5 18.5t47.5 49.5h704v-1489h-1622v1489zM88 1409q-8 0 -14 -5.5t-6 -14.5v-91q0 -7 6 -12.5t14 -5.5h51q8 0 13.5 5.5t5.5 12.5v91q0 9 -5.5 14.5 t-13.5 5.5h-51zM291 1409q-8 0 -13.5 -5.5t-5.5 -14.5v-91q0 -7 5.5 -12.5t13.5 -5.5h53q8 0 13 5t5 13v91q0 20 -18 20h-53zM496 1409q-21 0 -21 -20v-91q0 -8 6 -13t15 -5h51q7 0 12.5 5t5.5 13v91q0 20 -18 20h-51zM698 1409q-18 0 -18 -20v-91q0 -8 5 -13t13 -5h52 q8 0 14 5.5t6 12.5v91q0 9 -6 14.5t-14 5.5h-52zM901 1409q-18 0 -18 -20v-91q0 -8 5.5 -13t12.5 -5h53q8 0 13.5 5.5t5.5 12.5v91q0 9 -5.5 14.5t-13.5 5.5h-53zM1106 1409q-8 0 -14.5 -5.5t-6.5 -14.5v-91q0 -7 6.5 -12.5t14.5 -5.5h51q8 0 14.5 5.5t6.5 12.5v91 q0 9 -6.5 14.5t-14.5 5.5h-51zM1309 1409q-8 0 -13.5 -5.5t-5.5 -14.5v-91q0 -7 5.5 -12.5t13.5 -5.5h53q8 0 13 5t5 13v91q0 20 -18 20h-53zM1513 1409q-8 0 -14 -5.5t-6 -14.5v-91q0 -7 6 -12.5t14 -5.5h52q7 0 12.5 5t5.5 13v91q0 20 -18 20h-52zM74 1255 q-15 0 -27 -11.5t-12 -26.5v-938q0 -15 12 -26t27 -11h1474q15 0 27 11t12 26v938q0 15 -12 26.5t-27 11.5h-1474zM84 211q-8 0 -13 -6t-5 -15v-90q0 -8 5 -13t13 -5h53q8 0 13.5 5.5t5.5 12.5v90q0 9 -5.5 15t-13.5 6h-53zM289 211q-8 0 -14.5 -6t-6.5 -15v-90 q0 -7 6.5 -12.5t14.5 -5.5h51q8 0 14 5.5t6 12.5v90q0 9 -6 15t-14 6h-51zM492 211q-8 0 -13.5 -6t-5.5 -15v-90q0 -7 5.5 -12.5t13.5 -5.5h53q7 0 12.5 5t5.5 13v90q0 9 -5 15t-13 6h-53zM696 211q-8 0 -14 -6t-6 -15v-90q0 -7 6 -12.5t14 -5.5h52q8 0 13 5t5 13v90 q0 9 -5 15t-13 6h-52zM899 211q-8 0 -13 -6t-5 -15v-90q0 -8 5.5 -13t12.5 -5h51q8 0 14.5 5.5t6.5 12.5v90q0 9 -6.5 15t-14.5 6h-51zM1102 211q-8 0 -13.5 -6t-5.5 -15v-90q0 -7 5.5 -12.5t13.5 -5.5h53q8 0 13.5 5.5t5.5 12.5v90q0 9 -5.5 15t-13.5 6h-53zM1307 211 q-8 0 -14.5 -6t-6.5 -15v-90q0 -7 6.5 -12.5t14.5 -5.5h51q8 0 14 5.5t6 12.5v90q0 9 -6 15t-14 6h-51zM1509 211q-8 0 -13 -6t-5 -15v-90q0 -8 5.5 -13t12.5 -5h54q7 0 12.5 5t5.5 13v90q0 9 -5 15t-13 6h-54z" />
<glyph unicode="f" d="M705 657v-278h-183v717h557v-170h-374v-97h331v-172h-331zM0 1489h694q17 -31 47 -49.5t64 -18.5q35 0 65.5 18.5t47.5 49.5h704v-1489h-1622v1489zM88 1409q-8 0 -14 -5.5t-6 -14.5v-91q0 -7 6 -12.5t14 -5.5h51q8 0 13.5 5.5t5.5 12.5v91q0 9 -5.5 14.5t-13.5 5.5h-51z M291 1409q-8 0 -13.5 -5.5t-5.5 -14.5v-91q0 -7 5.5 -12.5t13.5 -5.5h53q8 0 13 5t5 13v91q0 20 -18 20h-53zM496 1409q-21 0 -21 -20v-91q0 -8 6 -13t15 -5h51q7 0 12.5 5t5.5 13v91q0 20 -18 20h-51zM698 1409q-18 0 -18 -20v-91q0 -8 5 -13t13 -5h52q8 0 14 5.5t6 12.5 v91q0 9 -6 14.5t-14 5.5h-52zM901 1409q-18 0 -18 -20v-91q0 -8 5.5 -13t12.5 -5h53q8 0 13.5 5.5t5.5 12.5v91q0 9 -5.5 14.5t-13.5 5.5h-53zM1106 1409q-8 0 -14.5 -5.5t-6.5 -14.5v-91q0 -7 6.5 -12.5t14.5 -5.5h51q8 0 14.5 5.5t6.5 12.5v91q0 9 -6.5 14.5t-14.5 5.5 h-51zM1309 1409q-8 0 -13.5 -5.5t-5.5 -14.5v-91q0 -7 5.5 -12.5t13.5 -5.5h53q8 0 13 5t5 13v91q0 20 -18 20h-53zM1513 1409q-8 0 -14 -5.5t-6 -14.5v-91q0 -7 6 -12.5t14 -5.5h52q7 0 12.5 5t5.5 13v91q0 20 -18 20h-52zM74 1255q-15 0 -27 -11.5t-12 -26.5v-938 q0 -15 12 -26t27 -11h1474q15 0 27 11t12 26v938q0 15 -12 26.5t-27 11.5h-1474zM84 211q-8 0 -13 -6t-5 -15v-90q0 -8 5 -13t13 -5h53q8 0 13.5 5.5t5.5 12.5v90q0 9 -5.5 15t-13.5 6h-53zM289 211q-8 0 -14.5 -6t-6.5 -15v-90q0 -7 6.5 -12.5t14.5 -5.5h51q8 0 14 5.5 t6 12.5v90q0 9 -6 15t-14 6h-51zM492 211q-8 0 -13.5 -6t-5.5 -15v-90q0 -7 5.5 -12.5t13.5 -5.5h53q7 0 12.5 5t5.5 13v90q0 9 -5 15t-13 6h-53zM696 211q-8 0 -14 -6t-6 -15v-90q0 -7 6 -12.5t14 -5.5h52q8 0 13 5t5 13v90q0 9 -5 15t-13 6h-52zM899 211q-8 0 -13 -6 t-5 -15v-90q0 -8 5.5 -13t12.5 -5h51q8 0 14.5 5.5t6.5 12.5v90q0 9 -6.5 15t-14.5 6h-51zM1102 211q-8 0 -13.5 -6t-5.5 -15v-90q0 -7 5.5 -12.5t13.5 -5.5h53q8 0 13.5 5.5t5.5 12.5v90q0 9 -5.5 15t-13.5 6h-53zM1307 211q-8 0 -14.5 -6t-6.5 -15v-90q0 -7 6.5 -12.5 t14.5 -5.5h51q8 0 14 5.5t6 12.5v90q0 9 -6 15t-14 6h-51zM1509 211q-8 0 -13 -6t-5 -15v-90q0 -8 5.5 -13t12.5 -5h54q7 0 12.5 5t5.5 13v90q0 9 -5 15t-13 6h-54z" />
<glyph unicode="g" d="M807 1096q134 0 203 -63.5t98 -198.5h-170q-23 100 -131 100q-87 0 -130.5 -52.5t-43.5 -142.5q0 -89 43 -141.5t131 -52.5q74 0 127 39v43h-176v164h352v-293q-150 -119 -297 -119q-160 0 -258 98t-98 258t95.5 260.5t254.5 100.5zM0 1489h694q17 -31 47 -49.5t64 -18.5 q35 0 65.5 18.5t47.5 49.5h704v-1489h-1622v1489zM88 1409q-8 0 -14 -6.5t-6 -13.5v-91q0 -7 6 -12.5t14 -5.5h51q8 0 13.5 5.5t5.5 12.5v91q0 8 -6 14t-13 6h-51zM291 1409q-7 0 -13 -6t-6 -14v-91q0 -7 5.5 -12.5t13.5 -5.5h53q8 0 13 5t5 13v91q0 8 -5.5 14t-12.5 6h-53z M496 1409q-8 0 -14.5 -6.5t-6.5 -13.5v-91q0 -7 6.5 -12.5t14.5 -5.5h51q7 0 12.5 5t5.5 13v91q0 8 -5.5 14t-12.5 6h-51zM698 1409q-7 0 -12.5 -6t-5.5 -14v-91q0 -8 5 -13t13 -5h52q8 0 14 5.5t6 12.5v91q0 7 -6 13.5t-14 6.5h-52zM901 1409q-7 0 -12.5 -6t-5.5 -14v-91 q0 -8 5.5 -13t12.5 -5h53q8 0 13.5 5.5t5.5 12.5v91q0 8 -6 14t-13 6h-53zM1106 1409q-8 0 -14.5 -6.5t-6.5 -13.5v-91q0 -7 6.5 -12.5t14.5 -5.5h51q8 0 14.5 5.5t6.5 12.5v91q0 7 -6.5 13.5t-14.5 6.5h-51zM1309 1409q-7 0 -13 -6t-6 -14v-91q0 -7 5.5 -12.5t13.5 -5.5h53 q8 0 13 5t5 13v91q0 8 -5.5 14t-12.5 6h-53zM1513 1409q-7 0 -13.5 -6.5t-6.5 -13.5v-91q0 -7 6 -12.5t14 -5.5h52q7 0 12.5 5t5.5 13v91q0 8 -5.5 14t-12.5 6h-52zM74 1255q-15 0 -27 -11.5t-12 -26.5v-938q0 -15 12 -26t27 -11h1474q15 0 27 11t12 26v938q0 15 -12 26.5 t-27 11.5h-1474zM84 211q-8 0 -13 -6t-5 -15v-90q0 -8 5 -13t13 -5h53q8 0 13.5 5.5t5.5 12.5v90q0 9 -5.5 15t-13.5 6h-53zM289 211q-8 0 -14.5 -6t-6.5 -15v-90q0 -7 6.5 -12.5t14.5 -5.5h51q8 0 14 5.5t6 12.5v90q0 9 -6 15t-14 6h-51zM492 211q-8 0 -13.5 -6t-5.5 -15 v-90q0 -7 5.5 -12.5t13.5 -5.5h53q7 0 12.5 5t5.5 13v90q0 9 -5 15t-13 6h-53zM696 211q-8 0 -14 -6t-6 -15v-90q0 -7 6 -12.5t14 -5.5h52q8 0 13 5t5 13v90q0 9 -5 15t-13 6h-52zM899 211q-8 0 -13 -6t-5 -15v-90q0 -8 5.5 -13t12.5 -5h51q8 0 14.5 5.5t6.5 12.5v90 q0 9 -6.5 15t-14.5 6h-51zM1102 211q-8 0 -13.5 -6t-5.5 -15v-90q0 -7 5.5 -12.5t13.5 -5.5h53q8 0 13.5 5.5t5.5 12.5v90q0 9 -5.5 15t-13.5 6h-53zM1307 211q-8 0 -14.5 -6t-6.5 -15v-90q0 -7 6.5 -12.5t14.5 -5.5h51q8 0 14 5.5t6 12.5v90q0 9 -6 15t-14 6h-51zM1509 211 q-8 0 -13 -6t-5 -15v-90q0 -8 5.5 -13t12.5 -5h54q7 0 12.5 5t5.5 13v90q0 9 -5 15t-13 6h-54z" />
<glyph unicode="h" d="M702 670v-291h-182v717h182v-256h218v256h182v-717h-182v291h-218zM0 1489h694q17 -31 47 -49.5t64 -18.5q35 0 65.5 18.5t47.5 49.5h704v-1489h-1622v1489zM88 1409q-8 0 -14 -5.5t-6 -14.5v-91q0 -7 6 -12.5t14 -5.5h51q8 0 13.5 5.5t5.5 12.5v91q0 9 -5.5 14.5 t-13.5 5.5h-51zM291 1409q-8 0 -13.5 -5.5t-5.5 -14.5v-91q0 -7 5.5 -12.5t13.5 -5.5h53q8 0 13 5t5 13v91q0 20 -18 20h-53zM496 1409q-21 0 -21 -20v-91q0 -8 6 -13t15 -5h51q7 0 12.5 5t5.5 13v91q0 20 -18 20h-51zM698 1409q-18 0 -18 -20v-91q0 -8 5 -13t13 -5h52 q8 0 14 5.5t6 12.5v91q0 9 -6 14.5t-14 5.5h-52zM901 1409q-18 0 -18 -20v-91q0 -8 5.5 -13t12.5 -5h53q8 0 13.5 5.5t5.5 12.5v91q0 9 -5.5 14.5t-13.5 5.5h-53zM1106 1409q-8 0 -14.5 -5.5t-6.5 -14.5v-91q0 -7 6.5 -12.5t14.5 -5.5h51q8 0 14.5 5.5t6.5 12.5v91 q0 9 -6.5 14.5t-14.5 5.5h-51zM1309 1409q-8 0 -13.5 -5.5t-5.5 -14.5v-91q0 -7 5.5 -12.5t13.5 -5.5h53q8 0 13 5t5 13v91q0 20 -18 20h-53zM1513 1409q-8 0 -14 -5.5t-6 -14.5v-91q0 -7 6 -12.5t14 -5.5h52q7 0 12.5 5t5.5 13v91q0 20 -18 20h-52zM74 1255 q-15 0 -27 -11.5t-12 -26.5v-938q0 -15 12 -26t27 -11h1474q15 0 27 11t12 26v938q0 15 -12 26.5t-27 11.5h-1474zM84 211q-8 0 -13 -6t-5 -15v-90q0 -8 5 -13t13 -5h53q8 0 13.5 5.5t5.5 12.5v90q0 9 -5.5 15t-13.5 6h-53zM289 211q-8 0 -14.5 -6t-6.5 -15v-90 q0 -7 6.5 -12.5t14.5 -5.5h51q8 0 14 5.5t6 12.5v90q0 9 -6 15t-14 6h-51zM492 211q-8 0 -13.5 -6t-5.5 -15v-90q0 -7 5.5 -12.5t13.5 -5.5h53q7 0 12.5 5t5.5 13v90q0 9 -5 15t-13 6h-53zM696 211q-8 0 -14 -6t-6 -15v-90q0 -7 6 -12.5t14 -5.5h52q8 0 13 5t5 13v90 q0 9 -5 15t-13 6h-52zM899 211q-8 0 -13 -6t-5 -15v-90q0 -8 5.5 -13t12.5 -5h51q8 0 14.5 5.5t6.5 12.5v90q0 9 -6.5 15t-14.5 6h-51zM1102 211q-8 0 -13.5 -6t-5.5 -15v-90q0 -7 5.5 -12.5t13.5 -5.5h53q8 0 13.5 5.5t5.5 12.5v90q0 9 -5.5 15t-13.5 6h-53zM1307 211 q-8 0 -14.5 -6t-6.5 -15v-90q0 -7 6.5 -12.5t14.5 -5.5h51q8 0 14 5.5t6 12.5v90q0 9 -6 15t-14 6h-51zM1509 211q-8 0 -13 -6t-5 -15v-90q0 -8 5.5 -13t12.5 -5h54q7 0 12.5 5t5.5 13v90q0 9 -5 15t-13 6h-54z" />
<glyph unicode="i" d="M895 1096v-717h-182v717h182zM0 1489h694q17 -31 47 -49.5t64 -18.5q35 0 65.5 18.5t47.5 49.5h704v-1489h-1622v1489zM88 1409q-8 0 -14 -5.5t-6 -14.5v-91q0 -7 6 -12.5t14 -5.5h51q8 0 13.5 5.5t5.5 12.5v91q0 9 -5.5 14.5t-13.5 5.5h-51zM291 1409q-8 0 -13.5 -5.5 t-5.5 -14.5v-91q0 -7 5.5 -12.5t13.5 -5.5h53q8 0 13 5t5 13v91q0 20 -18 20h-53zM496 1409q-21 0 -21 -20v-91q0 -8 6 -13t15 -5h51q7 0 12.5 5t5.5 13v91q0 20 -18 20h-51zM698 1409q-18 0 -18 -20v-91q0 -8 5 -13t13 -5h52q8 0 14 5.5t6 12.5v91q0 9 -6 14.5t-14 5.5h-52 zM901 1409q-18 0 -18 -20v-91q0 -8 5.5 -13t12.5 -5h53q8 0 13.5 5.5t5.5 12.5v91q0 9 -5.5 14.5t-13.5 5.5h-53zM1106 1409q-8 0 -14.5 -5.5t-6.5 -14.5v-91q0 -7 6.5 -12.5t14.5 -5.5h51q8 0 14.5 5.5t6.5 12.5v91q0 9 -6.5 14.5t-14.5 5.5h-51zM1309 1409 q-8 0 -13.5 -5.5t-5.5 -14.5v-91q0 -7 5.5 -12.5t13.5 -5.5h53q8 0 13 5t5 13v91q0 20 -18 20h-53zM1513 1409q-8 0 -14 -5.5t-6 -14.5v-91q0 -7 6 -12.5t14 -5.5h52q7 0 12.5 5t5.5 13v91q0 20 -18 20h-52zM74 1255q-15 0 -27 -11.5t-12 -26.5v-938q0 -15 12 -26t27 -11 h1474q15 0 27 11t12 26v938q0 15 -12 26.5t-27 11.5h-1474zM84 211q-8 0 -13 -6t-5 -15v-90q0 -8 5 -13t13 -5h53q8 0 13.5 5.5t5.5 12.5v90q0 9 -5.5 15t-13.5 6h-53zM289 211q-8 0 -14.5 -6t-6.5 -15v-90q0 -7 6.5 -12.5t14.5 -5.5h51q8 0 14 5.5t6 12.5v90q0 9 -6 15 t-14 6h-51zM492 211q-8 0 -13.5 -6t-5.5 -15v-90q0 -7 5.5 -12.5t13.5 -5.5h53q7 0 12.5 5t5.5 13v90q0 9 -5 15t-13 6h-53zM696 211q-8 0 -14 -6t-6 -15v-90q0 -7 6 -12.5t14 -5.5h52q8 0 13 5t5 13v90q0 9 -5 15t-13 6h-52zM899 211q-8 0 -13 -6t-5 -15v-90q0 -8 5.5 -13 t12.5 -5h51q8 0 14.5 5.5t6.5 12.5v90q0 9 -6.5 15t-14.5 6h-51zM1102 211q-8 0 -13.5 -6t-5.5 -15v-90q0 -7 5.5 -12.5t13.5 -5.5h53q8 0 13.5 5.5t5.5 12.5v90q0 9 -5.5 15t-13.5 6h-53zM1307 211q-8 0 -14.5 -6t-6.5 -15v-90q0 -7 6.5 -12.5t14.5 -5.5h51q8 0 14 5.5 t6 12.5v90q0 9 -6 15t-14 6h-51zM1509 211q-8 0 -13 -6t-5 -15v-90q0 -8 5.5 -13t12.5 -5h54q7 0 12.5 5t5.5 13v90q0 9 -5 15t-13 6h-54z" />
<glyph unicode="j" d="M776 379q-106 0 -157.5 62.5t-51.5 170.5v41l164 23q0 -3 -1 -26t0 -35.5t4.5 -31t13.5 -27.5t26 -9q26 0 34.5 14t8.5 41v494h178v-463q0 -117 -52.5 -185.5t-166.5 -68.5zM0 1489h694q17 -31 47 -49.5t64 -18.5q35 0 65.5 18.5t47.5 49.5h704v-1489h-1622v1489z M88 1409q-8 0 -14 -5.5t-6 -14.5v-91q0 -7 6 -12.5t14 -5.5h51q8 0 13.5 5.5t5.5 12.5v91q0 9 -5.5 14.5t-13.5 5.5h-51zM291 1409q-8 0 -13.5 -5.5t-5.5 -14.5v-91q0 -7 5.5 -12.5t13.5 -5.5h53q8 0 13 5t5 13v91q0 20 -18 20h-53zM496 1409q-21 0 -21 -20v-91q0 -8 6 -13 t15 -5h51q7 0 12.5 5t5.5 13v91q0 20 -18 20h-51zM698 1409q-18 0 -18 -20v-91q0 -8 5 -13t13 -5h52q8 0 14 5.5t6 12.5v91q0 9 -6 14.5t-14 5.5h-52zM901 1409q-18 0 -18 -20v-91q0 -8 5.5 -13t12.5 -5h53q8 0 13.5 5.5t5.5 12.5v91q0 9 -5.5 14.5t-13.5 5.5h-53z M1106 1409q-8 0 -14.5 -5.5t-6.5 -14.5v-91q0 -7 6.5 -12.5t14.5 -5.5h51q8 0 14.5 5.5t6.5 12.5v91q0 9 -6.5 14.5t-14.5 5.5h-51zM1309 1409q-8 0 -13.5 -5.5t-5.5 -14.5v-91q0 -7 5.5 -12.5t13.5 -5.5h53q8 0 13 5t5 13v91q0 20 -18 20h-53zM1513 1409q-8 0 -14 -5.5 t-6 -14.5v-91q0 -7 6 -12.5t14 -5.5h52q7 0 12.5 5t5.5 13v91q0 20 -18 20h-52zM74 1255q-15 0 -27 -11.5t-12 -26.5v-938q0 -15 12 -26t27 -11h1474q15 0 27 11t12 26v938q0 15 -12 26.5t-27 11.5h-1474zM84 211q-8 0 -13 -6t-5 -15v-90q0 -8 5 -13t13 -5h53q8 0 13.5 5.5 t5.5 12.5v90q0 9 -5.5 15t-13.5 6h-53zM289 211q-8 0 -14.5 -6t-6.5 -15v-90q0 -7 6.5 -12.5t14.5 -5.5h51q8 0 14 5.5t6 12.5v90q0 9 -6 15t-14 6h-51zM492 211q-8 0 -13.5 -6t-5.5 -15v-90q0 -7 5.5 -12.5t13.5 -5.5h53q7 0 12.5 5t5.5 13v90q0 9 -5 15t-13 6h-53z M696 211q-8 0 -14 -6t-6 -15v-90q0 -7 6 -12.5t14 -5.5h52q8 0 13 5t5 13v90q0 9 -5 15t-13 6h-52zM899 211q-8 0 -13 -6t-5 -15v-90q0 -8 5.5 -13t12.5 -5h51q8 0 14.5 5.5t6.5 12.5v90q0 9 -6.5 15t-14.5 6h-51zM1102 211q-8 0 -13.5 -6t-5.5 -15v-90q0 -7 5.5 -12.5 t13.5 -5.5h53q8 0 13.5 5.5t5.5 12.5v90q0 9 -5.5 15t-13.5 6h-53zM1307 211q-8 0 -14.5 -6t-6.5 -15v-90q0 -7 6.5 -12.5t14.5 -5.5h51q8 0 14 5.5t6 12.5v90q0 9 -6 15t-14 6h-51zM1509 211q-8 0 -13 -6t-5 -15v-90q0 -8 5.5 -13t12.5 -5h54q7 0 12.5 5t5.5 13v90 q0 9 -5 15t-13 6h-54z" />
<glyph unicode="k" d="M664 621v-242h-183v717h183v-240l243 240h252l-317 -305l305 -412h-229l-207 289zM0 1489h694q17 -31 47 -49.5t64 -18.5q35 0 65.5 18.5t47.5 49.5h704v-1489h-1622v1489zM88 1409q-8 0 -14 -5.5t-6 -14.5v-91q0 -7 6 -12.5t14 -5.5h51q8 0 13.5 5.5t5.5 12.5v91 q0 9 -5.5 14.5t-13.5 5.5h-51zM291 1409q-8 0 -13.5 -5.5t-5.5 -14.5v-91q0 -7 5.5 -12.5t13.5 -5.5h53q8 0 13 5t5 13v91q0 20 -18 20h-53zM496 1409q-21 0 -21 -20v-91q0 -8 6 -13t15 -5h51q7 0 12.5 5t5.5 13v91q0 20 -18 20h-51zM698 1409q-18 0 -18 -20v-91q0 -8 5 -13 t13 -5h52q8 0 14 5.5t6 12.5v91q0 9 -6 14.5t-14 5.5h-52zM901 1409q-18 0 -18 -20v-91q0 -8 5.5 -13t12.5 -5h53q8 0 13.5 5.5t5.5 12.5v91q0 9 -5.5 14.5t-13.5 5.5h-53zM1106 1409q-8 0 -14.5 -5.5t-6.5 -14.5v-91q0 -7 6.5 -12.5t14.5 -5.5h51q8 0 14.5 5.5t6.5 12.5v91 q0 9 -6.5 14.5t-14.5 5.5h-51zM1309 1409q-8 0 -13.5 -5.5t-5.5 -14.5v-91q0 -7 5.5 -12.5t13.5 -5.5h53q8 0 13 5t5 13v91q0 20 -18 20h-53zM1513 1409q-8 0 -14 -5.5t-6 -14.5v-91q0 -7 6 -12.5t14 -5.5h52q7 0 12.5 5t5.5 13v91q0 20 -18 20h-52zM74 1255 q-15 0 -27 -11.5t-12 -26.5v-938q0 -15 12 -26t27 -11h1474q15 0 27 11t12 26v938q0 15 -12 26.5t-27 11.5h-1474zM84 211q-8 0 -13 -6t-5 -15v-90q0 -8 5 -13t13 -5h53q8 0 13.5 5.5t5.5 12.5v90q0 9 -5.5 15t-13.5 6h-53zM289 211q-8 0 -14.5 -6t-6.5 -15v-90 q0 -7 6.5 -12.5t14.5 -5.5h51q8 0 14 5.5t6 12.5v90q0 9 -6 15t-14 6h-51zM492 211q-8 0 -13.5 -6t-5.5 -15v-90q0 -7 5.5 -12.5t13.5 -5.5h53q7 0 12.5 5t5.5 13v90q0 9 -5 15t-13 6h-53zM696 211q-8 0 -14 -6t-6 -15v-90q0 -7 6 -12.5t14 -5.5h52q8 0 13 5t5 13v90 q0 9 -5 15t-13 6h-52zM899 211q-8 0 -13 -6t-5 -15v-90q0 -8 5.5 -13t12.5 -5h51q8 0 14.5 5.5t6.5 12.5v90q0 9 -6.5 15t-14.5 6h-51zM1102 211q-8 0 -13.5 -6t-5.5 -15v-90q0 -7 5.5 -12.5t13.5 -5.5h53q8 0 13.5 5.5t5.5 12.5v90q0 9 -5.5 15t-13.5 6h-53zM1307 211 q-8 0 -14.5 -6t-6.5 -15v-90q0 -7 6.5 -12.5t14.5 -5.5h51q8 0 14 5.5t6 12.5v90q0 9 -6 15t-14 6h-51zM1509 211q-8 0 -13 -6t-5 -15v-90q0 -8 5.5 -13t12.5 -5h54q7 0 12.5 5t5.5 13v90q0 9 -5 15t-13 6h-54z" />
<glyph unicode="l" d="M748 1096v-547h303v-170h-486v717h183zM0 1489h694q17 -31 47 -49.5t64 -18.5q35 0 65.5 18.5t47.5 49.5h704v-1489h-1622v1489zM88 1409q-8 0 -14 -5.5t-6 -14.5v-91q0 -7 6 -12.5t14 -5.5h51q8 0 13.5 5.5t5.5 12.5v91q0 9 -5.5 14.5t-13.5 5.5h-51zM291 1409 q-8 0 -13.5 -5.5t-5.5 -14.5v-91q0 -7 5.5 -12.5t13.5 -5.5h53q8 0 13 5t5 13v91q0 20 -18 20h-53zM496 1409q-21 0 -21 -20v-91q0 -8 6 -13t15 -5h51q7 0 12.5 5t5.5 13v91q0 20 -18 20h-51zM698 1409q-18 0 -18 -20v-91q0 -8 5 -13t13 -5h52q8 0 14 5.5t6 12.5v91 q0 9 -6 14.5t-14 5.5h-52zM901 1409q-18 0 -18 -20v-91q0 -8 5.5 -13t12.5 -5h53q8 0 13.5 5.5t5.5 12.5v91q0 9 -5.5 14.5t-13.5 5.5h-53zM1106 1409q-8 0 -14.5 -5.5t-6.5 -14.5v-91q0 -7 6.5 -12.5t14.5 -5.5h51q8 0 14.5 5.5t6.5 12.5v91q0 9 -6.5 14.5t-14.5 5.5h-51z M1309 1409q-8 0 -13.5 -5.5t-5.5 -14.5v-91q0 -7 5.5 -12.5t13.5 -5.5h53q8 0 13 5t5 13v91q0 20 -18 20h-53zM1513 1409q-8 0 -14 -5.5t-6 -14.5v-91q0 -7 6 -12.5t14 -5.5h52q7 0 12.5 5t5.5 13v91q0 20 -18 20h-52zM74 1255q-15 0 -27 -11.5t-12 -26.5v-938q0 -15 12 -26 t27 -11h1474q15 0 27 11t12 26v938q0 15 -12 26.5t-27 11.5h-1474zM84 211q-8 0 -13 -6t-5 -15v-90q0 -8 5 -13t13 -5h53q8 0 13.5 5.5t5.5 12.5v90q0 9 -5.5 15t-13.5 6h-53zM289 211q-8 0 -14.5 -6t-6.5 -15v-90q0 -7 6.5 -12.5t14.5 -5.5h51q8 0 14 5.5t6 12.5v90 q0 9 -6 15t-14 6h-51zM492 211q-8 0 -13.5 -6t-5.5 -15v-90q0 -7 5.5 -12.5t13.5 -5.5h53q7 0 12.5 5t5.5 13v90q0 9 -5 15t-13 6h-53zM696 211q-8 0 -14 -6t-6 -15v-90q0 -7 6 -12.5t14 -5.5h52q8 0 13 5t5 13v90q0 9 -5 15t-13 6h-52zM899 211q-8 0 -13 -6t-5 -15v-90 q0 -8 5.5 -13t12.5 -5h51q8 0 14.5 5.5t6.5 12.5v90q0 9 -6.5 15t-14.5 6h-51zM1102 211q-8 0 -13.5 -6t-5.5 -15v-90q0 -7 5.5 -12.5t13.5 -5.5h53q8 0 13.5 5.5t5.5 12.5v90q0 9 -5.5 15t-13.5 6h-53zM1307 211q-8 0 -14.5 -6t-6.5 -15v-90q0 -7 6.5 -12.5t14.5 -5.5h51 q8 0 14 5.5t6 12.5v90q0 9 -6 15t-14 6h-51zM1509 211q-8 0 -13 -6t-5 -15v-90q0 -8 5.5 -13t12.5 -5h54q7 0 12.5 5t5.5 13v90q0 9 -5 15t-13 6h-54z" />
<glyph unicode="m" d="M811 666l147 430h189v-717h-170v283l-98 -283h-146l-96 289v-289h-182v717h213zM0 1489h694q17 -31 47 -49.5t64 -18.5q35 0 65.5 18.5t47.5 49.5h704v-1489h-1622v1489zM88 1409q-8 0 -14 -5.5t-6 -14.5v-91q0 -7 6 -12.5t14 -5.5h51q8 0 13.5 5.5t5.5 12.5v91 q0 9 -5.5 14.5t-13.5 5.5h-51zM291 1409q-8 0 -13.5 -5.5t-5.5 -14.5v-91q0 -7 5.5 -12.5t13.5 -5.5h53q8 0 13 5t5 13v91q0 20 -18 20h-53zM496 1409q-21 0 -21 -20v-91q0 -8 6 -13t15 -5h51q7 0 12.5 5t5.5 13v91q0 20 -18 20h-51zM698 1409q-18 0 -18 -20v-91q0 -8 5 -13 t13 -5h52q8 0 14 5.5t6 12.5v91q0 9 -6 14.5t-14 5.5h-52zM901 1409q-18 0 -18 -20v-91q0 -8 5.5 -13t12.5 -5h53q8 0 13.5 5.5t5.5 12.5v91q0 9 -5.5 14.5t-13.5 5.5h-53zM1106 1409q-8 0 -14.5 -5.5t-6.5 -14.5v-91q0 -7 6.5 -12.5t14.5 -5.5h51q8 0 14.5 5.5t6.5 12.5v91 q0 9 -6.5 14.5t-14.5 5.5h-51zM1309 1409q-8 0 -13.5 -5.5t-5.5 -14.5v-91q0 -7 5.5 -12.5t13.5 -5.5h53q8 0 13 5t5 13v91q0 20 -18 20h-53zM1513 1409q-8 0 -14 -5.5t-6 -14.5v-91q0 -7 6 -12.5t14 -5.5h52q7 0 12.5 5t5.5 13v91q0 20 -18 20h-52zM74 1255 q-15 0 -27 -11.5t-12 -26.5v-938q0 -15 12 -26t27 -11h1474q15 0 27 11t12 26v938q0 15 -12 26.5t-27 11.5h-1474zM84 211q-8 0 -13 -6t-5 -15v-90q0 -8 5 -13t13 -5h53q8 0 13.5 5.5t5.5 12.5v90q0 9 -5.5 15t-13.5 6h-53zM289 211q-8 0 -14.5 -6t-6.5 -15v-90 q0 -7 6.5 -12.5t14.5 -5.5h51q8 0 14 5.5t6 12.5v90q0 9 -6 15t-14 6h-51zM492 211q-8 0 -13.5 -6t-5.5 -15v-90q0 -7 5.5 -12.5t13.5 -5.5h53q7 0 12.5 5t5.5 13v90q0 9 -5 15t-13 6h-53zM696 211q-8 0 -14 -6t-6 -15v-90q0 -7 6 -12.5t14 -5.5h52q8 0 13 5t5 13v90 q0 9 -5 15t-13 6h-52zM899 211q-8 0 -13 -6t-5 -15v-90q0 -8 5.5 -13t12.5 -5h51q8 0 14.5 5.5t6.5 12.5v90q0 9 -6.5 15t-14.5 6h-51zM1102 211q-8 0 -13.5 -6t-5.5 -15v-90q0 -7 5.5 -12.5t13.5 -5.5h53q8 0 13.5 5.5t5.5 12.5v90q0 9 -5.5 15t-13.5 6h-53zM1307 211 q-8 0 -14.5 -6t-6.5 -15v-90q0 -7 6.5 -12.5t14.5 -5.5h51q8 0 14 5.5t6 12.5v90q0 9 -6 15t-14 6h-51zM1509 211q-8 0 -13 -6t-5 -15v-90q0 -8 5.5 -13t12.5 -5h54q7 0 12.5 5t5.5 13v90q0 9 -5 15t-13 6h-54z" />
<glyph unicode="n" d="M926 717v379h182v-717h-164l-248 379v-379h-182v717h160zM0 1489h694q17 -31 47 -49.5t64 -18.5q35 0 65.5 18.5t47.5 49.5h704v-1489h-1622v1489zM88 1409q-8 0 -14 -5.5t-6 -14.5v-91q0 -7 6 -12.5t14 -5.5h51q8 0 13.5 5.5t5.5 12.5v91q0 9 -5.5 14.5t-13.5 5.5h-51z M291 1409q-8 0 -13.5 -5.5t-5.5 -14.5v-91q0 -7 5.5 -12.5t13.5 -5.5h53q8 0 13 5t5 13v91q0 20 -18 20h-53zM496 1409q-21 0 -21 -20v-91q0 -8 6 -13t15 -5h51q7 0 12.5 5t5.5 13v91q0 20 -18 20h-51zM698 1409q-18 0 -18 -20v-91q0 -8 5 -13t13 -5h52q8 0 14 5.5t6 12.5 v91q0 9 -6 14.5t-14 5.5h-52zM901 1409q-18 0 -18 -20v-91q0 -8 5.5 -13t12.5 -5h53q8 0 13.5 5.5t5.5 12.5v91q0 9 -5.5 14.5t-13.5 5.5h-53zM1106 1409q-8 0 -14.5 -5.5t-6.5 -14.5v-91q0 -7 6.5 -12.5t14.5 -5.5h51q8 0 14.5 5.5t6.5 12.5v91q0 9 -6.5 14.5t-14.5 5.5 h-51zM1309 1409q-8 0 -13.5 -5.5t-5.5 -14.5v-91q0 -7 5.5 -12.5t13.5 -5.5h53q8 0 13 5t5 13v91q0 20 -18 20h-53zM1513 1409q-8 0 -14 -5.5t-6 -14.5v-91q0 -7 6 -12.5t14 -5.5h52q7 0 12.5 5t5.5 13v91q0 20 -18 20h-52zM74 1255q-15 0 -27 -11.5t-12 -26.5v-938 q0 -15 12 -26t27 -11h1474q15 0 27 11t12 26v938q0 15 -12 26.5t-27 11.5h-1474zM84 211q-8 0 -13 -6t-5 -15v-90q0 -8 5 -13t13 -5h53q8 0 13.5 5.5t5.5 12.5v90q0 9 -5.5 15t-13.5 6h-53zM289 211q-8 0 -14.5 -6t-6.5 -15v-90q0 -7 6.5 -12.5t14.5 -5.5h51q8 0 14 5.5 t6 12.5v90q0 9 -6 15t-14 6h-51zM492 211q-8 0 -13.5 -6t-5.5 -15v-90q0 -7 5.5 -12.5t13.5 -5.5h53q7 0 12.5 5t5.5 13v90q0 9 -5 15t-13 6h-53zM696 211q-8 0 -14 -6t-6 -15v-90q0 -7 6 -12.5t14 -5.5h52q8 0 13 5t5 13v90q0 9 -5 15t-13 6h-52zM899 211q-8 0 -13 -6 t-5 -15v-90q0 -8 5.5 -13t12.5 -5h51q8 0 14.5 5.5t6.5 12.5v90q0 9 -6.5 15t-14.5 6h-51zM1102 211q-8 0 -13.5 -6t-5.5 -15v-90q0 -7 5.5 -12.5t13.5 -5.5h53q8 0 13.5 5.5t5.5 12.5v90q0 9 -5.5 15t-13.5 6h-53zM1307 211q-8 0 -14.5 -6t-6.5 -15v-90q0 -7 6.5 -12.5 t14.5 -5.5h51q8 0 14 5.5t6 12.5v90q0 9 -6 15t-14 6h-51zM1509 211q-8 0 -13 -6t-5 -15v-90q0 -8 5.5 -13t12.5 -5h54q7 0 12.5 5t5.5 13v90q0 9 -5 15t-13 6h-54z" />
<glyph unicode="o" d="M969 737q0 -84 -39.5 -140t-120.5 -56q-77 0 -117.5 54t-40.5 134q0 90 37.5 147.5t122.5 57.5q80 0 119 -56.5t39 -140.5zM1145 737q0 154 -91.5 256.5t-242.5 102.5q-157 0 -246.5 -104t-89.5 -263q0 -149 93 -249.5t243 -100.5q152 0 243 101.5t91 256.5zM156 100v90 q0 9 -5.5 15t-13.5 6h-53q-8 0 -13 -6t-5 -15v-90q0 -8 5 -13t13 -5h53q8 0 13.5 5.5t5.5 12.5zM360 100v90q0 9 -6 15t-14 6h-51q-8 0 -14.5 -6t-6.5 -15v-90q0 -7 6.5 -12.5t14.5 -5.5h51q8 0 14 5.5t6 12.5zM563 100v90q0 9 -5 15t-13 6h-53q-8 0 -13.5 -6t-5.5 -15v-90 q0 -7 5.5 -12.5t13.5 -5.5h53q7 0 12.5 5t5.5 13zM766 100v90q0 9 -5 15t-13 6h-52q-8 0 -14 -6t-6 -15v-90q0 -7 6 -12.5t14 -5.5h52q8 0 13 5t5 13zM971 100v90q0 9 -6.5 15t-14.5 6h-51q-8 0 -13 -6t-5 -15v-90q0 -8 5.5 -13t12.5 -5h51q8 0 14.5 5.5t6.5 12.5zM1174 100 v90q0 9 -5.5 15t-13.5 6h-53q-8 0 -13.5 -6t-5.5 -15v-90q0 -7 5.5 -12.5t13.5 -5.5h53q8 0 13.5 5.5t5.5 12.5zM158 1298v91q0 9 -5.5 14.5t-13.5 5.5h-51q-8 0 -14 -5.5t-6 -14.5v-91q0 -7 6 -12.5t14 -5.5h51q8 0 13.5 5.5t5.5 12.5zM1378 100v90q0 9 -6 15t-14 6h-51 q-8 0 -14.5 -6t-6.5 -15v-90q0 -7 6.5 -12.5t14.5 -5.5h51q8 0 14 5.5t6 12.5zM1587 279v938q0 15 -12 26.5t-27 11.5h-1474q-15 0 -27 -11.5t-12 -26.5v-938q0 -15 12 -26t27 -11h1474q15 0 27 11t12 26zM362 1298v91q0 20 -18 20h-53q-8 0 -13.5 -5.5t-5.5 -14.5v-91 q0 -7 5.5 -12.5t13.5 -5.5h53q8 0 13 5t5 13zM1581 100v90q0 9 -5 15t-13 6h-54q-8 0 -13 -6t-5 -15v-90q0 -8 5.5 -13t12.5 -5h54q7 0 12.5 5t5.5 13zM565 1298v91q0 20 -18 20h-51q-21 0 -21 -20v-91q0 -8 6 -13t15 -5h51q7 0 12.5 5t5.5 13zM770 1298v91q0 9 -6 14.5 t-14 5.5h-52q-18 0 -18 -20v-91q0 -8 5 -13t13 -5h52q8 0 14 5.5t6 12.5zM973 1298v91q0 9 -5.5 14.5t-13.5 5.5h-53q-18 0 -18 -20v-91q0 -8 5.5 -13t12.5 -5h53q8 0 13.5 5.5t5.5 12.5zM1178 1298v91q0 9 -6.5 14.5t-14.5 5.5h-51q-8 0 -14.5 -5.5t-6.5 -14.5v-91 q0 -7 6.5 -12.5t14.5 -5.5h51q8 0 14.5 5.5t6.5 12.5zM1380 1298v91q0 20 -18 20h-53q-8 0 -13.5 -5.5t-5.5 -14.5v-91q0 -7 5.5 -12.5t13.5 -5.5h53q8 0 13 5t5 13zM1583 1298v91q0 20 -18 20h-52q-8 0 -14 -5.5t-6 -14.5v-91q0 -7 6 -12.5t14 -5.5h52q7 0 12.5 5t5.5 13z M1622 1489v-1489h-1622v1489h694q17 -31 47 -49.5t64 -18.5q35 0 65.5 18.5t47.5 49.5h704z" />
<glyph unicode="p" d="M831 1096q128 0 206.5 -53.5t78.5 -176.5q0 -38 -8 -70t-19.5 -54.5t-33.5 -40.5t-40.5 -29.5t-51 -19.5t-54 -12t-60 -6t-59 -2.5t-60.5 -0.5h-7v-252h-166v717h274zM840 797q29 0 47.5 3.5t33.5 19t15 44.5q0 40 -22.5 52t-65.5 12h-125v-131h117zM0 1489h694 q17 -31 47 -49.5t64 -18.5q35 0 65.5 18.5t47.5 49.5h704v-1489h-1622v1489zM88 1409q-8 0 -14 -5.5t-6 -14.5v-91q0 -7 6 -12.5t14 -5.5h51q8 0 13.5 5.5t5.5 12.5v91q0 9 -5.5 14.5t-13.5 5.5h-51zM291 1409q-8 0 -13.5 -5.5t-5.5 -14.5v-91q0 -7 5.5 -12.5t13.5 -5.5h53 q8 0 13 5t5 13v91q0 20 -18 20h-53zM496 1409q-21 0 -21 -20v-91q0 -8 6 -13t15 -5h51q7 0 12.5 5t5.5 13v91q0 20 -18 20h-51zM698 1409q-18 0 -18 -20v-91q0 -8 5 -13t13 -5h52q8 0 14 5.5t6 12.5v91q0 9 -6 14.5t-14 5.5h-52zM901 1409q-18 0 -18 -20v-91q0 -8 5.5 -13 t12.5 -5h53q8 0 13.5 5.5t5.5 12.5v91q0 9 -5.5 14.5t-13.5 5.5h-53zM1106 1409q-8 0 -14.5 -5.5t-6.5 -14.5v-91q0 -7 6.5 -12.5t14.5 -5.5h51q8 0 14.5 5.5t6.5 12.5v91q0 9 -6.5 14.5t-14.5 5.5h-51zM1309 1409q-8 0 -13.5 -5.5t-5.5 -14.5v-91q0 -7 5.5 -12.5t13.5 -5.5 h53q8 0 13 5t5 13v91q0 20 -18 20h-53zM1513 1409q-8 0 -14 -5.5t-6 -14.5v-91q0 -7 6 -12.5t14 -5.5h52q7 0 12.5 5t5.5 13v91q0 20 -18 20h-52zM74 1255q-15 0 -27 -11.5t-12 -26.5v-938q0 -15 12 -26t27 -11h1474q15 0 27 11t12 26v938q0 15 -12 26.5t-27 11.5h-1474z M84 211q-8 0 -13 -6t-5 -15v-90q0 -8 5 -13t13 -5h53q8 0 13.5 5.5t5.5 12.5v90q0 9 -5.5 15t-13.5 6h-53zM289 211q-8 0 -14.5 -6t-6.5 -15v-90q0 -7 6.5 -12.5t14.5 -5.5h51q8 0 14 5.5t6 12.5v90q0 9 -6 15t-14 6h-51zM492 211q-8 0 -13.5 -6t-5.5 -15v-90 q0 -7 5.5 -12.5t13.5 -5.5h53q7 0 12.5 5t5.5 13v90q0 9 -5 15t-13 6h-53zM696 211q-8 0 -14 -6t-6 -15v-90q0 -7 6 -12.5t14 -5.5h52q8 0 13 5t5 13v90q0 9 -5 15t-13 6h-52zM899 211q-8 0 -13 -6t-5 -15v-90q0 -8 5.5 -13t12.5 -5h51q8 0 14.5 5.5t6.5 12.5v90 q0 9 -6.5 15t-14.5 6h-51zM1102 211q-8 0 -13.5 -6t-5.5 -15v-90q0 -7 5.5 -12.5t13.5 -5.5h53q8 0 13.5 5.5t5.5 12.5v90q0 9 -5.5 15t-13.5 6h-53zM1307 211q-8 0 -14.5 -6t-6.5 -15v-90q0 -7 6.5 -12.5t14.5 -5.5h51q8 0 14 5.5t6 12.5v90q0 9 -6 15t-14 6h-51zM1509 211 q-8 0 -13 -6t-5 -15v-90q0 -8 5.5 -13t12.5 -5h54q7 0 12.5 5t5.5 13v90q0 9 -5 15t-13 6h-54z" />
<glyph unicode="q" d="M0 1489h694q17 -31 47 -49.5t64 -18.5q35 0 65.5 18.5t47.5 49.5h704v-1489h-1622v1489zM88 1409q-8 0 -14 -5.5t-6 -14.5v-91q0 -7 6 -12.5t14 -5.5h51q8 0 13.5 5.5t5.5 12.5v91q0 9 -5.5 14.5t-13.5 5.5h-51zM291 1409q-8 0 -13.5 -5.5t-5.5 -14.5v-91q0 -7 5.5 -12.5 t13.5 -5.5h53q8 0 13 5t5 13v91q0 20 -18 20h-53zM496 1409q-21 0 -21 -20v-91q0 -8 6 -13t15 -5h51q7 0 12.5 5t5.5 13v91q0 20 -18 20h-51zM698 1409q-18 0 -18 -20v-91q0 -8 5 -13t13 -5h52q8 0 14 5.5t6 12.5v91q0 9 -6 14.5t-14 5.5h-52zM901 1409q-18 0 -18 -20v-91 q0 -8 5.5 -13t12.5 -5h53q8 0 13.5 5.5t5.5 12.5v91q0 9 -5.5 14.5t-13.5 5.5h-53zM1106 1409q-8 0 -14.5 -5.5t-6.5 -14.5v-91q0 -7 6.5 -12.5t14.5 -5.5h51q8 0 14.5 5.5t6.5 12.5v91q0 9 -6.5 14.5t-14.5 5.5h-51zM1309 1409q-8 0 -13.5 -5.5t-5.5 -14.5v-91 q0 -7 5.5 -12.5t13.5 -5.5h53q8 0 13 5t5 13v91q0 20 -18 20h-53zM1513 1409q-8 0 -14 -5.5t-6 -14.5v-91q0 -7 6 -12.5t14 -5.5h52q7 0 12.5 5t5.5 13v91q0 20 -18 20h-52zM74 1255q-15 0 -27 -11.5t-12 -26.5v-938q0 -15 12 -26t27 -11h1474q15 0 27 11t12 26v938 q0 15 -12 26.5t-27 11.5h-1474zM84 211q-8 0 -13 -6t-5 -15v-90q0 -8 5 -13t13 -5h53q8 0 13.5 5.5t5.5 12.5v90q0 9 -5.5 15t-13.5 6h-53zM289 211q-8 0 -14.5 -6t-6.5 -15v-90q0 -7 6.5 -12.5t14.5 -5.5h51q8 0 14 5.5t6 12.5v90q0 9 -6 15t-14 6h-51zM492 211 q-8 0 -13.5 -6t-5.5 -15v-90q0 -7 5.5 -12.5t13.5 -5.5h53q7 0 12.5 5t5.5 13v90q0 9 -5 15t-13 6h-53zM696 211q-8 0 -14 -6t-6 -15v-90q0 -7 6 -12.5t14 -5.5h52q8 0 13 5t5 13v90q0 9 -5 15t-13 6h-52zM899 211q-8 0 -13 -6t-5 -15v-90q0 -8 5.5 -13t12.5 -5h51 q8 0 14.5 5.5t6.5 12.5v90q0 9 -6.5 15t-14.5 6h-51zM1102 211q-8 0 -13.5 -6t-5.5 -15v-90q0 -7 5.5 -12.5t13.5 -5.5h53q8 0 13.5 5.5t5.5 12.5v90q0 9 -5.5 15t-13.5 6h-53zM1307 211q-8 0 -14.5 -6t-6.5 -15v-90q0 -7 6.5 -12.5t14.5 -5.5h51q8 0 14 5.5t6 12.5v90 q0 9 -6 15t-14 6h-51zM1509 211q-8 0 -13 -6t-5 -15v-90q0 -8 5.5 -13t12.5 -5h54q7 0 12.5 5t5.5 13v90q0 9 -5 15t-13 6h-54zM961 666l-117 69l-92 -151l69 -43h-12q-79 -3 -118.5 51t-39.5 137q0 90 37.5 147.5t122.5 57.5q80 0 119 -56.5t39 -140.5q0 -40 -8 -71z M1253 485l-141 86q33 73 33 166q0 154 -91.5 256.5t-242.5 102.5q-157 0 -246.5 -104t-89.5 -263q0 -149 93 -249.5t243 -100.5q108 0 186 55l164 -100z" />
<glyph unicode="r" d="M989 692q37 -40 71.5 -92t74 -120t61.5 -101h-217q-3 5 -17.5 29.5t-26.5 44t-30.5 49t-34 52t-32 44.5t-30.5 35t-24 16q-14 4 -43 4h-53v-274h-166v717h316q118 0 192 -52.5t74 -166.5q0 -62 -30 -110.5t-85 -74.5zM821 821q21 0 34.5 1t32.5 6t28.5 17.5t9.5 31.5 q0 51 -84 51h-154v-107h133zM0 1489h694q17 -31 47 -49.5t64 -18.5q35 0 65.5 18.5t47.5 49.5h704v-1489h-1622v1489zM88 1409q-8 0 -14 -5.5t-6 -14.5v-91q0 -7 6 -12.5t14 -5.5h51q8 0 13.5 5.5t5.5 12.5v91q0 9 -5.5 14.5t-13.5 5.5h-51zM291 1409q-8 0 -13.5 -5.5 t-5.5 -14.5v-91q0 -7 5.5 -12.5t13.5 -5.5h53q8 0 13 5t5 13v91q0 20 -18 20h-53zM496 1409q-21 0 -21 -20v-91q0 -8 6 -13t15 -5h51q7 0 12.5 5t5.5 13v91q0 20 -18 20h-51zM698 1409q-18 0 -18 -20v-91q0 -8 5 -13t13 -5h52q8 0 14 5.5t6 12.5v91q0 9 -6 14.5t-14 5.5h-52 zM901 1409q-18 0 -18 -20v-91q0 -8 5.5 -13t12.5 -5h53q8 0 13.5 5.5t5.5 12.5v91q0 9 -5.5 14.5t-13.5 5.5h-53zM1106 1409q-8 0 -14.5 -5.5t-6.5 -14.5v-91q0 -7 6.5 -12.5t14.5 -5.5h51q8 0 14.5 5.5t6.5 12.5v91q0 9 -6.5 14.5t-14.5 5.5h-51zM1309 1409 q-8 0 -13.5 -5.5t-5.5 -14.5v-91q0 -7 5.5 -12.5t13.5 -5.5h53q8 0 13 5t5 13v91q0 20 -18 20h-53zM1513 1409q-8 0 -14 -5.5t-6 -14.5v-91q0 -7 6 -12.5t14 -5.5h52q7 0 12.5 5t5.5 13v91q0 20 -18 20h-52zM74 1255q-15 0 -27 -11.5t-12 -26.5v-938q0 -15 12 -26t27 -11 h1474q15 0 27 11t12 26v938q0 15 -12 26.5t-27 11.5h-1474zM84 211q-8 0 -13 -6t-5 -15v-90q0 -8 5 -13t13 -5h53q8 0 13.5 5.5t5.5 12.5v90q0 9 -5.5 15t-13.5 6h-53zM289 211q-8 0 -14.5 -6t-6.5 -15v-90q0 -7 6.5 -12.5t14.5 -5.5h51q8 0 14 5.5t6 12.5v90q0 9 -6 15 t-14 6h-51zM492 211q-8 0 -13.5 -6t-5.5 -15v-90q0 -7 5.5 -12.5t13.5 -5.5h53q7 0 12.5 5t5.5 13v90q0 9 -5 15t-13 6h-53zM696 211q-8 0 -14 -6t-6 -15v-90q0 -7 6 -12.5t14 -5.5h52q8 0 13 5t5 13v90q0 9 -5 15t-13 6h-52zM899 211q-8 0 -13 -6t-5 -15v-90q0 -8 5.5 -13 t12.5 -5h51q8 0 14.5 5.5t6.5 12.5v90q0 9 -6.5 15t-14.5 6h-51zM1102 211q-8 0 -13.5 -6t-5.5 -15v-90q0 -7 5.5 -12.5t13.5 -5.5h53q8 0 13.5 5.5t5.5 12.5v90q0 9 -5.5 15t-13.5 6h-53zM1307 211q-8 0 -14.5 -6t-6.5 -15v-90q0 -7 6.5 -12.5t14.5 -5.5h51q8 0 14 5.5 t6 12.5v90q0 9 -6 15t-14 6h-51zM1509 211q-8 0 -13 -6t-5 -15v-90q0 -8 5.5 -13t12.5 -5h54q7 0 12.5 5t5.5 13v90q0 9 -5 15t-13 6h-54z" />
<glyph unicode="s" d="M692 672h-168q6 -151 80 -222t225 -71q109 0 190 60.5t81 166.5q0 61 -28 105t-70.5 66t-92 38t-92 23.5t-70.5 19.5t-28 29q0 43 92 43q57 0 78 -20t24 -76h170q-12 262 -274 262q-106 0 -182 -56t-76 -157q0 -51 21 -90t54.5 -60.5t73.5 -37t80.5 -25t74 -18 t54.5 -21.5t21 -31q0 -22 -19.5 -35t-40.5 -16.5t-43 -3.5q-72 0 -101 28t-34 99zM0 1489h694q17 -31 47 -49.5t64 -18.5q35 0 65.5 18.5t47.5 49.5h704v-1489h-1622v1489zM88 1409q-8 0 -14 -5.5t-6 -14.5v-91q0 -7 6 -12.5t14 -5.5h51q8 0 13.5 5.5t5.5 12.5v91 q0 9 -5.5 14.5t-13.5 5.5h-51zM291 1409q-8 0 -13.5 -5.5t-5.5 -14.5v-91q0 -7 5.5 -12.5t13.5 -5.5h53q8 0 13 5t5 13v91q0 20 -18 20h-53zM496 1409q-21 0 -21 -20v-91q0 -8 6 -13t15 -5h51q7 0 12.5 5t5.5 13v91q0 20 -18 20h-51zM698 1409q-18 0 -18 -20v-91q0 -8 5 -13 t13 -5h52q8 0 14 5.5t6 12.5v91q0 9 -6 14.5t-14 5.5h-52zM901 1409q-18 0 -18 -20v-91q0 -8 5.5 -13t12.5 -5h53q8 0 13.5 5.5t5.5 12.5v91q0 9 -5.5 14.5t-13.5 5.5h-53zM1106 1409q-8 0 -14.5 -5.5t-6.5 -14.5v-91q0 -7 6.5 -12.5t14.5 -5.5h51q8 0 14.5 5.5t6.5 12.5v91 q0 9 -6.5 14.5t-14.5 5.5h-51zM1309 1409q-8 0 -13.5 -5.5t-5.5 -14.5v-91q0 -7 5.5 -12.5t13.5 -5.5h53q8 0 13 5t5 13v91q0 20 -18 20h-53zM1513 1409q-8 0 -14 -5.5t-6 -14.5v-91q0 -7 6 -12.5t14 -5.5h52q7 0 12.5 5t5.5 13v91q0 20 -18 20h-52zM74 1255 q-15 0 -27 -11.5t-12 -26.5v-938q0 -15 12 -26t27 -11h1474q15 0 27 11t12 26v938q0 15 -12 26.5t-27 11.5h-1474zM84 211q-8 0 -13 -6t-5 -15v-90q0 -8 5 -13t13 -5h53q8 0 13.5 5.5t5.5 12.5v90q0 9 -5.5 15t-13.5 6h-53zM289 211q-8 0 -14.5 -6t-6.5 -15v-90 q0 -7 6.5 -12.5t14.5 -5.5h51q8 0 14 5.5t6 12.5v90q0 9 -6 15t-14 6h-51zM492 211q-8 0 -13.5 -6t-5.5 -15v-90q0 -7 5.5 -12.5t13.5 -5.5h53q7 0 12.5 5t5.5 13v90q0 9 -5 15t-13 6h-53zM696 211q-8 0 -14 -6t-6 -15v-90q0 -7 6 -12.5t14 -5.5h52q8 0 13 5t5 13v90 q0 9 -5 15t-13 6h-52zM899 211q-8 0 -13 -6t-5 -15v-90q0 -8 5.5 -13t12.5 -5h51q8 0 14.5 5.5t6.5 12.5v90q0 9 -6.5 15t-14.5 6h-51zM1102 211q-8 0 -13.5 -6t-5.5 -15v-90q0 -7 5.5 -12.5t13.5 -5.5h53q8 0 13.5 5.5t5.5 12.5v90q0 9 -5.5 15t-13.5 6h-53zM1307 211 q-8 0 -14.5 -6t-6.5 -15v-90q0 -7 6.5 -12.5t14.5 -5.5h51q8 0 14 5.5t6 12.5v90q0 9 -6 15t-14 6h-51zM1509 211q-8 0 -13 -6t-5 -15v-90q0 -8 5.5 -13t12.5 -5h54q7 0 12.5 5t5.5 13v90q0 9 -5 15t-13 6h-54zM692 672h-168h168z" />
<glyph unicode="t" d="M518 928v168h586v-168h-203v-549h-178v549h-205zM0 1489h694q17 -31 47 -49.5t64 -18.5q35 0 65.5 18.5t47.5 49.5h704v-1489h-1622v1489zM88 1409q-8 0 -14 -5.5t-6 -14.5v-91q0 -7 6 -12.5t14 -5.5h51q8 0 13.5 5.5t5.5 12.5v91q0 9 -5.5 14.5t-13.5 5.5h-51zM291 1409 q-8 0 -13.5 -5.5t-5.5 -14.5v-91q0 -7 5.5 -12.5t13.5 -5.5h53q8 0 13 5t5 13v91q0 20 -18 20h-53zM496 1409q-21 0 -21 -20v-91q0 -8 6 -13t15 -5h51q7 0 12.5 5t5.5 13v91q0 20 -18 20h-51zM698 1409q-18 0 -18 -20v-91q0 -8 5 -13t13 -5h52q8 0 14 5.5t6 12.5v91 q0 9 -6 14.5t-14 5.5h-52zM901 1409q-18 0 -18 -20v-91q0 -8 5.5 -13t12.5 -5h53q8 0 13.5 5.5t5.5 12.5v91q0 9 -5.5 14.5t-13.5 5.5h-53zM1106 1409q-8 0 -14.5 -5.5t-6.5 -14.5v-91q0 -7 6.5 -12.5t14.5 -5.5h51q8 0 14.5 5.5t6.5 12.5v91q0 9 -6.5 14.5t-14.5 5.5h-51z M1309 1409q-8 0 -13.5 -5.5t-5.5 -14.5v-91q0 -7 5.5 -12.5t13.5 -5.5h53q8 0 13 5t5 13v91q0 20 -18 20h-53zM1513 1409q-8 0 -14 -5.5t-6 -14.5v-91q0 -7 6 -12.5t14 -5.5h52q7 0 12.5 5t5.5 13v91q0 20 -18 20h-52zM74 1255q-15 0 -27 -11.5t-12 -26.5v-938q0 -15 12 -26 t27 -11h1474q15 0 27 11t12 26v938q0 15 -12 26.5t-27 11.5h-1474zM84 211q-8 0 -13 -6t-5 -15v-90q0 -8 5 -13t13 -5h53q8 0 13.5 5.5t5.5 12.5v90q0 9 -5.5 15t-13.5 6h-53zM289 211q-8 0 -14.5 -6t-6.5 -15v-90q0 -7 6.5 -12.5t14.5 -5.5h51q8 0 14 5.5t6 12.5v90 q0 9 -6 15t-14 6h-51zM492 211q-8 0 -13.5 -6t-5.5 -15v-90q0 -7 5.5 -12.5t13.5 -5.5h53q7 0 12.5 5t5.5 13v90q0 9 -5 15t-13 6h-53zM696 211q-8 0 -14 -6t-6 -15v-90q0 -7 6 -12.5t14 -5.5h52q8 0 13 5t5 13v90q0 9 -5 15t-13 6h-52zM899 211q-8 0 -13 -6t-5 -15v-90 q0 -8 5.5 -13t12.5 -5h51q8 0 14.5 5.5t6.5 12.5v90q0 9 -6.5 15t-14.5 6h-51zM1102 211q-8 0 -13.5 -6t-5.5 -15v-90q0 -7 5.5 -12.5t13.5 -5.5h53q8 0 13.5 5.5t5.5 12.5v90q0 9 -5.5 15t-13.5 6h-53zM1307 211q-8 0 -14.5 -6t-6.5 -15v-90q0 -7 6.5 -12.5t14.5 -5.5h51 q8 0 14 5.5t6 12.5v90q0 9 -6 15t-14 6h-51zM1509 211q-8 0 -13 -6t-5 -15v-90q0 -8 5.5 -13t12.5 -5h54q7 0 12.5 5t5.5 13v90q0 9 -5 15t-13 6h-54z" />
<glyph unicode="u" d="M805 547q19 0 34 2.5t26.5 5t20 10t14 12t9 17.5t5.5 19.5t3 24.5t1 26v30v402h176v-416q0 -301 -281 -301q-154 0 -220.5 79t-66.5 236v402h179v-408q0 -28 0.5 -39.5t3 -32.5t8.5 -30t16.5 -20t28.5 -15t43 -4zM0 1489h694q17 -31 47 -49.5t64 -18.5q35 0 65.5 18.5 t47.5 49.5h704v-1489h-1622v1489zM88 1409q-8 0 -14 -5.5t-6 -14.5v-91q0 -7 6 -12.5t14 -5.5h51q8 0 13.5 5.5t5.5 12.5v91q0 9 -5.5 14.5t-13.5 5.5h-51zM291 1409q-8 0 -13.5 -5.5t-5.5 -14.5v-91q0 -7 5.5 -12.5t13.5 -5.5h53q8 0 13 5t5 13v91q0 20 -18 20h-53z M496 1409q-21 0 -21 -20v-91q0 -8 6 -13t15 -5h51q7 0 12.5 5t5.5 13v91q0 20 -18 20h-51zM698 1409q-18 0 -18 -20v-91q0 -8 5 -13t13 -5h52q8 0 14 5.5t6 12.5v91q0 9 -6 14.5t-14 5.5h-52zM901 1409q-18 0 -18 -20v-91q0 -8 5.5 -13t12.5 -5h53q8 0 13.5 5.5t5.5 12.5v91 q0 9 -5.5 14.5t-13.5 5.5h-53zM1106 1409q-8 0 -14.5 -5.5t-6.5 -14.5v-91q0 -7 6.5 -12.5t14.5 -5.5h51q8 0 14.5 5.5t6.5 12.5v91q0 9 -6.5 14.5t-14.5 5.5h-51zM1309 1409q-8 0 -13.5 -5.5t-5.5 -14.5v-91q0 -7 5.5 -12.5t13.5 -5.5h53q8 0 13 5t5 13v91q0 20 -18 20h-53 zM1513 1409q-8 0 -14 -5.5t-6 -14.5v-91q0 -7 6 -12.5t14 -5.5h52q7 0 12.5 5t5.5 13v91q0 20 -18 20h-52zM74 1255q-15 0 -27 -11.5t-12 -26.5v-938q0 -15 12 -26t27 -11h1474q15 0 27 11t12 26v938q0 15 -12 26.5t-27 11.5h-1474zM84 211q-8 0 -13 -6t-5 -15v-90 q0 -8 5 -13t13 -5h53q8 0 13.5 5.5t5.5 12.5v90q0 9 -5.5 15t-13.5 6h-53zM289 211q-8 0 -14.5 -6t-6.5 -15v-90q0 -7 6.5 -12.5t14.5 -5.5h51q8 0 14 5.5t6 12.5v90q0 9 -6 15t-14 6h-51zM492 211q-8 0 -13.5 -6t-5.5 -15v-90q0 -7 5.5 -12.5t13.5 -5.5h53q7 0 12.5 5 t5.5 13v90q0 9 -5 15t-13 6h-53zM696 211q-8 0 -14 -6t-6 -15v-90q0 -7 6 -12.5t14 -5.5h52q8 0 13 5t5 13v90q0 9 -5 15t-13 6h-52zM899 211q-8 0 -13 -6t-5 -15v-90q0 -8 5.5 -13t12.5 -5h51q8 0 14.5 5.5t6.5 12.5v90q0 9 -6.5 15t-14.5 6h-51zM1102 211q-8 0 -13.5 -6 t-5.5 -15v-90q0 -7 5.5 -12.5t13.5 -5.5h53q8 0 13.5 5.5t5.5 12.5v90q0 9 -5.5 15t-13.5 6h-53zM1307 211q-8 0 -14.5 -6t-6.5 -15v-90q0 -7 6.5 -12.5t14.5 -5.5h51q8 0 14 5.5t6 12.5v90q0 9 -6 15t-14 6h-51zM1509 211q-8 0 -13 -6t-5 -15v-90q0 -8 5.5 -13t12.5 -5h54 q7 0 12.5 5t5.5 13v90q0 9 -5 15t-13 6h-54z" />
<glyph unicode="v" d="M803 649l166 447h186l-278 -717h-150l-274 717h190zM0 1489h694q17 -31 47 -49.5t64 -18.5q35 0 65.5 18.5t47.5 49.5h704v-1489h-1622v1489zM88 1409q-8 0 -14 -5.5t-6 -14.5v-91q0 -7 6 -12.5t14 -5.5h51q8 0 13.5 5.5t5.5 12.5v91q0 9 -5.5 14.5t-13.5 5.5h-51z M291 1409q-8 0 -13.5 -5.5t-5.5 -14.5v-91q0 -7 5.5 -12.5t13.5 -5.5h53q8 0 13 5t5 13v91q0 20 -18 20h-53zM496 1409q-21 0 -21 -20v-91q0 -8 6 -13t15 -5h51q7 0 12.5 5t5.5 13v91q0 20 -18 20h-51zM698 1409q-18 0 -18 -20v-91q0 -8 5 -13t13 -5h52q8 0 14 5.5t6 12.5 v91q0 9 -6 14.5t-14 5.5h-52zM901 1409q-18 0 -18 -20v-91q0 -8 5.5 -13t12.5 -5h53q8 0 13.5 5.5t5.5 12.5v91q0 9 -5.5 14.5t-13.5 5.5h-53zM1106 1409q-8 0 -14.5 -5.5t-6.5 -14.5v-91q0 -7 6.5 -12.5t14.5 -5.5h51q8 0 14.5 5.5t6.5 12.5v91q0 9 -6.5 14.5t-14.5 5.5 h-51zM1309 1409q-8 0 -13.5 -5.5t-5.5 -14.5v-91q0 -7 5.5 -12.5t13.5 -5.5h53q8 0 13 5t5 13v91q0 20 -18 20h-53zM1513 1409q-8 0 -14 -5.5t-6 -14.5v-91q0 -7 6 -12.5t14 -5.5h52q7 0 12.5 5t5.5 13v91q0 20 -18 20h-52zM74 1255q-15 0 -27 -11.5t-12 -26.5v-938 q0 -15 12 -26t27 -11h1474q15 0 27 11t12 26v938q0 15 -12 26.5t-27 11.5h-1474zM84 211q-8 0 -13 -6t-5 -15v-90q0 -8 5 -13t13 -5h53q8 0 13.5 5.5t5.5 12.5v90q0 9 -5.5 15t-13.5 6h-53zM289 211q-8 0 -14.5 -6t-6.5 -15v-90q0 -7 6.5 -12.5t14.5 -5.5h51q8 0 14 5.5 t6 12.5v90q0 9 -6 15t-14 6h-51zM492 211q-8 0 -13.5 -6t-5.5 -15v-90q0 -7 5.5 -12.5t13.5 -5.5h53q7 0 12.5 5t5.5 13v90q0 9 -5 15t-13 6h-53zM696 211q-8 0 -14 -6t-6 -15v-90q0 -7 6 -12.5t14 -5.5h52q8 0 13 5t5 13v90q0 9 -5 15t-13 6h-52zM899 211q-8 0 -13 -6 t-5 -15v-90q0 -8 5.5 -13t12.5 -5h51q8 0 14.5 5.5t6.5 12.5v90q0 9 -6.5 15t-14.5 6h-51zM1102 211q-8 0 -13.5 -6t-5.5 -15v-90q0 -7 5.5 -12.5t13.5 -5.5h53q8 0 13.5 5.5t5.5 12.5v90q0 9 -5.5 15t-13.5 6h-53zM1307 211q-8 0 -14.5 -6t-6.5 -15v-90q0 -7 6.5 -12.5 t14.5 -5.5h51q8 0 14 5.5t6 12.5v90q0 9 -6 15t-14 6h-51zM1509 211q-8 0 -13 -6t-5 -15v-90q0 -8 5.5 -13t12.5 -5h54q7 0 12.5 5t5.5 13v90q0 9 -5 15t-13 6h-54z" />
<glyph unicode="w" d="M991 735l88 361h183l-197 -717h-152l-110 405l-115 -405h-153l-191 717h182l88 -369l105 369h170zM0 1489h694q17 -31 47 -49.5t64 -18.5q35 0 65.5 18.5t47.5 49.5h704v-1489h-1622v1489zM88 1409q-8 0 -14 -5.5t-6 -14.5v-91q0 -7 6 -12.5t14 -5.5h51q8 0 13.5 5.5 t5.5 12.5v91q0 9 -5.5 14.5t-13.5 5.5h-51zM291 1409q-8 0 -13.5 -5.5t-5.5 -14.5v-91q0 -7 5.5 -12.5t13.5 -5.5h53q8 0 13 5t5 13v91q0 20 -18 20h-53zM496 1409q-21 0 -21 -20v-91q0 -8 6 -13t15 -5h51q7 0 12.5 5t5.5 13v91q0 20 -18 20h-51zM698 1409q-18 0 -18 -20 v-91q0 -8 5 -13t13 -5h52q8 0 14 5.5t6 12.5v91q0 9 -6 14.5t-14 5.5h-52zM901 1409q-18 0 -18 -20v-91q0 -8 5.5 -13t12.5 -5h53q8 0 13.5 5.5t5.5 12.5v91q0 9 -5.5 14.5t-13.5 5.5h-53zM1106 1409q-8 0 -14.5 -5.5t-6.5 -14.5v-91q0 -7 6.5 -12.5t14.5 -5.5h51 q8 0 14.5 5.5t6.5 12.5v91q0 9 -6.5 14.5t-14.5 5.5h-51zM1309 1409q-8 0 -13.5 -5.5t-5.5 -14.5v-91q0 -7 5.5 -12.5t13.5 -5.5h53q8 0 13 5t5 13v91q0 20 -18 20h-53zM1513 1409q-8 0 -14 -5.5t-6 -14.5v-91q0 -7 6 -12.5t14 -5.5h52q7 0 12.5 5t5.5 13v91q0 20 -18 20 h-52zM74 1255q-15 0 -27 -11.5t-12 -26.5v-938q0 -15 12 -26t27 -11h1474q15 0 27 11t12 26v938q0 15 -12 26.5t-27 11.5h-1474zM84 211q-8 0 -13 -6t-5 -15v-90q0 -8 5 -13t13 -5h53q8 0 13.5 5.5t5.5 12.5v90q0 9 -5.5 15t-13.5 6h-53zM289 211q-8 0 -14.5 -6t-6.5 -15 v-90q0 -7 6.5 -12.5t14.5 -5.5h51q8 0 14 5.5t6 12.5v90q0 9 -6 15t-14 6h-51zM492 211q-8 0 -13.5 -6t-5.5 -15v-90q0 -7 5.5 -12.5t13.5 -5.5h53q7 0 12.5 5t5.5 13v90q0 9 -5 15t-13 6h-53zM696 211q-8 0 -14 -6t-6 -15v-90q0 -7 6 -12.5t14 -5.5h52q8 0 13 5t5 13v90 q0 9 -5 15t-13 6h-52zM899 211q-8 0 -13 -6t-5 -15v-90q0 -8 5.5 -13t12.5 -5h51q8 0 14.5 5.5t6.5 12.5v90q0 9 -6.5 15t-14.5 6h-51zM1102 211q-8 0 -13.5 -6t-5.5 -15v-90q0 -7 5.5 -12.5t13.5 -5.5h53q8 0 13.5 5.5t5.5 12.5v90q0 9 -5.5 15t-13.5 6h-53zM1307 211 q-8 0 -14.5 -6t-6.5 -15v-90q0 -7 6.5 -12.5t14.5 -5.5h51q8 0 14 5.5t6 12.5v90q0 9 -6 15t-14 6h-51zM1509 211q-8 0 -13 -6t-5 -15v-90q0 -8 5.5 -13t12.5 -5h54q7 0 12.5 5t5.5 13v90q0 9 -5 15t-13 6h-54z" />
<glyph unicode="x" d="M453 1096h215l137 -197l147 197h207l-252 -340l269 -377h-220l-157 225l-158 -225h-219l274 373zM0 1489h694q17 -31 47 -49.5t64 -18.5q35 0 65.5 18.5t47.5 49.5h704v-1489h-1622v1489zM88 1409q-8 0 -14 -5.5t-6 -14.5v-91q0 -7 6 -12.5t14 -5.5h51q8 0 13.5 5.5 t5.5 12.5v91q0 9 -5.5 14.5t-13.5 5.5h-51zM291 1409q-8 0 -13.5 -5.5t-5.5 -14.5v-91q0 -7 5.5 -12.5t13.5 -5.5h53q8 0 13 5t5 13v91q0 20 -18 20h-53zM496 1409q-21 0 -21 -20v-91q0 -8 6 -13t15 -5h51q7 0 12.5 5t5.5 13v91q0 20 -18 20h-51zM698 1409q-18 0 -18 -20 v-91q0 -8 5 -13t13 -5h52q8 0 14 5.5t6 12.5v91q0 9 -6 14.5t-14 5.5h-52zM901 1409q-18 0 -18 -20v-91q0 -8 5.5 -13t12.5 -5h53q8 0 13.5 5.5t5.5 12.5v91q0 9 -5.5 14.5t-13.5 5.5h-53zM1106 1409q-8 0 -14.5 -5.5t-6.5 -14.5v-91q0 -7 6.5 -12.5t14.5 -5.5h51 q8 0 14.5 5.5t6.5 12.5v91q0 9 -6.5 14.5t-14.5 5.5h-51zM1309 1409q-8 0 -13.5 -5.5t-5.5 -14.5v-91q0 -7 5.5 -12.5t13.5 -5.5h53q8 0 13 5t5 13v91q0 20 -18 20h-53zM1513 1409q-8 0 -14 -5.5t-6 -14.5v-91q0 -7 6 -12.5t14 -5.5h52q7 0 12.5 5t5.5 13v91q0 20 -18 20 h-52zM74 1255q-15 0 -27 -11.5t-12 -26.5v-938q0 -15 12 -26t27 -11h1474q15 0 27 11t12 26v938q0 15 -12 26.5t-27 11.5h-1474zM84 211q-8 0 -13 -6t-5 -15v-90q0 -8 5 -13t13 -5h53q8 0 13.5 5.5t5.5 12.5v90q0 9 -5.5 15t-13.5 6h-53zM289 211q-8 0 -14.5 -6t-6.5 -15 v-90q0 -7 6.5 -12.5t14.5 -5.5h51q8 0 14 5.5t6 12.5v90q0 9 -6 15t-14 6h-51zM492 211q-8 0 -13.5 -6t-5.5 -15v-90q0 -7 5.5 -12.5t13.5 -5.5h53q7 0 12.5 5t5.5 13v90q0 9 -5 15t-13 6h-53zM696 211q-8 0 -14 -6t-6 -15v-90q0 -7 6 -12.5t14 -5.5h52q8 0 13 5t5 13v90 q0 9 -5 15t-13 6h-52zM899 211q-8 0 -13 -6t-5 -15v-90q0 -8 5.5 -13t12.5 -5h51q8 0 14.5 5.5t6.5 12.5v90q0 9 -6.5 15t-14.5 6h-51zM1102 211q-8 0 -13.5 -6t-5.5 -15v-90q0 -7 5.5 -12.5t13.5 -5.5h53q8 0 13.5 5.5t5.5 12.5v90q0 9 -5.5 15t-13.5 6h-53zM1307 211 q-8 0 -14.5 -6t-6.5 -15v-90q0 -7 6.5 -12.5t14.5 -5.5h51q8 0 14 5.5t6 12.5v90q0 9 -6 15t-14 6h-51zM1509 211q-8 0 -13 -6t-5 -15v-90q0 -8 5.5 -13t12.5 -5h54q7 0 12.5 5t5.5 13v90q0 9 -5 15t-13 6h-54z" />
<glyph unicode="y" d="M807 850q27 41 160 246h211l-285 -420v-297h-180v297l-279 420h213zM0 1489h694q17 -31 47 -49.5t64 -18.5q35 0 65.5 18.5t47.5 49.5h704v-1489h-1622v1489zM88 1409q-8 0 -14 -5.5t-6 -14.5v-91q0 -7 6 -12.5t14 -5.5h51q8 0 13.5 5.5t5.5 12.5v91q0 9 -5.5 14.5 t-13.5 5.5h-51zM291 1409q-8 0 -13.5 -5.5t-5.5 -14.5v-91q0 -7 5.5 -12.5t13.5 -5.5h53q8 0 13 5t5 13v91q0 20 -18 20h-53zM496 1409q-21 0 -21 -20v-91q0 -8 6 -13t15 -5h51q7 0 12.5 5t5.5 13v91q0 20 -18 20h-51zM698 1409q-18 0 -18 -20v-91q0 -8 5 -13t13 -5h52 q8 0 14 5.5t6 12.5v91q0 9 -6 14.5t-14 5.5h-52zM901 1409q-18 0 -18 -20v-91q0 -8 5.5 -13t12.5 -5h53q8 0 13.5 5.5t5.5 12.5v91q0 9 -5.5 14.5t-13.5 5.5h-53zM1106 1409q-8 0 -14.5 -5.5t-6.5 -14.5v-91q0 -7 6.5 -12.5t14.5 -5.5h51q8 0 14.5 5.5t6.5 12.5v91 q0 9 -6.5 14.5t-14.5 5.5h-51zM1309 1409q-8 0 -13.5 -5.5t-5.5 -14.5v-91q0 -7 5.5 -12.5t13.5 -5.5h53q8 0 13 5t5 13v91q0 20 -18 20h-53zM1513 1409q-8 0 -14 -5.5t-6 -14.5v-91q0 -7 6 -12.5t14 -5.5h52q7 0 12.5 5t5.5 13v91q0 20 -18 20h-52zM74 1255 q-15 0 -27 -11.5t-12 -26.5v-938q0 -15 12 -26t27 -11h1474q15 0 27 11t12 26v938q0 15 -12 26.5t-27 11.5h-1474zM84 211q-8 0 -13 -6t-5 -15v-90q0 -8 5 -13t13 -5h53q8 0 13.5 5.5t5.5 12.5v90q0 9 -5.5 15t-13.5 6h-53zM289 211q-8 0 -14.5 -6t-6.5 -15v-90 q0 -7 6.5 -12.5t14.5 -5.5h51q8 0 14 5.5t6 12.5v90q0 9 -6 15t-14 6h-51zM492 211q-8 0 -13.5 -6t-5.5 -15v-90q0 -7 5.5 -12.5t13.5 -5.5h53q7 0 12.5 5t5.5 13v90q0 9 -5 15t-13 6h-53zM696 211q-8 0 -14 -6t-6 -15v-90q0 -7 6 -12.5t14 -5.5h52q8 0 13 5t5 13v90 q0 9 -5 15t-13 6h-52zM899 211q-8 0 -13 -6t-5 -15v-90q0 -8 5.5 -13t12.5 -5h51q8 0 14.5 5.5t6.5 12.5v90q0 9 -6.5 15t-14.5 6h-51zM1102 211q-8 0 -13.5 -6t-5.5 -15v-90q0 -7 5.5 -12.5t13.5 -5.5h53q8 0 13.5 5.5t5.5 12.5v90q0 9 -5.5 15t-13.5 6h-53zM1307 211 q-8 0 -14.5 -6t-6.5 -15v-90q0 -7 6.5 -12.5t14.5 -5.5h51q8 0 14 5.5t6 12.5v90q0 9 -6 15t-14 6h-51zM1509 211q-8 0 -13 -6t-5 -15v-90q0 -8 5.5 -13t12.5 -5h54q7 0 12.5 5t5.5 13v90q0 9 -5 15t-13 6h-54z" />
<glyph unicode="z" d="M1081 956l-325 -409h338v-168h-586v145l328 404h-291v168h536v-140zM0 1489h694q17 -31 47 -49.5t64 -18.5q35 0 65.5 18.5t47.5 49.5h704v-1489h-1622v1489zM88 1409q-8 0 -14 -5.5t-6 -14.5v-91q0 -7 6 -12.5t14 -5.5h51q8 0 13.5 5.5t5.5 12.5v91q0 9 -5.5 14.5 t-13.5 5.5h-51zM291 1409q-8 0 -13.5 -5.5t-5.5 -14.5v-91q0 -7 5.5 -12.5t13.5 -5.5h53q8 0 13 5t5 13v91q0 20 -18 20h-53zM496 1409q-21 0 -21 -20v-91q0 -8 6 -13t15 -5h51q7 0 12.5 5t5.5 13v91q0 20 -18 20h-51zM698 1409q-18 0 -18 -20v-91q0 -8 5 -13t13 -5h52 q8 0 14 5.5t6 12.5v91q0 9 -6 14.5t-14 5.5h-52zM901 1409q-18 0 -18 -20v-91q0 -8 5.5 -13t12.5 -5h53q8 0 13.5 5.5t5.5 12.5v91q0 9 -5.5 14.5t-13.5 5.5h-53zM1106 1409q-8 0 -14.5 -5.5t-6.5 -14.5v-91q0 -7 6.5 -12.5t14.5 -5.5h51q8 0 14.5 5.5t6.5 12.5v91 q0 9 -6.5 14.5t-14.5 5.5h-51zM1309 1409q-8 0 -13.5 -5.5t-5.5 -14.5v-91q0 -7 5.5 -12.5t13.5 -5.5h53q8 0 13 5t5 13v91q0 20 -18 20h-53zM1513 1409q-8 0 -14 -5.5t-6 -14.5v-91q0 -7 6 -12.5t14 -5.5h52q7 0 12.5 5t5.5 13v91q0 20 -18 20h-52zM74 1255 q-15 0 -27 -11.5t-12 -26.5v-938q0 -15 12 -26t27 -11h1474q15 0 27 11t12 26v938q0 15 -12 26.5t-27 11.5h-1474zM84 211q-8 0 -13 -6t-5 -15v-90q0 -8 5 -13t13 -5h53q8 0 13.5 5.5t5.5 12.5v90q0 9 -5.5 15t-13.5 6h-53zM289 211q-8 0 -14.5 -6t-6.5 -15v-90 q0 -7 6.5 -12.5t14.5 -5.5h51q8 0 14 5.5t6 12.5v90q0 9 -6 15t-14 6h-51zM492 211q-8 0 -13.5 -6t-5.5 -15v-90q0 -7 5.5 -12.5t13.5 -5.5h53q7 0 12.5 5t5.5 13v90q0 9 -5 15t-13 6h-53zM696 211q-8 0 -14 -6t-6 -15v-90q0 -7 6 -12.5t14 -5.5h52q8 0 13 5t5 13v90 q0 9 -5 15t-13 6h-52zM899 211q-8 0 -13 -6t-5 -15v-90q0 -8 5.5 -13t12.5 -5h51q8 0 14.5 5.5t6.5 12.5v90q0 9 -6.5 15t-14.5 6h-51zM1102 211q-8 0 -13.5 -6t-5.5 -15v-90q0 -7 5.5 -12.5t13.5 -5.5h53q8 0 13.5 5.5t5.5 12.5v90q0 9 -5.5 15t-13.5 6h-53zM1307 211 q-8 0 -14.5 -6t-6.5 -15v-90q0 -7 6.5 -12.5t14.5 -5.5h51q8 0 14 5.5t6 12.5v90q0 9 -6 15t-14 6h-51zM1509 211q-8 0 -13 -6t-5 -15v-90q0 -8 5.5 -13t12.5 -5h54q7 0 12.5 5t5.5 13v90q0 9 -5 15t-13 6h-54z" />
<glyph unicode="&#xa0;" d="M668 1096h-215l243 -344l-274 -373h219l158 225l157 -225h220l-269 377l252 340h-207l-147 -197zM156 100v90q0 9 -5.5 15t-13.5 6h-53q-8 0 -13 -6t-5 -15v-90q0 -8 5 -13t13 -5h53q8 0 13.5 5.5t5.5 12.5zM360 100v90q0 9 -6 15t-14 6h-51q-8 0 -14.5 -6t-6.5 -15v-90 q0 -7 6.5 -12.5t14.5 -5.5h51q8 0 14 5.5t6 12.5zM563 100v90q0 9 -5 15t-13 6h-53q-8 0 -13.5 -6t-5.5 -15v-90q0 -7 5.5 -12.5t13.5 -5.5h53q7 0 12.5 5t5.5 13zM766 100v90q0 9 -5 15t-13 6h-52q-8 0 -14 -6t-6 -15v-90q0 -7 6 -12.5t14 -5.5h52q8 0 13 5t5 13zM971 100 v90q0 9 -6.5 15t-14.5 6h-51q-8 0 -13 -6t-5 -15v-90q0 -8 5.5 -13t12.5 -5h51q8 0 14.5 5.5t6.5 12.5zM1174 100v90q0 9 -5.5 15t-13.5 6h-53q-8 0 -13.5 -6t-5.5 -15v-90q0 -7 5.5 -12.5t13.5 -5.5h53q8 0 13.5 5.5t5.5 12.5zM158 1298v91q0 9 -5.5 14.5t-13.5 5.5h-51 q-8 0 -14 -5.5t-6 -14.5v-91q0 -7 6 -12.5t14 -5.5h51q8 0 13.5 5.5t5.5 12.5zM1378 100v90q0 9 -6 15t-14 6h-51q-8 0 -14.5 -6t-6.5 -15v-90q0 -7 6.5 -12.5t14.5 -5.5h51q8 0 14 5.5t6 12.5zM1593 279v938q0 19 -13 33t-32 14h-1474q-19 0 -32 -14t-13 -33v-938 q0 -19 13 -32.5t32 -13.5h1474q19 0 32 13.5t13 32.5zM362 1298v91q0 20 -18 20h-53q-8 0 -13.5 -5.5t-5.5 -14.5v-91q0 -7 5.5 -12.5t13.5 -5.5h53q8 0 13 5t5 13zM1581 100v90q0 9 -5 15t-13 6h-54q-8 0 -13 -6t-5 -15v-90q0 -8 5.5 -13t12.5 -5h54q7 0 12.5 5t5.5 13z M565 1298v91q0 20 -18 20h-51q-21 0 -21 -20v-91q0 -8 6 -13t15 -5h51q7 0 12.5 5t5.5 13zM770 1298v91q0 9 -6 14.5t-14 5.5h-52q-18 0 -18 -20v-91q0 -8 5 -13t13 -5h52q8 0 14 5.5t6 12.5zM973 1298v91q0 9 -5.5 14.5t-13.5 5.5h-53q-18 0 -18 -20v-91q0 -8 5.5 -13 t12.5 -5h53q8 0 13.5 5.5t5.5 12.5zM1178 1298v91q0 9 -6.5 14.5t-14.5 5.5h-51q-8 0 -14.5 -5.5t-6.5 -14.5v-91q0 -7 6.5 -12.5t14.5 -5.5h51q8 0 14.5 5.5t6.5 12.5zM1380 1298v91q0 20 -18 20h-53q-8 0 -13.5 -5.5t-5.5 -14.5v-91q0 -7 5.5 -12.5t13.5 -5.5h53q8 0 13 5 t5 13zM1583 1298v91q0 20 -18 20h-52q-8 0 -14 -5.5t-6 -14.5v-91q0 -7 6 -12.5t14 -5.5h52q7 0 12.5 5t5.5 13zM1622 1489v-1489h-1622v1489h694q17 -31 47 -49.5t64 -18.5q35 0 65.5 18.5t47.5 49.5h704zM1579 1217v-938q0 -12 -9.5 -21.5t-21.5 -9.5h-1474 q-12 0 -21.5 9.5t-9.5 21.5v938q0 13 9.5 22.5t21.5 9.5h1474q12 0 21.5 -9.5t9.5 -22.5z" />
<glyph unicode="&#xa1;" d="M893 676l285 420h-211l-160 -246l-160 246h-213l279 -420v-297h180v297zM1579 1217v-938q0 -12 -9.5 -21.5t-21.5 -9.5h-1474q-12 0 -21.5 9.5t-9.5 21.5v938q0 13 9.5 22.5t21.5 9.5h1474q12 0 21.5 -9.5t9.5 -22.5zM156 100v90q0 9 -5.5 15t-13.5 6h-53q-8 0 -13 -6 t-5 -15v-90q0 -8 5 -13t13 -5h53q8 0 13.5 5.5t5.5 12.5zM360 100v90q0 9 -6 15t-14 6h-51q-8 0 -14.5 -6t-6.5 -15v-90q0 -7 6.5 -12.5t14.5 -5.5h51q8 0 14 5.5t6 12.5zM563 100v90q0 9 -5 15t-13 6h-53q-8 0 -13.5 -6t-5.5 -15v-90q0 -7 5.5 -12.5t13.5 -5.5h53 q7 0 12.5 5t5.5 13zM766 100v90q0 9 -5 15t-13 6h-52q-8 0 -14 -6t-6 -15v-90q0 -7 6 -12.5t14 -5.5h52q8 0 13 5t5 13zM971 100v90q0 9 -6.5 15t-14.5 6h-51q-8 0 -13 -6t-5 -15v-90q0 -8 5.5 -13t12.5 -5h51q8 0 14.5 5.5t6.5 12.5zM1174 100v90q0 9 -5.5 15t-13.5 6h-53 q-8 0 -13.5 -6t-5.5 -15v-90q0 -7 5.5 -12.5t13.5 -5.5h53q8 0 13.5 5.5t5.5 12.5zM158 1298v91q0 9 -5.5 14.5t-13.5 5.5h-51q-8 0 -14 -5.5t-6 -14.5v-91q0 -7 6 -12.5t14 -5.5h51q8 0 13.5 5.5t5.5 12.5zM1378 100v90q0 9 -6 15t-14 6h-51q-8 0 -14.5 -6t-6.5 -15v-90 q0 -7 6.5 -12.5t14.5 -5.5h51q8 0 14 5.5t6 12.5zM1593 279v938q0 19 -13 33t-32 14h-1474q-19 0 -32 -14t-13 -33v-938q0 -19 13 -32.5t32 -13.5h1474q19 0 32 13.5t13 32.5zM362 1298v91q0 20 -18 20h-53q-8 0 -13.5 -5.5t-5.5 -14.5v-91q0 -7 5.5 -12.5t13.5 -5.5h53 q8 0 13 5t5 13zM1581 100v90q0 9 -5 15t-13 6h-54q-8 0 -13 -6t-5 -15v-90q0 -8 5.5 -13t12.5 -5h54q7 0 12.5 5t5.5 13zM565 1298v91q0 20 -18 20h-51q-21 0 -21 -20v-91q0 -8 6 -13t15 -5h51q7 0 12.5 5t5.5 13zM770 1298v91q0 9 -6 14.5t-14 5.5h-52q-18 0 -18 -20v-91 q0 -8 5 -13t13 -5h52q8 0 14 5.5t6 12.5zM973 1298v91q0 9 -5.5 14.5t-13.5 5.5h-53q-18 0 -18 -20v-91q0 -8 5.5 -13t12.5 -5h53q8 0 13.5 5.5t5.5 12.5zM1178 1298v91q0 9 -6.5 14.5t-14.5 5.5h-51q-8 0 -14.5 -5.5t-6.5 -14.5v-91q0 -7 6.5 -12.5t14.5 -5.5h51 q8 0 14.5 5.5t6.5 12.5zM1380 1298v91q0 20 -18 20h-53q-8 0 -13.5 -5.5t-5.5 -14.5v-91q0 -7 5.5 -12.5t13.5 -5.5h53q8 0 13 5t5 13zM1583 1298v91q0 20 -18 20h-52q-8 0 -14 -5.5t-6 -14.5v-91q0 -7 6 -12.5t14 -5.5h52q7 0 12.5 5t5.5 13zM1622 1489v-1489h-1622v1489 h694q17 -31 47 -49.5t64 -18.5q35 0 65.5 18.5t47.5 49.5h704z" />
<glyph unicode="&#xa2;" d="M156 100v90q0 9 -5.5 15t-13.5 6h-53q-8 0 -13 -6t-5 -15v-90q0 -8 5 -13t13 -5h53q8 0 13.5 5.5t5.5 12.5zM360 100v90q0 9 -6 15t-14 6h-51q-8 0 -14.5 -6t-6.5 -15v-90q0 -7 6.5 -12.5t14.5 -5.5h51q8 0 14 5.5t6 12.5zM563 100v90q0 9 -5 15t-13 6h-53q-8 0 -13.5 -6 t-5.5 -15v-90q0 -7 5.5 -12.5t13.5 -5.5h53q7 0 12.5 5t5.5 13zM766 100v90q0 9 -5 15t-13 6h-52q-8 0 -14 -6t-6 -15v-90q0 -7 6 -12.5t14 -5.5h52q8 0 13 5t5 13zM971 100v90q0 9 -6.5 15t-14.5 6h-51q-8 0 -13 -6t-5 -15v-90q0 -8 5.5 -13t12.5 -5h51q8 0 14.5 5.5 t6.5 12.5zM1174 100v90q0 9 -5.5 15t-13.5 6h-53q-8 0 -13.5 -6t-5.5 -15v-90q0 -7 5.5 -12.5t13.5 -5.5h53q8 0 13.5 5.5t5.5 12.5zM158 1298v91q0 9 -5.5 14.5t-13.5 5.5h-51q-8 0 -14 -5.5t-6 -14.5v-91q0 -7 6 -12.5t14 -5.5h51q8 0 13.5 5.5t5.5 12.5zM1378 100v90 q0 9 -6 15t-14 6h-51q-8 0 -14.5 -6t-6.5 -15v-90q0 -7 6.5 -12.5t14.5 -5.5h51q8 0 14 5.5t6 12.5zM1593 279v938q0 19 -13 33t-32 14h-1474q-19 0 -32 -14t-13 -33v-938q0 -19 13 -32.5t32 -13.5h1474q19 0 32 13.5t13 32.5zM362 1298v91q0 20 -18 20h-53q-8 0 -13.5 -5.5 t-5.5 -14.5v-91q0 -7 5.5 -12.5t13.5 -5.5h53q8 0 13 5t5 13zM1581 100v90q0 9 -5 15t-13 6h-54q-8 0 -13 -6t-5 -15v-90q0 -8 5.5 -13t12.5 -5h54q7 0 12.5 5t5.5 13zM565 1298v91q0 20 -18 20h-51q-21 0 -21 -20v-91q0 -8 6 -13t15 -5h51q7 0 12.5 5t5.5 13zM770 1298v91 q0 9 -6 14.5t-14 5.5h-52q-18 0 -18 -20v-91q0 -8 5 -13t13 -5h52q8 0 14 5.5t6 12.5zM973 1298v91q0 9 -5.5 14.5t-13.5 5.5h-53q-18 0 -18 -20v-91q0 -8 5.5 -13t12.5 -5h53q8 0 13.5 5.5t5.5 12.5zM1178 1298v91q0 9 -6.5 14.5t-14.5 5.5h-51q-8 0 -14.5 -5.5t-6.5 -14.5 v-91q0 -7 6.5 -12.5t14.5 -5.5h51q8 0 14.5 5.5t6.5 12.5zM1380 1298v91q0 20 -18 20h-53q-8 0 -13.5 -5.5t-5.5 -14.5v-91q0 -7 5.5 -12.5t13.5 -5.5h53q8 0 13 5t5 13zM1583 1298v91q0 20 -18 20h-52q-8 0 -14 -5.5t-6 -14.5v-91q0 -7 6 -12.5t14 -5.5h52q7 0 12.5 5 t5.5 13zM1622 1489v-1489h-1622v1489h694q17 -31 47 -49.5t64 -18.5q35 0 65.5 18.5t47.5 49.5h704zM508 379h586v168h-338l325 409v140h-536v-168h291l-328 -404v-145zM1579 1217v-938q0 -12 -9.5 -21.5t-21.5 -9.5h-1474q-12 0 -21.5 9.5t-9.5 21.5v938q0 13 9.5 22.5 t21.5 9.5h1474q12 0 21.5 -9.5t9.5 -22.5z" />
<glyph unicode="&#xc0;" d="M156 100v90q0 9 -5.5 15t-13.5 6h-53q-8 0 -13 -6t-5 -15v-90q0 -8 5 -13t13 -5h53q8 0 13.5 5.5t5.5 12.5zM360 100v90q0 9 -6 15t-14 6h-51q-8 0 -14.5 -6t-6.5 -15v-90q0 -7 6.5 -12.5t14.5 -5.5h51q8 0 14 5.5t6 12.5zM563 100v90q0 9 -5 15t-13 6h-53q-8 0 -13.5 -6 t-5.5 -15v-90q0 -7 5.5 -12.5t13.5 -5.5h53q7 0 12.5 5t5.5 13zM766 100v90q0 9 -5 15t-13 6h-52q-8 0 -14 -6t-6 -15v-90q0 -7 6 -12.5t14 -5.5h52q8 0 13 5t5 13zM971 100v90q0 9 -6.5 15t-14.5 6h-51q-8 0 -13 -6t-5 -15v-90q0 -8 5.5 -13t12.5 -5h51q8 0 14.5 5.5 t6.5 12.5zM1174 100v90q0 9 -5.5 15t-13.5 6h-53q-8 0 -13.5 -6t-5.5 -15v-90q0 -7 5.5 -12.5t13.5 -5.5h53q8 0 13.5 5.5t5.5 12.5zM158 1298v91q0 9 -5.5 14.5t-13.5 5.5h-51q-8 0 -14 -5.5t-6 -14.5v-91q0 -7 6 -12.5t14 -5.5h51q8 0 13.5 5.5t5.5 12.5zM1378 100v90 q0 9 -6 15t-14 6h-51q-8 0 -14.5 -6t-6.5 -15v-90q0 -7 6.5 -12.5t14.5 -5.5h51q8 0 14 5.5t6 12.5zM1593 279v938q0 19 -13 33t-32 14h-1474q-19 0 -32 -14t-13 -33v-938q0 -19 13 -32.5t32 -13.5h1474q19 0 32 13.5t13 32.5zM362 1298v91q0 20 -18 20h-53q-8 0 -13.5 -5.5 t-5.5 -14.5v-91q0 -7 5.5 -12.5t13.5 -5.5h53q8 0 13 5t5 13zM1581 100v90q0 9 -5 15t-13 6h-54q-8 0 -13 -6t-5 -15v-90q0 -8 5.5 -13t12.5 -5h54q7 0 12.5 5t5.5 13zM565 1298v91q0 20 -18 20h-51q-21 0 -21 -20v-91q0 -8 6 -13t15 -5h51q7 0 12.5 5t5.5 13zM770 1298v91 q0 9 -6 14.5t-14 5.5h-52q-18 0 -18 -20v-91q0 -8 5 -13t13 -5h52q8 0 14 5.5t6 12.5zM973 1298v91q0 9 -5.5 14.5t-13.5 5.5h-53q-18 0 -18 -20v-91q0 -8 5.5 -13t12.5 -5h53q8 0 13.5 5.5t5.5 12.5zM1178 1298v91q0 9 -6.5 14.5t-14.5 5.5h-51q-8 0 -14.5 -5.5t-6.5 -14.5 v-91q0 -7 6.5 -12.5t14.5 -5.5h51q8 0 14.5 5.5t6.5 12.5zM1380 1298v91q0 20 -18 20h-53q-8 0 -13.5 -5.5t-5.5 -14.5v-91q0 -7 5.5 -12.5t13.5 -5.5h53q8 0 13 5t5 13zM1583 1298v91q0 20 -18 20h-52q-8 0 -14 -5.5t-6 -14.5v-91q0 -7 6 -12.5t14 -5.5h52q7 0 12.5 5 t5.5 13zM1622 1489v-1489h-1622v1489h694q17 -31 47 -49.5t64 -18.5q35 0 65.5 18.5t47.5 49.5h704zM844 731h-74l37 96q22 -62 37 -96zM979 379h199l-295 717h-156l-276 -717h192l68 182h194zM1579 1217v-938q0 -12 -9.5 -21.5t-21.5 -9.5h-1474q-12 0 -21.5 9.5t-9.5 21.5 v938q0 13 9.5 22.5t21.5 9.5h1474q12 0 21.5 -9.5t9.5 -22.5z" />
<glyph unicode="&#xc1;" d="M156 100v90q0 9 -5.5 15t-13.5 6h-53q-8 0 -13 -6t-5 -15v-90q0 -8 5 -13t13 -5h53q8 0 13.5 5.5t5.5 12.5zM360 100v90q0 9 -6 15t-14 6h-51q-8 0 -14.5 -6t-6.5 -15v-90q0 -7 6.5 -12.5t14.5 -5.5h51q8 0 14 5.5t6 12.5zM563 100v90q0 9 -5 15t-13 6h-53q-8 0 -13.5 -6 t-5.5 -15v-90q0 -7 5.5 -12.5t13.5 -5.5h53q7 0 12.5 5t5.5 13zM766 100v90q0 9 -5 15t-13 6h-52q-8 0 -14 -6t-6 -15v-90q0 -7 6 -12.5t14 -5.5h52q8 0 13 5t5 13zM971 100v90q0 9 -6.5 15t-14.5 6h-51q-8 0 -13 -6t-5 -15v-90q0 -8 5.5 -13t12.5 -5h51q8 0 14.5 5.5 t6.5 12.5zM1174 100v90q0 9 -5.5 15t-13.5 6h-53q-8 0 -13.5 -6t-5.5 -15v-90q0 -7 5.5 -12.5t13.5 -5.5h53q8 0 13.5 5.5t5.5 12.5zM158 1298v91q0 9 -5.5 14.5t-13.5 5.5h-51q-8 0 -14 -5.5t-6 -14.5v-91q0 -7 6 -12.5t14 -5.5h51q8 0 13.5 5.5t5.5 12.5zM1378 100v90 q0 9 -6 15t-14 6h-51q-8 0 -14.5 -6t-6.5 -15v-90q0 -7 6.5 -12.5t14.5 -5.5h51q8 0 14 5.5t6 12.5zM1593 279v938q0 19 -13 33t-32 14h-1474q-19 0 -32 -14t-13 -33v-938q0 -19 13 -32.5t32 -13.5h1474q19 0 32 13.5t13 32.5zM362 1298v91q0 20 -18 20h-53q-8 0 -13.5 -5.5 t-5.5 -14.5v-91q0 -7 5.5 -12.5t13.5 -5.5h53q8 0 13 5t5 13zM1581 100v90q0 9 -5 15t-13 6h-54q-8 0 -13 -6t-5 -15v-90q0 -8 5.5 -13t12.5 -5h54q7 0 12.5 5t5.5 13zM565 1298v91q0 20 -18 20h-51q-21 0 -21 -20v-91q0 -8 6 -13t15 -5h51q7 0 12.5 5t5.5 13zM770 1298v91 q0 9 -6 14.5t-14 5.5h-52q-18 0 -18 -20v-91q0 -8 5 -13t13 -5h52q8 0 14 5.5t6 12.5zM973 1298v91q0 9 -5.5 14.5t-13.5 5.5h-53q-18 0 -18 -20v-91q0 -8 5.5 -13t12.5 -5h53q8 0 13.5 5.5t5.5 12.5zM1178 1298v91q0 9 -6.5 14.5t-14.5 5.5h-51q-8 0 -14.5 -5.5t-6.5 -14.5 v-91q0 -7 6.5 -12.5t14.5 -5.5h51q8 0 14.5 5.5t6.5 12.5zM1380 1298v91q0 20 -18 20h-53q-8 0 -13.5 -5.5t-5.5 -14.5v-91q0 -7 5.5 -12.5t13.5 -5.5h53q8 0 13 5t5 13zM1583 1298v91q0 20 -18 20h-52q-8 0 -14 -5.5t-6 -14.5v-91q0 -7 6 -12.5t14 -5.5h52q7 0 12.5 5 t5.5 13zM1622 1489v-1489h-1622v1489h694q17 -31 47 -49.5t64 -18.5q35 0 65.5 18.5t47.5 49.5h704zM844 731h-74l37 96q22 -62 37 -96zM979 379h199l-295 717h-156l-276 -717h192l68 182h194zM1579 1217v-938q0 -12 -9.5 -21.5t-21.5 -9.5h-1474q-12 0 -21.5 9.5t-9.5 21.5 v938q0 13 9.5 22.5t21.5 9.5h1474q12 0 21.5 -9.5t9.5 -22.5z" />
<glyph unicode="&#xc2;" d="M156 100v90q0 9 -5.5 15t-13.5 6h-53q-8 0 -13 -6t-5 -15v-90q0 -8 5 -13t13 -5h53q8 0 13.5 5.5t5.5 12.5zM360 100v90q0 9 -6 15t-14 6h-51q-8 0 -14.5 -6t-6.5 -15v-90q0 -7 6.5 -12.5t14.5 -5.5h51q8 0 14 5.5t6 12.5zM563 100v90q0 9 -5 15t-13 6h-53q-8 0 -13.5 -6 t-5.5 -15v-90q0 -7 5.5 -12.5t13.5 -5.5h53q7 0 12.5 5t5.5 13zM766 100v90q0 9 -5 15t-13 6h-52q-8 0 -14 -6t-6 -15v-90q0 -7 6 -12.5t14 -5.5h52q8 0 13 5t5 13zM971 100v90q0 9 -6.5 15t-14.5 6h-51q-8 0 -13 -6t-5 -15v-90q0 -8 5.5 -13t12.5 -5h51q8 0 14.5 5.5 t6.5 12.5zM1174 100v90q0 9 -5.5 15t-13.5 6h-53q-8 0 -13.5 -6t-5.5 -15v-90q0 -7 5.5 -12.5t13.5 -5.5h53q8 0 13.5 5.5t5.5 12.5zM158 1298v91q0 9 -5.5 14.5t-13.5 5.5h-51q-8 0 -14 -5.5t-6 -14.5v-91q0 -7 6 -12.5t14 -5.5h51q8 0 13.5 5.5t5.5 12.5zM1378 100v90 q0 9 -6 15t-14 6h-51q-8 0 -14.5 -6t-6.5 -15v-90q0 -7 6.5 -12.5t14.5 -5.5h51q8 0 14 5.5t6 12.5zM1593 279v938q0 19 -13 33t-32 14h-1474q-19 0 -32 -14t-13 -33v-938q0 -19 13 -32.5t32 -13.5h1474q19 0 32 13.5t13 32.5zM362 1298v91q0 20 -18 20h-53q-8 0 -13.5 -5.5 t-5.5 -14.5v-91q0 -7 5.5 -12.5t13.5 -5.5h53q8 0 13 5t5 13zM1581 100v90q0 9 -5 15t-13 6h-54q-8 0 -13 -6t-5 -15v-90q0 -8 5.5 -13t12.5 -5h54q7 0 12.5 5t5.5 13zM565 1298v91q0 20 -18 20h-51q-21 0 -21 -20v-91q0 -8 6 -13t15 -5h51q7 0 12.5 5t5.5 13zM770 1298v91 q0 9 -6 14.5t-14 5.5h-52q-18 0 -18 -20v-91q0 -8 5 -13t13 -5h52q8 0 14 5.5t6 12.5zM973 1298v91q0 9 -5.5 14.5t-13.5 5.5h-53q-18 0 -18 -20v-91q0 -8 5.5 -13t12.5 -5h53q8 0 13.5 5.5t5.5 12.5zM1178 1298v91q0 9 -6.5 14.5t-14.5 5.5h-51q-8 0 -14.5 -5.5t-6.5 -14.5 v-91q0 -7 6.5 -12.5t14.5 -5.5h51q8 0 14.5 5.5t6.5 12.5zM1380 1298v91q0 20 -18 20h-53q-8 0 -13.5 -5.5t-5.5 -14.5v-91q0 -7 5.5 -12.5t13.5 -5.5h53q8 0 13 5t5 13zM1583 1298v91q0 20 -18 20h-52q-8 0 -14 -5.5t-6 -14.5v-91q0 -7 6 -12.5t14 -5.5h52q7 0 12.5 5 t5.5 13zM1622 1489v-1489h-1622v1489h694q17 -31 47 -49.5t64 -18.5q35 0 65.5 18.5t47.5 49.5h704zM844 731h-74l37 96q22 -62 37 -96zM979 379h199l-295 717h-156l-276 -717h192l68 182h194zM1579 1217v-938q0 -12 -9.5 -21.5t-21.5 -9.5h-1474q-12 0 -21.5 9.5t-9.5 21.5 v938q0 13 9.5 22.5t21.5 9.5h1474q12 0 21.5 -9.5t9.5 -22.5z" />
<glyph unicode="&#xc3;" d="M156 100v90q0 9 -5.5 15t-13.5 6h-53q-8 0 -13 -6t-5 -15v-90q0 -8 5 -13t13 -5h53q8 0 13.5 5.5t5.5 12.5zM360 100v90q0 9 -6 15t-14 6h-51q-8 0 -14.5 -6t-6.5 -15v-90q0 -7 6.5 -12.5t14.5 -5.5h51q8 0 14 5.5t6 12.5zM563 100v90q0 9 -5 15t-13 6h-53q-8 0 -13.5 -6 t-5.5 -15v-90q0 -7 5.5 -12.5t13.5 -5.5h53q7 0 12.5 5t5.5 13zM766 100v90q0 9 -5 15t-13 6h-52q-8 0 -14 -6t-6 -15v-90q0 -7 6 -12.5t14 -5.5h52q8 0 13 5t5 13zM971 100v90q0 9 -6.5 15t-14.5 6h-51q-8 0 -13 -6t-5 -15v-90q0 -8 5.5 -13t12.5 -5h51q8 0 14.5 5.5 t6.5 12.5zM1174 100v90q0 9 -5.5 15t-13.5 6h-53q-8 0 -13.5 -6t-5.5 -15v-90q0 -7 5.5 -12.5t13.5 -5.5h53q8 0 13.5 5.5t5.5 12.5zM158 1298v91q0 9 -5.5 14.5t-13.5 5.5h-51q-8 0 -14 -5.5t-6 -14.5v-91q0 -7 6 -12.5t14 -5.5h51q8 0 13.5 5.5t5.5 12.5zM1378 100v90 q0 9 -6 15t-14 6h-51q-8 0 -14.5 -6t-6.5 -15v-90q0 -7 6.5 -12.5t14.5 -5.5h51q8 0 14 5.5t6 12.5zM1593 279v938q0 19 -13 33t-32 14h-1474q-19 0 -32 -14t-13 -33v-938q0 -19 13 -32.5t32 -13.5h1474q19 0 32 13.5t13 32.5zM362 1298v91q0 20 -18 20h-53q-8 0 -13.5 -5.5 t-5.5 -14.5v-91q0 -7 5.5 -12.5t13.5 -5.5h53q8 0 13 5t5 13zM1581 100v90q0 9 -5 15t-13 6h-54q-8 0 -13 -6t-5 -15v-90q0 -8 5.5 -13t12.5 -5h54q7 0 12.5 5t5.5 13zM565 1298v91q0 20 -18 20h-51q-21 0 -21 -20v-91q0 -8 6 -13t15 -5h51q7 0 12.5 5t5.5 13zM770 1298v91 q0 9 -6 14.5t-14 5.5h-52q-18 0 -18 -20v-91q0 -8 5 -13t13 -5h52q8 0 14 5.5t6 12.5zM973 1298v91q0 9 -5.5 14.5t-13.5 5.5h-53q-18 0 -18 -20v-91q0 -8 5.5 -13t12.5 -5h53q8 0 13.5 5.5t5.5 12.5zM1178 1298v91q0 9 -6.5 14.5t-14.5 5.5h-51q-8 0 -14.5 -5.5t-6.5 -14.5 v-91q0 -7 6.5 -12.5t14.5 -5.5h51q8 0 14.5 5.5t6.5 12.5zM1380 1298v91q0 20 -18 20h-53q-8 0 -13.5 -5.5t-5.5 -14.5v-91q0 -7 5.5 -12.5t13.5 -5.5h53q8 0 13 5t5 13zM1583 1298v91q0 20 -18 20h-52q-8 0 -14 -5.5t-6 -14.5v-91q0 -7 6 -12.5t14 -5.5h52q7 0 12.5 5 t5.5 13zM1622 1489v-1489h-1622v1489h694q17 -31 47 -49.5t64 -18.5q35 0 65.5 18.5t47.5 49.5h704zM844 731h-74l37 96q22 -62 37 -96zM979 379h199l-295 717h-156l-276 -717h192l68 182h194zM1579 1217v-938q0 -12 -9.5 -21.5t-21.5 -9.5h-1474q-12 0 -21.5 9.5t-9.5 21.5 v938q0 13 9.5 22.5t21.5 9.5h1474q12 0 21.5 -9.5t9.5 -22.5z" />
<glyph unicode="&#xc4;" d="M156 100v90q0 9 -5.5 15t-13.5 6h-53q-8 0 -13 -6t-5 -15v-90q0 -8 5 -13t13 -5h53q8 0 13.5 5.5t5.5 12.5zM360 100v90q0 9 -6 15t-14 6h-51q-8 0 -14.5 -6t-6.5 -15v-90q0 -7 6.5 -12.5t14.5 -5.5h51q8 0 14 5.5t6 12.5zM563 100v90q0 9 -5 15t-13 6h-53q-8 0 -13.5 -6 t-5.5 -15v-90q0 -7 5.5 -12.5t13.5 -5.5h53q7 0 12.5 5t5.5 13zM766 100v90q0 9 -5 15t-13 6h-52q-8 0 -14 -6t-6 -15v-90q0 -7 6 -12.5t14 -5.5h52q8 0 13 5t5 13zM971 100v90q0 9 -6.5 15t-14.5 6h-51q-8 0 -13 -6t-5 -15v-90q0 -8 5.5 -13t12.5 -5h51q8 0 14.5 5.5 t6.5 12.5zM1174 100v90q0 9 -5.5 15t-13.5 6h-53q-8 0 -13.5 -6t-5.5 -15v-90q0 -7 5.5 -12.5t13.5 -5.5h53q8 0 13.5 5.5t5.5 12.5zM158 1298v91q0 9 -5.5 14.5t-13.5 5.5h-51q-8 0 -14 -5.5t-6 -14.5v-91q0 -7 6 -12.5t14 -5.5h51q8 0 13.5 5.5t5.5 12.5zM1378 100v90 q0 9 -6 15t-14 6h-51q-8 0 -14.5 -6t-6.5 -15v-90q0 -7 6.5 -12.5t14.5 -5.5h51q8 0 14 5.5t6 12.5zM1593 279v938q0 19 -13 33t-32 14h-1474q-19 0 -32 -14t-13 -33v-938q0 -19 13 -32.5t32 -13.5h1474q19 0 32 13.5t13 32.5zM362 1298v91q0 20 -18 20h-53q-8 0 -13.5 -5.5 t-5.5 -14.5v-91q0 -7 5.5 -12.5t13.5 -5.5h53q8 0 13 5t5 13zM1581 100v90q0 9 -5 15t-13 6h-54q-8 0 -13 -6t-5 -15v-90q0 -8 5.5 -13t12.5 -5h54q7 0 12.5 5t5.5 13zM565 1298v91q0 20 -18 20h-51q-21 0 -21 -20v-91q0 -8 6 -13t15 -5h51q7 0 12.5 5t5.5 13zM770 1298v91 q0 9 -6 14.5t-14 5.5h-52q-18 0 -18 -20v-91q0 -8 5 -13t13 -5h52q8 0 14 5.5t6 12.5zM973 1298v91q0 9 -5.5 14.5t-13.5 5.5h-53q-18 0 -18 -20v-91q0 -8 5.5 -13t12.5 -5h53q8 0 13.5 5.5t5.5 12.5zM1178 1298v91q0 9 -6.5 14.5t-14.5 5.5h-51q-8 0 -14.5 -5.5t-6.5 -14.5 v-91q0 -7 6.5 -12.5t14.5 -5.5h51q8 0 14.5 5.5t6.5 12.5zM1380 1298v91q0 20 -18 20h-53q-8 0 -13.5 -5.5t-5.5 -14.5v-91q0 -7 5.5 -12.5t13.5 -5.5h53q8 0 13 5t5 13zM1583 1298v91q0 20 -18 20h-52q-8 0 -14 -5.5t-6 -14.5v-91q0 -7 6 -12.5t14 -5.5h52q7 0 12.5 5 t5.5 13zM1622 1489v-1489h-1622v1489h694q17 -31 47 -49.5t64 -18.5q35 0 65.5 18.5t47.5 49.5h704zM844 731h-74l37 96q22 -62 37 -96zM979 379h199l-295 717h-156l-276 -717h192l68 182h194zM1579 1217v-938q0 -12 -9.5 -21.5t-21.5 -9.5h-1474q-12 0 -21.5 9.5t-9.5 21.5 v938q0 13 9.5 22.5t21.5 9.5h1474q12 0 21.5 -9.5t9.5 -22.5z" />
<glyph unicode="&#xc5;" horiz-adv-x="811" />
<glyph unicode="&#xc6;" horiz-adv-x="811" />
<glyph unicode="&#xc7;" horiz-adv-x="811" />
<glyph unicode="&#xc8;" d="M156 100v90q0 9 -5.5 15t-13.5 6h-53q-8 0 -13 -6t-5 -15v-90q0 -8 5 -13t13 -5h53q8 0 13.5 5.5t5.5 12.5zM360 100v90q0 9 -6 15t-14 6h-51q-8 0 -14.5 -6t-6.5 -15v-90q0 -7 6.5 -12.5t14.5 -5.5h51q8 0 14 5.5t6 12.5zM563 100v90q0 9 -5 15t-13 6h-53q-8 0 -13.5 -6 t-5.5 -15v-90q0 -7 5.5 -12.5t13.5 -5.5h53q7 0 12.5 5t5.5 13zM766 100v90q0 9 -5 15t-13 6h-52q-8 0 -14 -6t-6 -15v-90q0 -7 6 -12.5t14 -5.5h52q8 0 13 5t5 13zM971 100v90q0 9 -6.5 15t-14.5 6h-51q-8 0 -13 -6t-5 -15v-90q0 -8 5.5 -13t12.5 -5h51q8 0 14.5 5.5 t6.5 12.5zM1174 100v90q0 9 -5.5 15t-13.5 6h-53q-8 0 -13.5 -6t-5.5 -15v-90q0 -7 5.5 -12.5t13.5 -5.5h53q8 0 13.5 5.5t5.5 12.5zM158 1298v91q0 9 -5.5 14.5t-13.5 5.5h-51q-8 0 -14 -5.5t-6 -14.5v-91q0 -7 6 -12.5t14 -5.5h51q8 0 13.5 5.5t5.5 12.5zM1378 100v90 q0 9 -6 15t-14 6h-51q-8 0 -14.5 -6t-6.5 -15v-90q0 -7 6.5 -12.5t14.5 -5.5h51q8 0 14 5.5t6 12.5zM1593 279v938q0 19 -13 33t-32 14h-1474q-19 0 -32 -14t-13 -33v-938q0 -19 13 -32.5t32 -13.5h1474q19 0 32 13.5t13 32.5zM362 1298v91q0 20 -18 20h-53q-8 0 -13.5 -5.5 t-5.5 -14.5v-91q0 -7 5.5 -12.5t13.5 -5.5h53q8 0 13 5t5 13zM1581 100v90q0 9 -5 15t-13 6h-54q-8 0 -13 -6t-5 -15v-90q0 -8 5.5 -13t12.5 -5h54q7 0 12.5 5t5.5 13zM565 1298v91q0 20 -18 20h-51q-21 0 -21 -20v-91q0 -8 6 -13t15 -5h51q7 0 12.5 5t5.5 13zM770 1298v91 q0 9 -6 14.5t-14 5.5h-52q-18 0 -18 -20v-91q0 -8 5 -13t13 -5h52q8 0 14 5.5t6 12.5zM973 1298v91q0 9 -5.5 14.5t-13.5 5.5h-53q-18 0 -18 -20v-91q0 -8 5.5 -13t12.5 -5h53q8 0 13.5 5.5t5.5 12.5zM1178 1298v91q0 9 -6.5 14.5t-14.5 5.5h-51q-8 0 -14.5 -5.5t-6.5 -14.5 v-91q0 -7 6.5 -12.5t14.5 -5.5h51q8 0 14.5 5.5t6.5 12.5zM1380 1298v91q0 20 -18 20h-53q-8 0 -13.5 -5.5t-5.5 -14.5v-91q0 -7 5.5 -12.5t13.5 -5.5h53q8 0 13 5t5 13zM1583 1298v91q0 20 -18 20h-52q-8 0 -14 -5.5t-6 -14.5v-91q0 -7 6 -12.5t14 -5.5h52q7 0 12.5 5 t5.5 13zM1622 1489v-1489h-1622v1489h694q17 -31 47 -49.5t64 -18.5q35 0 65.5 18.5t47.5 49.5h704zM522 379h570v170h-387v108h352v172h-352v97h374v170h-557v-717zM1579 1217v-938q0 -12 -9.5 -21.5t-21.5 -9.5h-1474q-12 0 -21.5 9.5t-9.5 21.5v938q0 13 9.5 22.5 t21.5 9.5h1474q12 0 21.5 -9.5t9.5 -22.5z" />
<glyph unicode="&#xc9;" d="M156 100v90q0 9 -5.5 15t-13.5 6h-53q-8 0 -13 -6t-5 -15v-90q0 -8 5 -13t13 -5h53q8 0 13.5 5.5t5.5 12.5zM360 100v90q0 9 -6 15t-14 6h-51q-8 0 -14.5 -6t-6.5 -15v-90q0 -7 6.5 -12.5t14.5 -5.5h51q8 0 14 5.5t6 12.5zM563 100v90q0 9 -5 15t-13 6h-53q-8 0 -13.5 -6 t-5.5 -15v-90q0 -7 5.5 -12.5t13.5 -5.5h53q7 0 12.5 5t5.5 13zM766 100v90q0 9 -5 15t-13 6h-52q-8 0 -14 -6t-6 -15v-90q0 -7 6 -12.5t14 -5.5h52q8 0 13 5t5 13zM971 100v90q0 9 -6.5 15t-14.5 6h-51q-8 0 -13 -6t-5 -15v-90q0 -8 5.5 -13t12.5 -5h51q8 0 14.5 5.5 t6.5 12.5zM1174 100v90q0 9 -5.5 15t-13.5 6h-53q-8 0 -13.5 -6t-5.5 -15v-90q0 -7 5.5 -12.5t13.5 -5.5h53q8 0 13.5 5.5t5.5 12.5zM158 1298v91q0 9 -5.5 14.5t-13.5 5.5h-51q-8 0 -14 -5.5t-6 -14.5v-91q0 -7 6 -12.5t14 -5.5h51q8 0 13.5 5.5t5.5 12.5zM1378 100v90 q0 9 -6 15t-14 6h-51q-8 0 -14.5 -6t-6.5 -15v-90q0 -7 6.5 -12.5t14.5 -5.5h51q8 0 14 5.5t6 12.5zM1593 279v938q0 19 -13 33t-32 14h-1474q-19 0 -32 -14t-13 -33v-938q0 -19 13 -32.5t32 -13.5h1474q19 0 32 13.5t13 32.5zM362 1298v91q0 20 -18 20h-53q-8 0 -13.5 -5.5 t-5.5 -14.5v-91q0 -7 5.5 -12.5t13.5 -5.5h53q8 0 13 5t5 13zM1581 100v90q0 9 -5 15t-13 6h-54q-8 0 -13 -6t-5 -15v-90q0 -8 5.5 -13t12.5 -5h54q7 0 12.5 5t5.5 13zM565 1298v91q0 20 -18 20h-51q-21 0 -21 -20v-91q0 -8 6 -13t15 -5h51q7 0 12.5 5t5.5 13zM770 1298v91 q0 9 -6 14.5t-14 5.5h-52q-18 0 -18 -20v-91q0 -8 5 -13t13 -5h52q8 0 14 5.5t6 12.5zM973 1298v91q0 9 -5.5 14.5t-13.5 5.5h-53q-18 0 -18 -20v-91q0 -8 5.5 -13t12.5 -5h53q8 0 13.5 5.5t5.5 12.5zM1178 1298v91q0 9 -6.5 14.5t-14.5 5.5h-51q-8 0 -14.5 -5.5t-6.5 -14.5 v-91q0 -7 6.5 -12.5t14.5 -5.5h51q8 0 14.5 5.5t6.5 12.5zM1380 1298v91q0 20 -18 20h-53q-8 0 -13.5 -5.5t-5.5 -14.5v-91q0 -7 5.5 -12.5t13.5 -5.5h53q8 0 13 5t5 13zM1583 1298v91q0 20 -18 20h-52q-8 0 -14 -5.5t-6 -14.5v-91q0 -7 6 -12.5t14 -5.5h52q7 0 12.5 5 t5.5 13zM1622 1489v-1489h-1622v1489h694q17 -31 47 -49.5t64 -18.5q35 0 65.5 18.5t47.5 49.5h704zM522 379h570v170h-387v108h352v172h-352v97h374v170h-557v-717zM1579 1217v-938q0 -12 -9.5 -21.5t-21.5 -9.5h-1474q-12 0 -21.5 9.5t-9.5 21.5v938q0 13 9.5 22.5 t21.5 9.5h1474q12 0 21.5 -9.5t9.5 -22.5z" />
<glyph unicode="&#xca;" d="M156 100v90q0 9 -5.5 15t-13.5 6h-53q-8 0 -13 -6t-5 -15v-90q0 -8 5 -13t13 -5h53q8 0 13.5 5.5t5.5 12.5zM360 100v90q0 9 -6 15t-14 6h-51q-8 0 -14.5 -6t-6.5 -15v-90q0 -7 6.5 -12.5t14.5 -5.5h51q8 0 14 5.5t6 12.5zM563 100v90q0 9 -5 15t-13 6h-53q-8 0 -13.5 -6 t-5.5 -15v-90q0 -7 5.5 -12.5t13.5 -5.5h53q7 0 12.5 5t5.5 13zM766 100v90q0 9 -5 15t-13 6h-52q-8 0 -14 -6t-6 -15v-90q0 -7 6 -12.5t14 -5.5h52q8 0 13 5t5 13zM971 100v90q0 9 -6.5 15t-14.5 6h-51q-8 0 -13 -6t-5 -15v-90q0 -8 5.5 -13t12.5 -5h51q8 0 14.5 5.5 t6.5 12.5zM1174 100v90q0 9 -5.5 15t-13.5 6h-53q-8 0 -13.5 -6t-5.5 -15v-90q0 -7 5.5 -12.5t13.5 -5.5h53q8 0 13.5 5.5t5.5 12.5zM158 1298v91q0 9 -5.5 14.5t-13.5 5.5h-51q-8 0 -14 -5.5t-6 -14.5v-91q0 -7 6 -12.5t14 -5.5h51q8 0 13.5 5.5t5.5 12.5zM1378 100v90 q0 9 -6 15t-14 6h-51q-8 0 -14.5 -6t-6.5 -15v-90q0 -7 6.5 -12.5t14.5 -5.5h51q8 0 14 5.5t6 12.5zM1593 279v938q0 19 -13 33t-32 14h-1474q-19 0 -32 -14t-13 -33v-938q0 -19 13 -32.5t32 -13.5h1474q19 0 32 13.5t13 32.5zM362 1298v91q0 20 -18 20h-53q-8 0 -13.5 -5.5 t-5.5 -14.5v-91q0 -7 5.5 -12.5t13.5 -5.5h53q8 0 13 5t5 13zM1581 100v90q0 9 -5 15t-13 6h-54q-8 0 -13 -6t-5 -15v-90q0 -8 5.5 -13t12.5 -5h54q7 0 12.5 5t5.5 13zM565 1298v91q0 20 -18 20h-51q-21 0 -21 -20v-91q0 -8 6 -13t15 -5h51q7 0 12.5 5t5.5 13zM770 1298v91 q0 9 -6 14.5t-14 5.5h-52q-18 0 -18 -20v-91q0 -8 5 -13t13 -5h52q8 0 14 5.5t6 12.5zM973 1298v91q0 9 -5.5 14.5t-13.5 5.5h-53q-18 0 -18 -20v-91q0 -8 5.5 -13t12.5 -5h53q8 0 13.5 5.5t5.5 12.5zM1178 1298v91q0 9 -6.5 14.5t-14.5 5.5h-51q-8 0 -14.5 -5.5t-6.5 -14.5 v-91q0 -7 6.5 -12.5t14.5 -5.5h51q8 0 14.5 5.5t6.5 12.5zM1380 1298v91q0 20 -18 20h-53q-8 0 -13.5 -5.5t-5.5 -14.5v-91q0 -7 5.5 -12.5t13.5 -5.5h53q8 0 13 5t5 13zM1583 1298v91q0 20 -18 20h-52q-8 0 -14 -5.5t-6 -14.5v-91q0 -7 6 -12.5t14 -5.5h52q7 0 12.5 5 t5.5 13zM1622 1489v-1489h-1622v1489h694q17 -31 47 -49.5t64 -18.5q35 0 65.5 18.5t47.5 49.5h704zM522 379h570v170h-387v108h352v172h-352v97h374v170h-557v-717zM1579 1217v-938q0 -12 -9.5 -21.5t-21.5 -9.5h-1474q-12 0 -21.5 9.5t-9.5 21.5v938q0 13 9.5 22.5 t21.5 9.5h1474q12 0 21.5 -9.5t9.5 -22.5z" />
<glyph unicode="&#xcb;" d="M156 100v90q0 9 -5.5 15t-13.5 6h-53q-8 0 -13 -6t-5 -15v-90q0 -8 5 -13t13 -5h53q8 0 13.5 5.5t5.5 12.5zM360 100v90q0 9 -6 15t-14 6h-51q-8 0 -14.5 -6t-6.5 -15v-90q0 -7 6.5 -12.5t14.5 -5.5h51q8 0 14 5.5t6 12.5zM563 100v90q0 9 -5 15t-13 6h-53q-8 0 -13.5 -6 t-5.5 -15v-90q0 -7 5.5 -12.5t13.5 -5.5h53q7 0 12.5 5t5.5 13zM766 100v90q0 9 -5 15t-13 6h-52q-8 0 -14 -6t-6 -15v-90q0 -7 6 -12.5t14 -5.5h52q8 0 13 5t5 13zM971 100v90q0 9 -6.5 15t-14.5 6h-51q-8 0 -13 -6t-5 -15v-90q0 -8 5.5 -13t12.5 -5h51q8 0 14.5 5.5 t6.5 12.5zM1174 100v90q0 9 -5.5 15t-13.5 6h-53q-8 0 -13.5 -6t-5.5 -15v-90q0 -7 5.5 -12.5t13.5 -5.5h53q8 0 13.5 5.5t5.5 12.5zM158 1298v91q0 9 -5.5 14.5t-13.5 5.5h-51q-8 0 -14 -5.5t-6 -14.5v-91q0 -7 6 -12.5t14 -5.5h51q8 0 13.5 5.5t5.5 12.5zM1378 100v90 q0 9 -6 15t-14 6h-51q-8 0 -14.5 -6t-6.5 -15v-90q0 -7 6.5 -12.5t14.5 -5.5h51q8 0 14 5.5t6 12.5zM1593 279v938q0 19 -13 33t-32 14h-1474q-19 0 -32 -14t-13 -33v-938q0 -19 13 -32.5t32 -13.5h1474q19 0 32 13.5t13 32.5zM362 1298v91q0 20 -18 20h-53q-8 0 -13.5 -5.5 t-5.5 -14.5v-91q0 -7 5.5 -12.5t13.5 -5.5h53q8 0 13 5t5 13zM1581 100v90q0 9 -5 15t-13 6h-54q-8 0 -13 -6t-5 -15v-90q0 -8 5.5 -13t12.5 -5h54q7 0 12.5 5t5.5 13zM565 1298v91q0 20 -18 20h-51q-21 0 -21 -20v-91q0 -8 6 -13t15 -5h51q7 0 12.5 5t5.5 13zM770 1298v91 q0 9 -6 14.5t-14 5.5h-52q-18 0 -18 -20v-91q0 -8 5 -13t13 -5h52q8 0 14 5.5t6 12.5zM973 1298v91q0 9 -5.5 14.5t-13.5 5.5h-53q-18 0 -18 -20v-91q0 -8 5.5 -13t12.5 -5h53q8 0 13.5 5.5t5.5 12.5zM1178 1298v91q0 9 -6.5 14.5t-14.5 5.5h-51q-8 0 -14.5 -5.5t-6.5 -14.5 v-91q0 -7 6.5 -12.5t14.5 -5.5h51q8 0 14.5 5.5t6.5 12.5zM1380 1298v91q0 20 -18 20h-53q-8 0 -13.5 -5.5t-5.5 -14.5v-91q0 -7 5.5 -12.5t13.5 -5.5h53q8 0 13 5t5 13zM1583 1298v91q0 20 -18 20h-52q-8 0 -14 -5.5t-6 -14.5v-91q0 -7 6 -12.5t14 -5.5h52q7 0 12.5 5 t5.5 13zM1622 1489v-1489h-1622v1489h694q17 -31 47 -49.5t64 -18.5q35 0 65.5 18.5t47.5 49.5h704zM522 379h570v170h-387v108h352v172h-352v97h374v170h-557v-717zM1579 1217v-938q0 -12 -9.5 -21.5t-21.5 -9.5h-1474q-12 0 -21.5 9.5t-9.5 21.5v938q0 13 9.5 22.5 t21.5 9.5h1474q12 0 21.5 -9.5t9.5 -22.5z" />
<glyph unicode="&#xcc;" d="M156 100v90q0 9 -5.5 15t-13.5 6h-53q-8 0 -13 -6t-5 -15v-90q0 -8 5 -13t13 -5h53q8 0 13.5 5.5t5.5 12.5zM360 100v90q0 9 -6 15t-14 6h-51q-8 0 -14.5 -6t-6.5 -15v-90q0 -7 6.5 -12.5t14.5 -5.5h51q8 0 14 5.5t6 12.5zM563 100v90q0 9 -5 15t-13 6h-53q-8 0 -13.5 -6 t-5.5 -15v-90q0 -7 5.5 -12.5t13.5 -5.5h53q7 0 12.5 5t5.5 13zM766 100v90q0 9 -5 15t-13 6h-52q-8 0 -14 -6t-6 -15v-90q0 -7 6 -12.5t14 -5.5h52q8 0 13 5t5 13zM971 100v90q0 9 -6.5 15t-14.5 6h-51q-8 0 -13 -6t-5 -15v-90q0 -8 5.5 -13t12.5 -5h51q8 0 14.5 5.5 t6.5 12.5zM1174 100v90q0 9 -5.5 15t-13.5 6h-53q-8 0 -13.5 -6t-5.5 -15v-90q0 -7 5.5 -12.5t13.5 -5.5h53q8 0 13.5 5.5t5.5 12.5zM158 1298v91q0 9 -5.5 14.5t-13.5 5.5h-51q-8 0 -14 -5.5t-6 -14.5v-91q0 -7 6 -12.5t14 -5.5h51q8 0 13.5 5.5t5.5 12.5zM1378 100v90 q0 9 -6 15t-14 6h-51q-8 0 -14.5 -6t-6.5 -15v-90q0 -7 6.5 -12.5t14.5 -5.5h51q8 0 14 5.5t6 12.5zM1593 279v938q0 19 -13 33t-32 14h-1474q-19 0 -32 -14t-13 -33v-938q0 -19 13 -32.5t32 -13.5h1474q19 0 32 13.5t13 32.5zM362 1298v91q0 20 -18 20h-53q-8 0 -13.5 -5.5 t-5.5 -14.5v-91q0 -7 5.5 -12.5t13.5 -5.5h53q8 0 13 5t5 13zM1581 100v90q0 9 -5 15t-13 6h-54q-8 0 -13 -6t-5 -15v-90q0 -8 5.5 -13t12.5 -5h54q7 0 12.5 5t5.5 13zM565 1298v91q0 20 -18 20h-51q-21 0 -21 -20v-91q0 -8 6 -13t15 -5h51q7 0 12.5 5t5.5 13zM770 1298v91 q0 9 -6 14.5t-14 5.5h-52q-18 0 -18 -20v-91q0 -8 5 -13t13 -5h52q8 0 14 5.5t6 12.5zM973 1298v91q0 9 -5.5 14.5t-13.5 5.5h-53q-18 0 -18 -20v-91q0 -8 5.5 -13t12.5 -5h53q8 0 13.5 5.5t5.5 12.5zM1178 1298v91q0 9 -6.5 14.5t-14.5 5.5h-51q-8 0 -14.5 -5.5t-6.5 -14.5 v-91q0 -7 6.5 -12.5t14.5 -5.5h51q8 0 14.5 5.5t6.5 12.5zM1380 1298v91q0 20 -18 20h-53q-8 0 -13.5 -5.5t-5.5 -14.5v-91q0 -7 5.5 -12.5t13.5 -5.5h53q8 0 13 5t5 13zM1583 1298v91q0 20 -18 20h-52q-8 0 -14 -5.5t-6 -14.5v-91q0 -7 6 -12.5t14 -5.5h52q7 0 12.5 5 t5.5 13zM1622 1489v-1489h-1622v1489h694q17 -31 47 -49.5t64 -18.5q35 0 65.5 18.5t47.5 49.5h704zM713 379h182v717h-182v-717zM1579 1217v-938q0 -12 -9.5 -21.5t-21.5 -9.5h-1474q-12 0 -21.5 9.5t-9.5 21.5v938q0 13 9.5 22.5t21.5 9.5h1474q12 0 21.5 -9.5t9.5 -22.5z " />
<glyph unicode="&#xcd;" d="M156 100v90q0 9 -5.5 15t-13.5 6h-53q-8 0 -13 -6t-5 -15v-90q0 -8 5 -13t13 -5h53q8 0 13.5 5.5t5.5 12.5zM360 100v90q0 9 -6 15t-14 6h-51q-8 0 -14.5 -6t-6.5 -15v-90q0 -7 6.5 -12.5t14.5 -5.5h51q8 0 14 5.5t6 12.5zM563 100v90q0 9 -5 15t-13 6h-53q-8 0 -13.5 -6 t-5.5 -15v-90q0 -7 5.5 -12.5t13.5 -5.5h53q7 0 12.5 5t5.5 13zM766 100v90q0 9 -5 15t-13 6h-52q-8 0 -14 -6t-6 -15v-90q0 -7 6 -12.5t14 -5.5h52q8 0 13 5t5 13zM971 100v90q0 9 -6.5 15t-14.5 6h-51q-8 0 -13 -6t-5 -15v-90q0 -8 5.5 -13t12.5 -5h51q8 0 14.5 5.5 t6.5 12.5zM1174 100v90q0 9 -5.5 15t-13.5 6h-53q-8 0 -13.5 -6t-5.5 -15v-90q0 -7 5.5 -12.5t13.5 -5.5h53q8 0 13.5 5.5t5.5 12.5zM158 1298v91q0 9 -5.5 14.5t-13.5 5.5h-51q-8 0 -14 -5.5t-6 -14.5v-91q0 -7 6 -12.5t14 -5.5h51q8 0 13.5 5.5t5.5 12.5zM1378 100v90 q0 9 -6 15t-14 6h-51q-8 0 -14.5 -6t-6.5 -15v-90q0 -7 6.5 -12.5t14.5 -5.5h51q8 0 14 5.5t6 12.5zM1593 279v938q0 19 -13 33t-32 14h-1474q-19 0 -32 -14t-13 -33v-938q0 -19 13 -32.5t32 -13.5h1474q19 0 32 13.5t13 32.5zM362 1298v91q0 20 -18 20h-53q-8 0 -13.5 -5.5 t-5.5 -14.5v-91q0 -7 5.5 -12.5t13.5 -5.5h53q8 0 13 5t5 13zM1581 100v90q0 9 -5 15t-13 6h-54q-8 0 -13 -6t-5 -15v-90q0 -8 5.5 -13t12.5 -5h54q7 0 12.5 5t5.5 13zM565 1298v91q0 20 -18 20h-51q-21 0 -21 -20v-91q0 -8 6 -13t15 -5h51q7 0 12.5 5t5.5 13zM770 1298v91 q0 9 -6 14.5t-14 5.5h-52q-18 0 -18 -20v-91q0 -8 5 -13t13 -5h52q8 0 14 5.5t6 12.5zM973 1298v91q0 9 -5.5 14.5t-13.5 5.5h-53q-18 0 -18 -20v-91q0 -8 5.5 -13t12.5 -5h53q8 0 13.5 5.5t5.5 12.5zM1178 1298v91q0 9 -6.5 14.5t-14.5 5.5h-51q-8 0 -14.5 -5.5t-6.5 -14.5 v-91q0 -7 6.5 -12.5t14.5 -5.5h51q8 0 14.5 5.5t6.5 12.5zM1380 1298v91q0 20 -18 20h-53q-8 0 -13.5 -5.5t-5.5 -14.5v-91q0 -7 5.5 -12.5t13.5 -5.5h53q8 0 13 5t5 13zM1583 1298v91q0 20 -18 20h-52q-8 0 -14 -5.5t-6 -14.5v-91q0 -7 6 -12.5t14 -5.5h52q7 0 12.5 5 t5.5 13zM1622 1489v-1489h-1622v1489h694q17 -31 47 -49.5t64 -18.5q35 0 65.5 18.5t47.5 49.5h704zM713 379h182v717h-182v-717zM1579 1217v-938q0 -12 -9.5 -21.5t-21.5 -9.5h-1474q-12 0 -21.5 9.5t-9.5 21.5v938q0 13 9.5 22.5t21.5 9.5h1474q12 0 21.5 -9.5t9.5 -22.5z " />
<glyph unicode="&#xce;" d="M156 100v90q0 9 -5.5 15t-13.5 6h-53q-8 0 -13 -6t-5 -15v-90q0 -8 5 -13t13 -5h53q8 0 13.5 5.5t5.5 12.5zM360 100v90q0 9 -6 15t-14 6h-51q-8 0 -14.5 -6t-6.5 -15v-90q0 -7 6.5 -12.5t14.5 -5.5h51q8 0 14 5.5t6 12.5zM563 100v90q0 9 -5 15t-13 6h-53q-8 0 -13.5 -6 t-5.5 -15v-90q0 -7 5.5 -12.5t13.5 -5.5h53q7 0 12.5 5t5.5 13zM766 100v90q0 9 -5 15t-13 6h-52q-8 0 -14 -6t-6 -15v-90q0 -7 6 -12.5t14 -5.5h52q8 0 13 5t5 13zM971 100v90q0 9 -6.5 15t-14.5 6h-51q-8 0 -13 -6t-5 -15v-90q0 -8 5.5 -13t12.5 -5h51q8 0 14.5 5.5 t6.5 12.5zM1174 100v90q0 9 -5.5 15t-13.5 6h-53q-8 0 -13.5 -6t-5.5 -15v-90q0 -7 5.5 -12.5t13.5 -5.5h53q8 0 13.5 5.5t5.5 12.5zM158 1298v91q0 9 -5.5 14.5t-13.5 5.5h-51q-8 0 -14 -5.5t-6 -14.5v-91q0 -7 6 -12.5t14 -5.5h51q8 0 13.5 5.5t5.5 12.5zM1378 100v90 q0 9 -6 15t-14 6h-51q-8 0 -14.5 -6t-6.5 -15v-90q0 -7 6.5 -12.5t14.5 -5.5h51q8 0 14 5.5t6 12.5zM1593 279v938q0 19 -13 33t-32 14h-1474q-19 0 -32 -14t-13 -33v-938q0 -19 13 -32.5t32 -13.5h1474q19 0 32 13.5t13 32.5zM362 1298v91q0 20 -18 20h-53q-8 0 -13.5 -5.5 t-5.5 -14.5v-91q0 -7 5.5 -12.5t13.5 -5.5h53q8 0 13 5t5 13zM1581 100v90q0 9 -5 15t-13 6h-54q-8 0 -13 -6t-5 -15v-90q0 -8 5.5 -13t12.5 -5h54q7 0 12.5 5t5.5 13zM565 1298v91q0 20 -18 20h-51q-21 0 -21 -20v-91q0 -8 6 -13t15 -5h51q7 0 12.5 5t5.5 13zM770 1298v91 q0 9 -6 14.5t-14 5.5h-52q-18 0 -18 -20v-91q0 -8 5 -13t13 -5h52q8 0 14 5.5t6 12.5zM973 1298v91q0 9 -5.5 14.5t-13.5 5.5h-53q-18 0 -18 -20v-91q0 -8 5.5 -13t12.5 -5h53q8 0 13.5 5.5t5.5 12.5zM1178 1298v91q0 9 -6.5 14.5t-14.5 5.5h-51q-8 0 -14.5 -5.5t-6.5 -14.5 v-91q0 -7 6.5 -12.5t14.5 -5.5h51q8 0 14.5 5.5t6.5 12.5zM1380 1298v91q0 20 -18 20h-53q-8 0 -13.5 -5.5t-5.5 -14.5v-91q0 -7 5.5 -12.5t13.5 -5.5h53q8 0 13 5t5 13zM1583 1298v91q0 20 -18 20h-52q-8 0 -14 -5.5t-6 -14.5v-91q0 -7 6 -12.5t14 -5.5h52q7 0 12.5 5 t5.5 13zM1622 1489v-1489h-1622v1489h694q17 -31 47 -49.5t64 -18.5q35 0 65.5 18.5t47.5 49.5h704zM713 379h182v717h-182v-717zM1579 1217v-938q0 -12 -9.5 -21.5t-21.5 -9.5h-1474q-12 0 -21.5 9.5t-9.5 21.5v938q0 13 9.5 22.5t21.5 9.5h1474q12 0 21.5 -9.5t9.5 -22.5z " />
<glyph unicode="&#xcf;" d="M156 100v90q0 9 -5.5 15t-13.5 6h-53q-8 0 -13 -6t-5 -15v-90q0 -8 5 -13t13 -5h53q8 0 13.5 5.5t5.5 12.5zM360 100v90q0 9 -6 15t-14 6h-51q-8 0 -14.5 -6t-6.5 -15v-90q0 -7 6.5 -12.5t14.5 -5.5h51q8 0 14 5.5t6 12.5zM563 100v90q0 9 -5 15t-13 6h-53q-8 0 -13.5 -6 t-5.5 -15v-90q0 -7 5.5 -12.5t13.5 -5.5h53q7 0 12.5 5t5.5 13zM766 100v90q0 9 -5 15t-13 6h-52q-8 0 -14 -6t-6 -15v-90q0 -7 6 -12.5t14 -5.5h52q8 0 13 5t5 13zM971 100v90q0 9 -6.5 15t-14.5 6h-51q-8 0 -13 -6t-5 -15v-90q0 -8 5.5 -13t12.5 -5h51q8 0 14.5 5.5 t6.5 12.5zM1174 100v90q0 9 -5.5 15t-13.5 6h-53q-8 0 -13.5 -6t-5.5 -15v-90q0 -7 5.5 -12.5t13.5 -5.5h53q8 0 13.5 5.5t5.5 12.5zM158 1298v91q0 9 -5.5 14.5t-13.5 5.5h-51q-8 0 -14 -5.5t-6 -14.5v-91q0 -7 6 -12.5t14 -5.5h51q8 0 13.5 5.5t5.5 12.5zM1378 100v90 q0 9 -6 15t-14 6h-51q-8 0 -14.5 -6t-6.5 -15v-90q0 -7 6.5 -12.5t14.5 -5.5h51q8 0 14 5.5t6 12.5zM1593 279v938q0 19 -13 33t-32 14h-1474q-19 0 -32 -14t-13 -33v-938q0 -19 13 -32.5t32 -13.5h1474q19 0 32 13.5t13 32.5zM362 1298v91q0 20 -18 20h-53q-8 0 -13.5 -5.5 t-5.5 -14.5v-91q0 -7 5.5 -12.5t13.5 -5.5h53q8 0 13 5t5 13zM1581 100v90q0 9 -5 15t-13 6h-54q-8 0 -13 -6t-5 -15v-90q0 -8 5.5 -13t12.5 -5h54q7 0 12.5 5t5.5 13zM565 1298v91q0 20 -18 20h-51q-21 0 -21 -20v-91q0 -8 6 -13t15 -5h51q7 0 12.5 5t5.5 13zM770 1298v91 q0 9 -6 14.5t-14 5.5h-52q-18 0 -18 -20v-91q0 -8 5 -13t13 -5h52q8 0 14 5.5t6 12.5zM973 1298v91q0 9 -5.5 14.5t-13.5 5.5h-53q-18 0 -18 -20v-91q0 -8 5.5 -13t12.5 -5h53q8 0 13.5 5.5t5.5 12.5zM1178 1298v91q0 9 -6.5 14.5t-14.5 5.5h-51q-8 0 -14.5 -5.5t-6.5 -14.5 v-91q0 -7 6.5 -12.5t14.5 -5.5h51q8 0 14.5 5.5t6.5 12.5zM1380 1298v91q0 20 -18 20h-53q-8 0 -13.5 -5.5t-5.5 -14.5v-91q0 -7 5.5 -12.5t13.5 -5.5h53q8 0 13 5t5 13zM1583 1298v91q0 20 -18 20h-52q-8 0 -14 -5.5t-6 -14.5v-91q0 -7 6 -12.5t14 -5.5h52q7 0 12.5 5 t5.5 13zM1622 1489v-1489h-1622v1489h694q17 -31 47 -49.5t64 -18.5q35 0 65.5 18.5t47.5 49.5h704zM713 379h182v717h-182v-717zM1579 1217v-938q0 -12 -9.5 -21.5t-21.5 -9.5h-1474q-12 0 -21.5 9.5t-9.5 21.5v938q0 13 9.5 22.5t21.5 9.5h1474q12 0 21.5 -9.5t9.5 -22.5z " />
<glyph unicode="&#xd0;" horiz-adv-x="811" />
<glyph unicode="&#xd1;" horiz-adv-x="811" />
<glyph unicode="&#xd2;" d="M156 100v90q0 9 -5.5 15t-13.5 6h-53q-8 0 -13 -6t-5 -15v-90q0 -8 5 -13t13 -5h53q8 0 13.5 5.5t5.5 12.5zM360 100v90q0 9 -6 15t-14 6h-51q-8 0 -14.5 -6t-6.5 -15v-90q0 -7 6.5 -12.5t14.5 -5.5h51q8 0 14 5.5t6 12.5zM563 100v90q0 9 -5 15t-13 6h-53q-8 0 -13.5 -6 t-5.5 -15v-90q0 -7 5.5 -12.5t13.5 -5.5h53q7 0 12.5 5t5.5 13zM766 100v90q0 9 -5 15t-13 6h-52q-8 0 -14 -6t-6 -15v-90q0 -7 6 -12.5t14 -5.5h52q8 0 13 5t5 13zM971 100v90q0 9 -6.5 15t-14.5 6h-51q-8 0 -13 -6t-5 -15v-90q0 -8 5.5 -13t12.5 -5h51q8 0 14.5 5.5 t6.5 12.5zM1174 100v90q0 9 -5.5 15t-13.5 6h-53q-8 0 -13.5 -6t-5.5 -15v-90q0 -7 5.5 -12.5t13.5 -5.5h53q8 0 13.5 5.5t5.5 12.5zM158 1298v91q0 9 -5.5 14.5t-13.5 5.5h-51q-8 0 -14 -5.5t-6 -14.5v-91q0 -7 6 -12.5t14 -5.5h51q8 0 13.5 5.5t5.5 12.5zM1378 100v90 q0 9 -6 15t-14 6h-51q-8 0 -14.5 -6t-6.5 -15v-90q0 -7 6.5 -12.5t14.5 -5.5h51q8 0 14 5.5t6 12.5zM1593 279v938q0 19 -13 33t-32 14h-1474q-19 0 -32 -14t-13 -33v-938q0 -19 13 -32.5t32 -13.5h1474q19 0 32 13.5t13 32.5zM362 1298v91q0 20 -18 20h-53q-8 0 -13.5 -5.5 t-5.5 -14.5v-91q0 -7 5.5 -12.5t13.5 -5.5h53q8 0 13 5t5 13zM1581 100v90q0 9 -5 15t-13 6h-54q-8 0 -13 -6t-5 -15v-90q0 -8 5.5 -13t12.5 -5h54q7 0 12.5 5t5.5 13zM565 1298v91q0 20 -18 20h-51q-21 0 -21 -20v-91q0 -8 6 -13t15 -5h51q7 0 12.5 5t5.5 13zM770 1298v91 q0 9 -6 14.5t-14 5.5h-52q-18 0 -18 -20v-91q0 -8 5 -13t13 -5h52q8 0 14 5.5t6 12.5zM973 1298v91q0 9 -5.5 14.5t-13.5 5.5h-53q-18 0 -18 -20v-91q0 -8 5.5 -13t12.5 -5h53q8 0 13.5 5.5t5.5 12.5zM1178 1298v91q0 9 -6.5 14.5t-14.5 5.5h-51q-8 0 -14.5 -5.5t-6.5 -14.5 v-91q0 -7 6.5 -12.5t14.5 -5.5h51q8 0 14.5 5.5t6.5 12.5zM1380 1298v91q0 20 -18 20h-53q-8 0 -13.5 -5.5t-5.5 -14.5v-91q0 -7 5.5 -12.5t13.5 -5.5h53q8 0 13 5t5 13zM1583 1298v91q0 20 -18 20h-52q-8 0 -14 -5.5t-6 -14.5v-91q0 -7 6 -12.5t14 -5.5h52q7 0 12.5 5 t5.5 13zM1622 1489v-1489h-1622v1489h694q17 -31 47 -49.5t64 -18.5q35 0 65.5 18.5t47.5 49.5h704zM969 737q0 -84 -39.5 -140t-120.5 -56q-77 0 -117.5 54t-40.5 134q0 90 37.5 147.5t122.5 57.5q80 0 119 -56.5t39 -140.5zM1145 737q0 154 -91.5 256.5t-242.5 102.5 q-157 0 -246.5 -104t-89.5 -263q0 -149 93 -249.5t243 -100.5q152 0 243 101.5t91 256.5zM1579 1217v-938q0 -12 -9.5 -21.5t-21.5 -9.5h-1474q-12 0 -21.5 9.5t-9.5 21.5v938q0 13 9.5 22.5t21.5 9.5h1474q12 0 21.5 -9.5t9.5 -22.5z" />
<glyph unicode="&#xd3;" d="M156 100v90q0 9 -5.5 15t-13.5 6h-53q-8 0 -13 -6t-5 -15v-90q0 -8 5 -13t13 -5h53q8 0 13.5 5.5t5.5 12.5zM360 100v90q0 9 -6 15t-14 6h-51q-8 0 -14.5 -6t-6.5 -15v-90q0 -7 6.5 -12.5t14.5 -5.5h51q8 0 14 5.5t6 12.5zM563 100v90q0 9 -5 15t-13 6h-53q-8 0 -13.5 -6 t-5.5 -15v-90q0 -7 5.5 -12.5t13.5 -5.5h53q7 0 12.5 5t5.5 13zM766 100v90q0 9 -5 15t-13 6h-52q-8 0 -14 -6t-6 -15v-90q0 -7 6 -12.5t14 -5.5h52q8 0 13 5t5 13zM971 100v90q0 9 -6.5 15t-14.5 6h-51q-8 0 -13 -6t-5 -15v-90q0 -8 5.5 -13t12.5 -5h51q8 0 14.5 5.5 t6.5 12.5zM1174 100v90q0 9 -5.5 15t-13.5 6h-53q-8 0 -13.5 -6t-5.5 -15v-90q0 -7 5.5 -12.5t13.5 -5.5h53q8 0 13.5 5.5t5.5 12.5zM158 1298v91q0 9 -5.5 14.5t-13.5 5.5h-51q-8 0 -14 -5.5t-6 -14.5v-91q0 -7 6 -12.5t14 -5.5h51q8 0 13.5 5.5t5.5 12.5zM1378 100v90 q0 9 -6 15t-14 6h-51q-8 0 -14.5 -6t-6.5 -15v-90q0 -7 6.5 -12.5t14.5 -5.5h51q8 0 14 5.5t6 12.5zM1593 279v938q0 19 -13 33t-32 14h-1474q-19 0 -32 -14t-13 -33v-938q0 -19 13 -32.5t32 -13.5h1474q19 0 32 13.5t13 32.5zM362 1298v91q0 20 -18 20h-53q-8 0 -13.5 -5.5 t-5.5 -14.5v-91q0 -7 5.5 -12.5t13.5 -5.5h53q8 0 13 5t5 13zM1581 100v90q0 9 -5 15t-13 6h-54q-8 0 -13 -6t-5 -15v-90q0 -8 5.5 -13t12.5 -5h54q7 0 12.5 5t5.5 13zM565 1298v91q0 20 -18 20h-51q-21 0 -21 -20v-91q0 -8 6 -13t15 -5h51q7 0 12.5 5t5.5 13zM770 1298v91 q0 9 -6 14.5t-14 5.5h-52q-18 0 -18 -20v-91q0 -8 5 -13t13 -5h52q8 0 14 5.5t6 12.5zM973 1298v91q0 9 -5.5 14.5t-13.5 5.5h-53q-18 0 -18 -20v-91q0 -8 5.5 -13t12.5 -5h53q8 0 13.5 5.5t5.5 12.5zM1178 1298v91q0 9 -6.5 14.5t-14.5 5.5h-51q-8 0 -14.5 -5.5t-6.5 -14.5 v-91q0 -7 6.5 -12.5t14.5 -5.5h51q8 0 14.5 5.5t6.5 12.5zM1380 1298v91q0 20 -18 20h-53q-8 0 -13.5 -5.5t-5.5 -14.5v-91q0 -7 5.5 -12.5t13.5 -5.5h53q8 0 13 5t5 13zM1583 1298v91q0 20 -18 20h-52q-8 0 -14 -5.5t-6 -14.5v-91q0 -7 6 -12.5t14 -5.5h52q7 0 12.5 5 t5.5 13zM1622 1489v-1489h-1622v1489h694q17 -31 47 -49.5t64 -18.5q35 0 65.5 18.5t47.5 49.5h704zM969 737q0 -84 -39.5 -140t-120.5 -56q-77 0 -117.5 54t-40.5 134q0 90 37.5 147.5t122.5 57.5q80 0 119 -56.5t39 -140.5zM1145 737q0 154 -91.5 256.5t-242.5 102.5 q-157 0 -246.5 -104t-89.5 -263q0 -149 93 -249.5t243 -100.5q152 0 243 101.5t91 256.5zM1579 1217v-938q0 -12 -9.5 -21.5t-21.5 -9.5h-1474q-12 0 -21.5 9.5t-9.5 21.5v938q0 13 9.5 22.5t21.5 9.5h1474q12 0 21.5 -9.5t9.5 -22.5z" />
<glyph unicode="&#xd4;" d="M156 100v90q0 9 -5.5 15t-13.5 6h-53q-8 0 -13 -6t-5 -15v-90q0 -8 5 -13t13 -5h53q8 0 13.5 5.5t5.5 12.5zM360 100v90q0 9 -6 15t-14 6h-51q-8 0 -14.5 -6t-6.5 -15v-90q0 -7 6.5 -12.5t14.5 -5.5h51q8 0 14 5.5t6 12.5zM563 100v90q0 9 -5 15t-13 6h-53q-8 0 -13.5 -6 t-5.5 -15v-90q0 -7 5.5 -12.5t13.5 -5.5h53q7 0 12.5 5t5.5 13zM766 100v90q0 9 -5 15t-13 6h-52q-8 0 -14 -6t-6 -15v-90q0 -7 6 -12.5t14 -5.5h52q8 0 13 5t5 13zM971 100v90q0 9 -6.5 15t-14.5 6h-51q-8 0 -13 -6t-5 -15v-90q0 -8 5.5 -13t12.5 -5h51q8 0 14.5 5.5 t6.5 12.5zM1174 100v90q0 9 -5.5 15t-13.5 6h-53q-8 0 -13.5 -6t-5.5 -15v-90q0 -7 5.5 -12.5t13.5 -5.5h53q8 0 13.5 5.5t5.5 12.5zM158 1298v91q0 9 -5.5 14.5t-13.5 5.5h-51q-8 0 -14 -5.5t-6 -14.5v-91q0 -7 6 -12.5t14 -5.5h51q8 0 13.5 5.5t5.5 12.5zM1378 100v90 q0 9 -6 15t-14 6h-51q-8 0 -14.5 -6t-6.5 -15v-90q0 -7 6.5 -12.5t14.5 -5.5h51q8 0 14 5.5t6 12.5zM1593 279v938q0 19 -13 33t-32 14h-1474q-19 0 -32 -14t-13 -33v-938q0 -19 13 -32.5t32 -13.5h1474q19 0 32 13.5t13 32.5zM362 1298v91q0 20 -18 20h-53q-8 0 -13.5 -5.5 t-5.5 -14.5v-91q0 -7 5.5 -12.5t13.5 -5.5h53q8 0 13 5t5 13zM1581 100v90q0 9 -5 15t-13 6h-54q-8 0 -13 -6t-5 -15v-90q0 -8 5.5 -13t12.5 -5h54q7 0 12.5 5t5.5 13zM565 1298v91q0 20 -18 20h-51q-21 0 -21 -20v-91q0 -8 6 -13t15 -5h51q7 0 12.5 5t5.5 13zM770 1298v91 q0 9 -6 14.5t-14 5.5h-52q-18 0 -18 -20v-91q0 -8 5 -13t13 -5h52q8 0 14 5.5t6 12.5zM973 1298v91q0 9 -5.5 14.5t-13.5 5.5h-53q-18 0 -18 -20v-91q0 -8 5.5 -13t12.5 -5h53q8 0 13.5 5.5t5.5 12.5zM1178 1298v91q0 9 -6.5 14.5t-14.5 5.5h-51q-8 0 -14.5 -5.5t-6.5 -14.5 v-91q0 -7 6.5 -12.5t14.5 -5.5h51q8 0 14.5 5.5t6.5 12.5zM1380 1298v91q0 20 -18 20h-53q-8 0 -13.5 -5.5t-5.5 -14.5v-91q0 -7 5.5 -12.5t13.5 -5.5h53q8 0 13 5t5 13zM1583 1298v91q0 20 -18 20h-52q-8 0 -14 -5.5t-6 -14.5v-91q0 -7 6 -12.5t14 -5.5h52q7 0 12.5 5 t5.5 13zM1622 1489v-1489h-1622v1489h694q17 -31 47 -49.5t64 -18.5q35 0 65.5 18.5t47.5 49.5h704zM969 737q0 -84 -39.5 -140t-120.5 -56q-77 0 -117.5 54t-40.5 134q0 90 37.5 147.5t122.5 57.5q80 0 119 -56.5t39 -140.5zM1145 737q0 154 -91.5 256.5t-242.5 102.5 q-157 0 -246.5 -104t-89.5 -263q0 -149 93 -249.5t243 -100.5q152 0 243 101.5t91 256.5zM1579 1217v-938q0 -12 -9.5 -21.5t-21.5 -9.5h-1474q-12 0 -21.5 9.5t-9.5 21.5v938q0 13 9.5 22.5t21.5 9.5h1474q12 0 21.5 -9.5t9.5 -22.5z" />
<glyph unicode="&#xd5;" d="M156 100v90q0 9 -5.5 15t-13.5 6h-53q-8 0 -13 -6t-5 -15v-90q0 -8 5 -13t13 -5h53q8 0 13.5 5.5t5.5 12.5zM360 100v90q0 9 -6 15t-14 6h-51q-8 0 -14.5 -6t-6.5 -15v-90q0 -7 6.5 -12.5t14.5 -5.5h51q8 0 14 5.5t6 12.5zM563 100v90q0 9 -5 15t-13 6h-53q-8 0 -13.5 -6 t-5.5 -15v-90q0 -7 5.5 -12.5t13.5 -5.5h53q7 0 12.5 5t5.5 13zM766 100v90q0 9 -5 15t-13 6h-52q-8 0 -14 -6t-6 -15v-90q0 -7 6 -12.5t14 -5.5h52q8 0 13 5t5 13zM971 100v90q0 9 -6.5 15t-14.5 6h-51q-8 0 -13 -6t-5 -15v-90q0 -8 5.5 -13t12.5 -5h51q8 0 14.5 5.5 t6.5 12.5zM1174 100v90q0 9 -5.5 15t-13.5 6h-53q-8 0 -13.5 -6t-5.5 -15v-90q0 -7 5.5 -12.5t13.5 -5.5h53q8 0 13.5 5.5t5.5 12.5zM158 1298v91q0 9 -5.5 14.5t-13.5 5.5h-51q-8 0 -14 -5.5t-6 -14.5v-91q0 -7 6 -12.5t14 -5.5h51q8 0 13.5 5.5t5.5 12.5zM1378 100v90 q0 9 -6 15t-14 6h-51q-8 0 -14.5 -6t-6.5 -15v-90q0 -7 6.5 -12.5t14.5 -5.5h51q8 0 14 5.5t6 12.5zM1593 279v938q0 19 -13 33t-32 14h-1474q-19 0 -32 -14t-13 -33v-938q0 -19 13 -32.5t32 -13.5h1474q19 0 32 13.5t13 32.5zM362 1298v91q0 20 -18 20h-53q-8 0 -13.5 -5.5 t-5.5 -14.5v-91q0 -7 5.5 -12.5t13.5 -5.5h53q8 0 13 5t5 13zM1581 100v90q0 9 -5 15t-13 6h-54q-8 0 -13 -6t-5 -15v-90q0 -8 5.5 -13t12.5 -5h54q7 0 12.5 5t5.5 13zM565 1298v91q0 20 -18 20h-51q-21 0 -21 -20v-91q0 -8 6 -13t15 -5h51q7 0 12.5 5t5.5 13zM770 1298v91 q0 9 -6 14.5t-14 5.5h-52q-18 0 -18 -20v-91q0 -8 5 -13t13 -5h52q8 0 14 5.5t6 12.5zM973 1298v91q0 9 -5.5 14.5t-13.5 5.5h-53q-18 0 -18 -20v-91q0 -8 5.5 -13t12.5 -5h53q8 0 13.5 5.5t5.5 12.5zM1178 1298v91q0 9 -6.5 14.5t-14.5 5.5h-51q-8 0 -14.5 -5.5t-6.5 -14.5 v-91q0 -7 6.5 -12.5t14.5 -5.5h51q8 0 14.5 5.5t6.5 12.5zM1380 1298v91q0 20 -18 20h-53q-8 0 -13.5 -5.5t-5.5 -14.5v-91q0 -7 5.5 -12.5t13.5 -5.5h53q8 0 13 5t5 13zM1583 1298v91q0 20 -18 20h-52q-8 0 -14 -5.5t-6 -14.5v-91q0 -7 6 -12.5t14 -5.5h52q7 0 12.5 5 t5.5 13zM1622 1489v-1489h-1622v1489h694q17 -31 47 -49.5t64 -18.5q35 0 65.5 18.5t47.5 49.5h704zM969 737q0 -84 -39.5 -140t-120.5 -56q-77 0 -117.5 54t-40.5 134q0 90 37.5 147.5t122.5 57.5q80 0 119 -56.5t39 -140.5zM1145 737q0 154 -91.5 256.5t-242.5 102.5 q-157 0 -246.5 -104t-89.5 -263q0 -149 93 -249.5t243 -100.5q152 0 243 101.5t91 256.5zM1579 1217v-938q0 -12 -9.5 -21.5t-21.5 -9.5h-1474q-12 0 -21.5 9.5t-9.5 21.5v938q0 13 9.5 22.5t21.5 9.5h1474q12 0 21.5 -9.5t9.5 -22.5z" />
<glyph unicode="&#xd6;" d="M156 100v90q0 9 -5.5 15t-13.5 6h-53q-8 0 -13 -6t-5 -15v-90q0 -8 5 -13t13 -5h53q8 0 13.5 5.5t5.5 12.5zM360 100v90q0 9 -6 15t-14 6h-51q-8 0 -14.5 -6t-6.5 -15v-90q0 -7 6.5 -12.5t14.5 -5.5h51q8 0 14 5.5t6 12.5zM563 100v90q0 9 -5 15t-13 6h-53q-8 0 -13.5 -6 t-5.5 -15v-90q0 -7 5.5 -12.5t13.5 -5.5h53q7 0 12.5 5t5.5 13zM766 100v90q0 9 -5 15t-13 6h-52q-8 0 -14 -6t-6 -15v-90q0 -7 6 -12.5t14 -5.5h52q8 0 13 5t5 13zM971 100v90q0 9 -6.5 15t-14.5 6h-51q-8 0 -13 -6t-5 -15v-90q0 -8 5.5 -13t12.5 -5h51q8 0 14.5 5.5 t6.5 12.5zM1174 100v90q0 9 -5.5 15t-13.5 6h-53q-8 0 -13.5 -6t-5.5 -15v-90q0 -7 5.5 -12.5t13.5 -5.5h53q8 0 13.5 5.5t5.5 12.5zM158 1298v91q0 9 -5.5 14.5t-13.5 5.5h-51q-8 0 -14 -5.5t-6 -14.5v-91q0 -7 6 -12.5t14 -5.5h51q8 0 13.5 5.5t5.5 12.5zM1378 100v90 q0 9 -6 15t-14 6h-51q-8 0 -14.5 -6t-6.5 -15v-90q0 -7 6.5 -12.5t14.5 -5.5h51q8 0 14 5.5t6 12.5zM1593 279v938q0 19 -13 33t-32 14h-1474q-19 0 -32 -14t-13 -33v-938q0 -19 13 -32.5t32 -13.5h1474q19 0 32 13.5t13 32.5zM362 1298v91q0 20 -18 20h-53q-8 0 -13.5 -5.5 t-5.5 -14.5v-91q0 -7 5.5 -12.5t13.5 -5.5h53q8 0 13 5t5 13zM1581 100v90q0 9 -5 15t-13 6h-54q-8 0 -13 -6t-5 -15v-90q0 -8 5.5 -13t12.5 -5h54q7 0 12.5 5t5.5 13zM565 1298v91q0 20 -18 20h-51q-21 0 -21 -20v-91q0 -8 6 -13t15 -5h51q7 0 12.5 5t5.5 13zM770 1298v91 q0 9 -6 14.5t-14 5.5h-52q-18 0 -18 -20v-91q0 -8 5 -13t13 -5h52q8 0 14 5.5t6 12.5zM973 1298v91q0 9 -5.5 14.5t-13.5 5.5h-53q-18 0 -18 -20v-91q0 -8 5.5 -13t12.5 -5h53q8 0 13.5 5.5t5.5 12.5zM1178 1298v91q0 9 -6.5 14.5t-14.5 5.5h-51q-8 0 -14.5 -5.5t-6.5 -14.5 v-91q0 -7 6.5 -12.5t14.5 -5.5h51q8 0 14.5 5.5t6.5 12.5zM1380 1298v91q0 20 -18 20h-53q-8 0 -13.5 -5.5t-5.5 -14.5v-91q0 -7 5.5 -12.5t13.5 -5.5h53q8 0 13 5t5 13zM1583 1298v91q0 20 -18 20h-52q-8 0 -14 -5.5t-6 -14.5v-91q0 -7 6 -12.5t14 -5.5h52q7 0 12.5 5 t5.5 13zM1622 1489v-1489h-1622v1489h694q17 -31 47 -49.5t64 -18.5q35 0 65.5 18.5t47.5 49.5h704zM969 737q0 -84 -39.5 -140t-120.5 -56q-77 0 -117.5 54t-40.5 134q0 90 37.5 147.5t122.5 57.5q80 0 119 -56.5t39 -140.5zM1145 737q0 154 -91.5 256.5t-242.5 102.5 q-157 0 -246.5 -104t-89.5 -263q0 -149 93 -249.5t243 -100.5q152 0 243 101.5t91 256.5zM1579 1217v-938q0 -12 -9.5 -21.5t-21.5 -9.5h-1474q-12 0 -21.5 9.5t-9.5 21.5v938q0 13 9.5 22.5t21.5 9.5h1474q12 0 21.5 -9.5t9.5 -22.5z" />
<glyph unicode="&#xd7;" horiz-adv-x="811" />
<glyph unicode="&#xd8;" horiz-adv-x="811" />
</font>
</defs>
</svg>
